<?xml version="1.0" standalone="no"?>
<!DOCTYPE svg PUBLIC "-//W3C//DTD SVG 1.1//EN" "http://www.w3.org/Graphics/SVG/1.1/DTD/svg11.dtd" >
<svg xmlns="http://www.w3.org/2000/svg" xmlns:xlink="http://www.w3.org/1999/xlink" version="1.1">
<metadata>
Created by FontForge 20190801 at Thu Jan  9 18:11:34 2020
 By Jimmy Wärting
Copyright 2019 The Manrope Project Authors \(https://github.com/sharanda/manrope\)
</metadata>
<defs>
<font id="Manrope-Bold" horiz-adv-x="280" >
  <font-face 
    font-family="Manrope"
    font-weight="700"
    font-stretch="normal"
    units-per-em="1000"
    panose-1="0 0 8 0 0 0 0 0 0 0"
    ascent="800"
    descent="-200"
    x-height="540"
    cap-height="720"
    bbox="-153 -287 1252 997"
    underline-thickness="50"
    underline-position="-100"
    unicode-range="U+000D-FB02"
  />
<missing-glyph horiz-adv-x="740" 
d="M100 707v13h540v-13h-540zM100 649v16h540v-16h-540zM100 592v18h540v-18h-540zM100 533v21h540v-21h-540zM100 476v22h540v-22h-540zM100 419v24h540v-24h-540zM100 360v28h540v-28h-540zM100 303v30h540v-30h-540zM100 245v33h540v-33h-540zM100 187v35h540v-35h-540z
M100 130v37h540v-37h-540zM100 72v40h540v-40h-540zM100 0v57h540v-57h-540z" />
    <glyph glyph-name="f_f" unicode="ff" horiz-adv-x="715" 
d="M642 637c-46 0 -68 -25 -68 -62v-35h131v-94h-131v-446h-120v446h-216v-446h-121v446h-87v94h87v9c0 41 -1 98 36 139c45 51 108 47 148 47h67v-98h-62c-47 0 -68 -25 -68 -62v-35h216v9c0 41 -2 98 35 139c46 51 109 47 148 47h68v-98h-63z" />
    <glyph glyph-name="f_f_l" unicode="ffl" horiz-adv-x="1026" 
d="M826 735h120v-735h-120v446h-252v-446h-120v446h-216v-446h-121v446h-87v94h87v9c0 41 -1 98 36 139c45 51 108 47 148 47h67v-98h-62c-47 0 -68 -25 -68 -62v-35h216v9c0 41 -2 98 35 139c46 51 109 47 148 47h68v-98h-63c-46 0 -68 -25 -68 -62v-35h252v195z" />
    <glyph glyph-name="fi" unicode="fi" horiz-adv-x="674" 
d="M153 688c45 51 108 47 148 47h67v-98h-62c-47 0 -68 -25 -68 -62v-35h130v-94h-130v-446h-121v446h-87v94h87v9c0 41 -1 98 36 139zM473 734h120v-110h-120v110zM473 0v540h120v-540h-120z" />
    <glyph glyph-name="fl" unicode="fl" horiz-adv-x="689" 
d="M489 735h120v-735h-120v446h-251v-446h-121v446h-87v94h87v9c0 41 -1 98 36 139c45 51 108 47 148 47h67v-98h-62c-47 0 -68 -25 -68 -62v-35h251v195z" />
    <glyph glyph-name="t_t.liga" unicode="tt" horiz-adv-x="806" 
d="M601 446v-219c0 -42 -2 -76 11 -97c24 -39 80 -39 148 -29v-101c-107 -21 -216 -11 -258 66c-25 47 -21 93 -21 155v225h-253v-219c0 -42 -2 -76 11 -97c24 -39 80 -39 148 -29v-101c-107 -21 -216 -11 -258 66c-25 47 -21 93 -21 155v225h-98v94h98v150h120v-150h253
v150h120v-150h159v-94h-159z" />
    <glyph glyph-name="hyphen_hyphen.liga" unicode="&#x2d;&#x2d;" horiz-adv-x="540" 
d="M60 268v95h420v-95h-420z" />
    <glyph glyph-name="hyphen_greater.liga" unicode="&#x2d;&#x3e;" horiz-adv-x="1012" 
d="M140 268v95h569l-135 134l57 58l241 -240l-241 -240l-57 58l136 135h-570z" />
    <glyph glyph-name="parenleft_greater_parenright.liga" unicode="&#x28;&#x3e;&#x29;" horiz-adv-x="1150" 
d="M575 -135c274 0 495 221 495 495s-221 495 -495 495s-495 -221 -495 -495s221 -495 495 -495zM575 -22c-212 0 -382 170 -382 382s170 382 382 382s382 -170 382 -382s-170 -382 -382 -382zM505 535l210 -175l-210 -175v350z" />
    <glyph glyph-name="parenleft_c_parenright.liga" unicode="&#x28;c&#x29;" horiz-adv-x="986" 
d="M493 -59c-228 0 -413 185 -413 413s185 413 413 413c229 0 413 -185 413 -413s-184 -413 -413 -413zM493 54c166 0 300 134 300 300s-134 300 -300 300s-300 -134 -300 -300s134 -300 300 -300zM501 141c-67 0 -113 20 -150 66c-35 44 -49 93 -49 147c0 56 16 106 49 146
c37 45 84 68 155 68c37 0 67 -7 100 -27c36 -22 64 -57 75 -103l-92 -25c-6 18 -16 35 -33 49c-16 14 -35 20 -56 20c-32 0 -57 -14 -76 -37c-19 -25 -24 -58 -24 -90c0 -34 7 -66 24 -91c18 -23 43 -36 78 -36c24 0 42 5 56 17c15 14 22 27 29 46l94 -20
c-12 -39 -35 -73 -65 -96s-64 -34 -115 -34z" />
    <glyph glyph-name="space_less_three_space.liga" unicode="&#x20;&#x3c;&#x33;&#x20;" horiz-adv-x="1161" 
d="M580 -15c-25 0 -50 11 -68 30l-175 185c-124 134 -32 355 141 355c35 0 69 -10 102 -30c38 23 74 30 103 30c175 0 264 -223 141 -355l-175 -185c-18 -19 -43 -30 -69 -30zM580 80l176 185c68 71 16 196 -73 196c-33 0 -68 -18 -103 -56c-35 38 -70 56 -102 56
c-92 0 -139 -128 -72 -196z" />
    <glyph glyph-name="less_hyphen.liga" unicode="&#x3c;&#x2d;" horiz-adv-x="1012" 
d="M871 268h-569l135 -135l-57 -58l-240 240l240 240l57 -58l-134 -134h568v-95z" />
    <glyph glyph-name=".notdef" horiz-adv-x="740" 
d="M100 707v13h540v-13h-540zM100 649v16h540v-16h-540zM100 592v18h540v-18h-540zM100 533v21h540v-21h-540zM100 476v22h540v-22h-540zM100 419v24h540v-24h-540zM100 360v28h540v-28h-540zM100 303v30h540v-30h-540zM100 245v33h540v-33h-540zM100 187v35h540v-35h-540z
M100 130v37h540v-37h-540zM100 72v40h540v-40h-540zM100 0v57h540v-57h-540z" />
    <glyph glyph-name=".null" horiz-adv-x="600" 
 />
    <glyph glyph-name="CR" unicode="&#xd;" horiz-adv-x="600" 
 />
    <glyph glyph-name="space" unicode=" " horiz-adv-x="200" 
 />
    <glyph glyph-name="A" unicode="A" horiz-adv-x="671" 
d="M527 0l-50 156h-284l-49 -156h-124l227 720h177l227 -720h-124zM229 269h212l-107 335z" />
    <glyph glyph-name="Aacute" unicode="&#xc1;" horiz-adv-x="671" 
d="M476 881l-267 -96l-31 88l268 96zM527 0l-50 156h-284l-49 -156h-124l227 720h177l227 -720h-124zM229 269h212l-107 336z" />
    <glyph glyph-name="Abreve" unicode="&#x102;" horiz-adv-x="671" 
d="M336 780c-84 0 -152 68 -152 152h94c0 -32 26 -58 58 -58s57 26 57 58h94c0 -84 -67 -152 -151 -152zM527 0l-50 156h-284l-49 -156h-124l227 720h177l227 -720h-124zM229 269h212l-107 336z" />
    <glyph glyph-name="Acircumflex" unicode="&#xc2;" horiz-adv-x="671" 
d="M336 855l-127 -69l-44 83l171 93l170 -93l-44 -83zM527 0l-50 156h-284l-49 -156h-124l227 720h177l227 -720h-124zM229 269h212l-107 336z" />
    <glyph glyph-name="Adieresis" unicode="&#xc4;" horiz-adv-x="671" 
d="M288 950v-110h-110v110h110zM494 950v-110h-110v110h110zM527 0l-50 156h-284l-49 -156h-124l227 720h177l227 -720h-124zM229 269h212l-107 336z" />
    <glyph glyph-name="Agrave" unicode="&#xc0;" horiz-adv-x="671" 
d="M494 873l-32 -88l-267 96l30 88zM527 0l-49 156h-283l-50 -156h-125l227 720h177l227 -720h-124zM230 269h212l-105 336z" />
    <glyph glyph-name="Amacron" unicode="&#x100;" horiz-adv-x="671" 
d="M469 934v-94h-266v94h266zM527 0l-50 156h-284l-49 -156h-124l227 720h177l227 -720h-124zM229 269h212l-107 336z" />
    <glyph glyph-name="Aogonek" unicode="&#x104;" horiz-adv-x="671" 
d="M569 -150c11 0 24 6 37 17l43 -56c-23 -33 -60 -51 -96 -51c-63 0 -107 52 -107 110c0 48 31 100 77 142l-46 144h-284l-49 -156h-124l227 720h177l227 -720c-61 -33 -111 -87 -111 -121c0 -17 13 -29 29 -29zM229 269h212l-107 336z" />
    <glyph glyph-name="Aring" unicode="&#xc5;" horiz-adv-x="671" 
d="M527 0l-50 156h-284l-49 -156h-124l213 677c-26 26 -43 63 -43 103c0 80 66 146 146 146s146 -66 146 -146c0 -41 -17 -78 -44 -104l213 -676h-124zM336 840c-33 0 -60 -27 -60 -60s27 -60 60 -60s60 27 60 60s-27 60 -60 60zM229 269h212l-107 336z" />
    <glyph glyph-name="Atilde" unicode="&#xc3;" horiz-adv-x="671" 
d="M414 825c-71 0 -112 82 -151 82c-21 0 -31 -23 -21 -69h-72c-15 85 26 144 87 144c71 0 115 -82 152 -82c21 0 30 29 21 69h72c15 -80 -24 -144 -88 -144zM527 0l-50 156h-284l-49 -156h-124l227 720h177l227 -720h-124zM229 269h212l-107 335z" />
    <glyph glyph-name="AE" unicode="&#xc6;" horiz-adv-x="938" 
d="M888 607h-344v-178h284v-112h-284v-204h344v-113h-465v156h-230l-49 -156h-124l227 720h641v-113zM228 269h195v338h-89z" />
    <glyph glyph-name="B" unicode="B" horiz-adv-x="631" 
d="M495 379c70 -29 106 -92 106 -165c0 -128 -74 -214 -216 -214h-315v720h286c145 0 212 -101 212 -198c0 -66 -28 -116 -73 -143zM192 607v-174h162c52 0 91 29 91 87c0 50 -34 87 -91 87h-162zM370 114c63 0 109 40 109 104c0 58 -39 102 -106 102h-181v-206h178z" />
    <glyph glyph-name="C" unicode="C" horiz-adv-x="738" 
d="M375 -15c-216 0 -345 152 -345 375s129 375 345 375c165 0 279 -89 323 -230l-121 -33c-28 93 -95 149 -202 149c-145 0 -218 -103 -218 -261c-1 -157 73 -261 218 -261c107 0 174 56 202 150l121 -34c-44 -141 -158 -230 -323 -230z" />
    <glyph glyph-name="Cacute" unicode="&#x106;" horiz-adv-x="738" 
d="M274 785l-31 88l268 96l31 -88zM375 -15c-216 0 -345 152 -345 375s129 375 345 375c165 0 279 -89 323 -230l-121 -33c-28 93 -95 149 -202 149c-145 0 -218 -103 -218 -261c-1 -157 73 -261 218 -261c107 0 174 56 202 150l121 -34c-44 -141 -158 -230 -323 -230z" />
    <glyph glyph-name="Ccaron" unicode="&#x10c;" horiz-adv-x="738" 
d="M377 786l-171 94l44 82l127 -69l126 69l44 -82zM375 -15c-216 0 -345 152 -345 375s129 375 345 375c165 0 279 -89 323 -230l-121 -33c-28 93 -95 149 -202 149c-145 0 -218 -103 -218 -261c-1 -157 73 -261 218 -261c107 0 174 56 202 150l121 -34
c-44 -141 -158 -230 -323 -230z" />
    <glyph glyph-name="Ccedilla" unicode="&#xc7;" horiz-adv-x="738" 
d="M375 99c107 0 174 56 202 150l121 -34c-40 -128 -138 -214 -280 -228l-10 -29c38 -19 61 -50 61 -93c0 -63 -49 -107 -105 -107c-27 0 -50 8 -69 19l26 71c14 -5 24 -7 32 -7c20 0 32 14 32 27c0 26 -31 35 -66 45l26 73c-198 14 -315 162 -315 374
c0 223 129 375 345 375c165 0 279 -89 323 -230l-121 -33c-28 93 -95 149 -202 149c-145 0 -218 -103 -218 -261c-1 -157 73 -261 218 -261z" />
    <glyph glyph-name="Cdotaccent" unicode="&#x10a;" horiz-adv-x="738" 
d="M318 852v123h123v-123h-123zM375 -15c-216 0 -345 152 -345 375s129 375 345 375c165 0 279 -89 323 -230l-121 -33c-28 93 -95 149 -202 149c-145 0 -218 -103 -218 -261c-1 -157 73 -261 218 -261c107 0 174 56 202 150l121 -34c-44 -141 -158 -230 -323 -230z" />
    <glyph glyph-name="D" unicode="D" horiz-adv-x="700" 
d="M70 0v720h229c12 0 55 0 88 -4c172 -21 265 -173 265 -356s-93 -334 -265 -356c-33 -4 -76 -4 -88 -4h-229zM193 114h106c21 0 56 0 80 5c102 20 146 128 146 241c0 117 -46 222 -146 241c-24 5 -60 5 -80 5h-106v-492z" />
    <glyph glyph-name="Eth" unicode="&#xd0;" horiz-adv-x="702" 
d="M389 716c171 -21 265 -173 265 -356s-94 -334 -265 -356c-34 -4 -76 -4 -88 -4h-229v313h-62v95h62v312h229c12 0 54 0 88 -4zM381 119c102 20 145 128 145 241c0 117 -46 222 -145 241c-25 5 -60 5 -80 5h-107v-198h154v-95h-154v-199h107c20 0 55 0 80 5z" />
    <glyph glyph-name="Dcaron" unicode="&#x10e;" horiz-adv-x="700" 
d="M312 786l-170 94l44 82l126 -69l127 69l44 -82zM70 0v720h229c12 0 55 0 88 -4c172 -21 265 -173 265 -356s-93 -334 -265 -356c-33 -4 -76 -4 -88 -4h-229zM193 114h106c21 0 56 0 80 5c102 20 146 128 146 241c0 117 -46 222 -146 241c-24 5 -60 5 -80 5h-106v-492z
" />
    <glyph glyph-name="Dcroat" unicode="&#x110;" horiz-adv-x="702" 
d="M389 716c171 -21 265 -173 265 -356s-94 -334 -265 -356c-34 -4 -76 -4 -88 -4h-229v313h-62v95h62v312h229c12 0 54 0 88 -4zM381 119c102 20 145 128 145 241c0 117 -46 222 -145 241c-25 5 -60 5 -80 5h-107v-198h154v-95h-154v-199h107c20 0 55 0 80 5z" />
    <glyph glyph-name="E" unicode="E" horiz-adv-x="585" 
d="M70 0v720h465v-113h-345v-178h285v-112h-285v-204h345v-113h-465z" />
    <glyph glyph-name="Eacute" unicode="&#xc9;" horiz-adv-x="585" 
d="M177 785l-31 88l268 96l30 -88zM70 0v720h465v-113h-345v-178h285v-112h-285v-204h345v-113h-465z" />
    <glyph glyph-name="Ecaron" unicode="&#x11a;" horiz-adv-x="585" 
d="M307 786l-170 94l43 82l127 -69l127 69l44 -82zM70 0v720h465v-113h-345v-178h285v-112h-285v-204h345v-113h-465z" />
    <glyph glyph-name="Ecircumflex" unicode="&#xca;" horiz-adv-x="585" 
d="M171 786l-44 83l171 93l170 -93l-44 -83l-126 69zM70 0v720h465v-113h-345v-178h285v-112h-285v-204h345v-113h-465z" />
    <glyph glyph-name="Edieresis" unicode="&#xcb;" horiz-adv-x="585" 
d="M141 840v110h110v-110h-110zM348 840v110h110v-110h-110zM70 0v720h465v-113h-345v-178h285v-112h-285v-204h345v-113h-465z" />
    <glyph glyph-name="Edotaccent" unicode="&#x116;" horiz-adv-x="585" 
d="M241 827v123h123v-123h-123zM70 0v720h465v-113h-345v-178h285v-112h-285v-204h345v-113h-465z" />
    <glyph glyph-name="Egrave" unicode="&#xc8;" horiz-adv-x="585" 
d="M426 785l-267 96l30 88l268 -96zM70 0v720h465v-113h-345v-178h285v-112h-285v-204h345v-113h-465z" />
    <glyph glyph-name="Emacron" unicode="&#x112;" horiz-adv-x="585" 
d="M173 840v94h267v-94h-267zM70 0v720h465v-113h-345v-178h285v-112h-285v-204h345v-113h-465z" />
    <glyph glyph-name="Eogonek" unicode="&#x118;" horiz-adv-x="585" 
d="M535 607h-345v-178h285v-112h-285v-204h345v-113c-61 -33 -111 -87 -111 -121c0 -17 13 -29 29 -29c12 0 25 6 37 17l44 -56c-24 -33 -60 -51 -97 -51c-62 0 -107 52 -107 110c0 44 26 91 65 130h-325v720h465v-113z" />
    <glyph glyph-name="F" unicode="F" horiz-adv-x="523" 
d="M70 0v720h433v-120h-313v-180h253v-120h-253v-300h-120z" />
    <glyph glyph-name="G" unicode="G" horiz-adv-x="732" 
d="M367 -15c-187 0 -337 135 -337 375c0 236 145 375 337 375c177 0 279 -87 316 -235l-123 -19c-27 85 -90 139 -185 140c-145 2 -217 -103 -217 -261c-1 -157 72 -260 217 -261c108 -2 179 60 197 184h-127v95h255c1 -11 2 -39 2 -43c0 -203 -126 -350 -335 -350z" />
    <glyph glyph-name="Gbreve" unicode="&#x11e;" horiz-adv-x="732" 
d="M384 780c-84 0 -152 68 -152 152h94c0 -32 26 -58 58 -58s57 26 57 58h94c0 -84 -67 -152 -151 -152zM367 -15c-187 0 -337 135 -337 375c0 236 145 375 337 375c177 0 279 -87 316 -235l-123 -19c-27 85 -90 139 -185 140c-145 2 -217 -103 -217 -261
c-1 -157 72 -260 217 -261c108 -2 179 60 197 184h-127v95h255c1 -11 2 -39 2 -43c0 -203 -126 -350 -335 -350z" />
    <glyph glyph-name="uni0122" unicode="&#x122;" horiz-adv-x="732" 
d="M367 -15c-187 0 -337 135 -337 375c0 236 145 375 337 375c177 0 279 -87 316 -235l-123 -19c-27 85 -90 139 -185 140c-145 2 -217 -103 -217 -261c-1 -157 72 -260 217 -261c108 -2 179 60 197 184h-127v95h255c1 -11 2 -39 2 -43c0 -203 -126 -350 -335 -350z
M326 -287v53c15 0 65 6 64 52h-64v117h116v-117c0 -63 -49 -105 -116 -105z" />
    <glyph glyph-name="Gdotaccent" unicode="&#x120;" horiz-adv-x="732" 
d="M316 827v123h124v-123h-124zM367 -15c-187 0 -337 135 -337 375c0 236 145 375 337 375c177 0 279 -87 316 -235l-123 -19c-27 85 -90 139 -185 140c-145 2 -217 -103 -217 -261c-1 -157 72 -260 217 -261c108 -2 179 60 197 184h-127v95h255c1 -11 2 -39 2 -43
c0 -203 -126 -350 -335 -350z" />
    <glyph glyph-name="H" unicode="H" horiz-adv-x="722" 
d="M70 0v720h120v-303h341v303h121v-720h-121v304h-341v-304h-120z" />
    <glyph glyph-name="Hbar" unicode="&#x126;" horiz-adv-x="742" 
d="M732 608v-113h-70v-495h-121v304h-341v-304h-120v495h-70v113h70v112h120v-112h341v112h121v-112h70zM541 417v78h-341v-78h341z" />
    <glyph glyph-name="I" unicode="I" 
d="M80 0v720h120v-720h-120z" />
    <glyph glyph-name="Iacute" unicode="&#xcd;" 
d="M17 785l-32 88l269 96l30 -88zM80 0v720h120v-720h-120z" />
    <glyph glyph-name="Icircumflex" unicode="&#xce;" 
d="M13 786l-43 83l170 93l171 -93l-44 -83l-127 69zM80 0v720h120v-720h-120z" />
    <glyph glyph-name="Idieresis" unicode="&#xcf;" 
d="M-18 840v110h110v-110h-110zM189 840v110h110v-110h-110zM80 0v720h120v-720h-120z" />
    <glyph glyph-name="Idotaccent" unicode="&#x130;" 
d="M79 827v123h123v-123h-123zM80 0v720h120v-720h-120z" />
    <glyph glyph-name="Igrave" unicode="&#xcc;" 
d="M263 785l-268 96l31 88l268 -96zM80 0v720h120v-720h-120z" />
    <glyph glyph-name="Imacron" unicode="&#x12a;" 
d="M7 840v94h267v-94h-267zM80 0v720h120v-720h-120z" />
    <glyph glyph-name="Iogonek" unicode="&#x12e;" 
d="M200 0c-61 -33 -110 -87 -110 -121c0 -17 12 -29 29 -29c11 0 24 6 37 17l43 -56c-24 -33 -60 -51 -96 -51c-63 0 -107 52 -107 110c0 51 34 105 84 147v703h120v-720z" />
    <glyph glyph-name="J" unicode="J" horiz-adv-x="501" 
d="M214 -15c-110 0 -185 62 -214 159l119 29c7 -41 48 -75 90 -75c28 0 65 14 80 48c10 21 10 50 10 89v485h122v-485c0 -66 3 -104 -24 -151c-40 -69 -106 -99 -183 -99z" />
    <glyph glyph-name="K" unicode="K" horiz-adv-x="647" 
d="M70 0v720h120v-334l288 334h148l-310 -353l331 -367h-153l-304 336v-336h-120z" />
    <glyph glyph-name="uni0136" unicode="&#x136;" horiz-adv-x="647" 
d="M70 0v720h120v-334l288 334h148l-310 -353l331 -367h-153l-304 336v-336h-120zM288 -287v53c15 0 65 6 64 52h-64v117h117v-117c0 -63 -50 -105 -117 -105z" />
    <glyph glyph-name="L" unicode="L" horiz-adv-x="533" 
d="M80 0v720h120v-607h318v-113h-438z" />
    <glyph glyph-name="Lacute" unicode="&#x139;" horiz-adv-x="533" 
d="M115 785l-32 88l269 96l30 -88zM80 0v720h120v-607h318v-113h-438z" />
    <glyph glyph-name="Lcaron" unicode="&#x13d;" horiz-adv-x="533" 
d="M326 466l7 52c46 -4 63 30 57 75h-64v129h124v-134c0 -87 -42 -136 -124 -122zM80 0v720h120v-607h318v-113h-438z" />
    <glyph glyph-name="uni013B" unicode="&#x13b;" horiz-adv-x="533" 
d="M80 0v720h120v-607h318v-113h-438zM241 -287v53c15 0 65 6 64 52h-64v117h117v-117c0 -63 -50 -105 -117 -105z" />
    <glyph glyph-name="Lslash" unicode="&#x141;" horiz-adv-x="550" 
d="M217 113h318v-113h-438v210l-66 -38v130l66 38v380h120v-311l158 90v-130l-158 -90v-166z" />
    <glyph glyph-name="M" unicode="M" horiz-adv-x="855" 
d="M70 0v720h108l250 -510l249 510h108v-720h-113v462l-220 -462h-48l-221 462v-462h-113z" />
    <glyph glyph-name="N" unicode="N" horiz-adv-x="718" 
d="M70 0v720h122l334 -507v507h122v-720h-122l-334 508v-508h-122z" />
    <glyph glyph-name="Nacute" unicode="&#x143;" horiz-adv-x="718" 
d="M265 785l-31 88l268 96l31 -88zM70 0v720h122l334 -507v507h122v-720h-122l-334 508v-508h-122z" />
    <glyph glyph-name="Ncaron" unicode="&#x147;" horiz-adv-x="718" 
d="M370 786l-170 94l43 82l127 -69l127 69l44 -82zM70 0v720h122l334 -507v507h122v-720h-122l-334 508v-508h-122z" />
    <glyph glyph-name="uni0145" unicode="&#x145;" horiz-adv-x="718" 
d="M70 0v720h122l334 -507v507h122v-720h-122l-334 508v-508h-122zM311 -287v53c15 0 65 6 64 52h-64v117h117v-117c0 -63 -50 -105 -117 -105z" />
    <glyph glyph-name="Eng" unicode="&#x14a;" horiz-adv-x="718" 
d="M526 720h122v-809c0 -94 -45 -140 -138 -140c-24 0 -50 3 -73 9v90c22 -2 30 -3 40 -3c47 0 71 18 71 58c0 30 -12 58 -53 123l-303 460v-508h-122v720h122l334 -507v507z" />
    <glyph glyph-name="Ntilde" unicode="&#xd1;" horiz-adv-x="718" 
d="M448 800c-71 0 -111 82 -151 82c-21 0 -31 -23 -21 -69h-72c-15 85 26 144 87 144c71 0 115 -82 152 -82c22 0 30 29 21 69h72c15 -80 -24 -144 -88 -144zM70 0v720h122l334 -507v507h122v-720h-122l-334 508v-508h-122z" />
    <glyph glyph-name="O" unicode="O" horiz-adv-x="749" 
d="M375 -15c-216 0 -345 152 -345 375s129 375 345 375s344 -152 344 -375s-128 -375 -344 -375zM375 99c145 -2 217 104 217 261c0 158 -72 260 -217 261c-145 2 -217 -103 -217 -261c-1 -157 72 -260 217 -261z" />
    <glyph glyph-name="Oacute" unicode="&#xd3;" horiz-adv-x="749" 
d="M277 785l-31 88l268 96l31 -88zM375 -15c-216 0 -345 152 -345 375s129 375 345 375s344 -152 344 -375s-128 -375 -344 -375zM375 99c145 -2 217 104 217 261c0 158 -72 260 -217 261c-145 2 -217 -103 -217 -261c-1 -157 72 -260 217 -261z" />
    <glyph glyph-name="Ocircumflex" unicode="&#xd4;" horiz-adv-x="749" 
d="M248 786l-44 83l171 93l170 -93l-44 -83l-126 69zM375 -15c-216 0 -345 152 -345 375s129 375 345 375s344 -152 344 -375s-128 -375 -344 -375zM375 99c145 -2 217 104 217 261c0 158 -72 260 -217 261c-145 2 -217 -103 -217 -261c-1 -157 72 -260 217 -261z" />
    <glyph glyph-name="Odieresis" unicode="&#xd6;" horiz-adv-x="749" 
d="M216 840v110h110v-110h-110zM423 840v110h110v-110h-110zM375 -15c-216 0 -345 152 -345 375s129 375 345 375s344 -152 344 -375s-128 -375 -344 -375zM375 99c145 -2 217 104 217 261c0 158 -72 260 -217 261c-145 2 -217 -103 -217 -261c-1 -157 72 -260 217 -261z
" />
    <glyph glyph-name="Ograve" unicode="&#xd2;" horiz-adv-x="749" 
d="M523 785l-267 96l30 88l269 -96zM375 -15c-216 0 -345 152 -345 375s129 375 345 375s344 -152 344 -375s-128 -375 -344 -375zM375 99c145 -2 217 104 217 261c0 158 -72 260 -217 261c-145 2 -217 -103 -217 -261c-1 -157 72 -260 217 -261z" />
    <glyph glyph-name="Ohungarumlaut" unicode="&#x150;" horiz-adv-x="749" 
d="M280 791l-57 59l122 119l57 -58zM443 791l-57 59l122 119l57 -58zM375 -15c-216 0 -345 152 -345 375s129 375 345 375s344 -152 344 -375s-128 -375 -344 -375zM375 99c145 -2 217 104 217 261c0 158 -72 260 -217 261c-145 2 -217 -103 -217 -261
c-1 -157 72 -260 217 -261z" />
    <glyph glyph-name="Omacron" unicode="&#x14c;" horiz-adv-x="749" 
d="M241 840v94h267v-94h-267zM375 -15c-216 0 -345 152 -345 375s129 375 345 375s344 -152 344 -375s-128 -375 -344 -375zM375 99c145 -2 217 104 217 261c0 158 -72 260 -217 261c-145 2 -217 -103 -217 -261c-1 -157 72 -260 217 -261z" />
    <glyph glyph-name="Oslash" unicode="&#xd8;" horiz-adv-x="749" 
d="M724 656l-63 -70c38 -61 58 -138 58 -226c0 -223 -128 -375 -344 -375c-79 0 -147 20 -201 57l-49 -55l-85 76l54 61c-42 62 -64 143 -64 236c0 223 129 375 345 375c84 0 154 -23 209 -64l55 61zM158 360c0 -54 8 -101 25 -141l323 361c-33 26 -77 41 -131 41
c-145 2 -217 -103 -217 -261zM375 99c145 -2 217 104 217 261c0 49 -7 93 -21 130l-318 -357c32 -22 73 -34 122 -34z" />
    <glyph glyph-name="Otilde" unicode="&#xd5;" horiz-adv-x="749" 
d="M463 825c-71 0 -112 82 -151 82c-21 0 -31 -23 -21 -69h-72c-15 85 26 144 87 144c71 0 115 -82 152 -82c21 0 30 29 21 69h72c15 -80 -24 -144 -88 -144zM375 -15c-216 0 -345 152 -345 375s129 375 345 375s344 -152 344 -375s-128 -375 -344 -375zM375 99
c145 -2 217 104 217 261c0 158 -72 260 -217 261c-145 2 -217 -103 -217 -261c-1 -157 72 -260 217 -261z" />
    <glyph glyph-name="OE" unicode="&#x152;" horiz-adv-x="1113" 
d="M1063 607h-344v-178h284v-112h-284v-204h344v-113h-465v60c-57 -48 -132 -75 -223 -75c-216 0 -345 152 -345 375s129 375 345 375c91 0 166 -27 223 -75v60h465v-113zM375 99c145 -2 217 104 217 261c0 158 -72 260 -217 261c-145 2 -217 -103 -217 -261
c-1 -157 72 -260 217 -261z" />
    <glyph glyph-name="P" unicode="P" horiz-adv-x="639" 
d="M70 0v720h298c14 0 38 -1 57 -4c125 -19 184 -111 184 -230s-60 -211 -184 -231c-19 -3 -44 -4 -57 -4h-178v-251h-120zM190 364h173c13 0 31 1 45 5c60 15 79 71 79 117s-19 101 -79 116c-14 4 -32 5 -45 5h-173v-243z" />
    <glyph glyph-name="Thorn" unicode="&#xde;" horiz-adv-x="630" 
d="M70 0v720h122v-126h171c26 0 51 -4 74 -11c44 -14 84 -42 112 -79c32 -40 50 -93 51 -144s-18 -102 -49 -142c-42 -55 -112 -91 -188 -91h-171v-127h-122zM192 239h171c30 0 67 18 90 47c16 21 26 47 25 74c-1 30 -11 59 -31 80c-21 23 -54 41 -84 41h-171v-242z" />
    <glyph glyph-name="Q" unicode="Q" horiz-adv-x="749" 
d="M719 360c0 -96 -24 -179 -68 -242l57 -57l-74 -76l-58 58c-54 -37 -121 -58 -201 -58c-216 0 -345 152 -345 375s129 375 345 375s344 -152 344 -375zM375 99c46 -1 84 10 116 29l-63 62l76 75l57 -57c21 41 31 93 31 152c0 158 -72 260 -217 261
c-145 2 -217 -103 -217 -261c-1 -157 72 -260 217 -261z" />
    <glyph glyph-name="R" unicode="R" horiz-adv-x="660" 
d="M620 0h-136l-122 251h-172v-251h-120v720h298c14 0 38 -1 57 -4c125 -19 184 -111 184 -230c0 -97 -40 -177 -122 -213zM190 607v-243h173c13 0 31 1 45 5c60 15 79 71 79 117s-19 101 -79 116c-14 4 -32 5 -45 5h-173z" />
    <glyph glyph-name="Racute" unicode="&#x154;" horiz-adv-x="660" 
d="M473 881l-267 -96l-31 88l268 96zM620 0h-136l-122 251h-172v-251h-120v720h298c14 0 38 -1 57 -4c125 -19 184 -111 184 -230c0 -97 -40 -177 -122 -213zM190 607v-243h173c13 0 31 1 45 5c60 15 79 71 79 117s-19 101 -79 116c-14 4 -32 5 -45 5h-173z" />
    <glyph glyph-name="Rcaron" unicode="&#x158;" horiz-adv-x="660" 
d="M477 880l-170 -94l-171 94l44 82l127 -69l126 69zM620 0h-136l-122 251h-172v-251h-120v720h298c14 0 38 -1 57 -4c125 -19 184 -111 184 -230c0 -97 -40 -177 -122 -213zM190 607v-243h173c13 0 31 1 45 5c60 15 79 71 79 117s-19 101 -79 116c-14 4 -32 5 -45 5h-173z
" />
    <glyph glyph-name="uni0156" unicode="&#x156;" horiz-adv-x="660" 
d="M487 273l133 -273h-136l-122 251h-172v-251h-120v720h298c14 0 38 -1 57 -4c125 -19 184 -111 184 -230c0 -97 -40 -177 -122 -213zM190 607v-243h173c13 0 31 1 45 5c60 15 79 71 79 117s-19 101 -79 116c-14 4 -32 5 -45 5h-173zM270 -182v117h117v-117
c0 -63 -50 -105 -117 -105v53c15 0 65 6 64 52h-64z" />
    <glyph glyph-name="S" unicode="S" horiz-adv-x="657" 
d="M337 -15c-158 0 -276 87 -299 228l126 19c21 -86 93 -134 180 -134c77 0 149 37 149 103c0 41 -26 67 -80 84l-186 54c-64 19 -161 58 -161 185c0 139 117 211 264 210s251 -77 284 -211l-130 -22c-16 76 -82 119 -156 120c-72 2 -135 -35 -135 -91c0 -54 56 -74 104 -87
l129 -35c70 -20 193 -55 193 -198c0 -150 -135 -225 -282 -225z" />
    <glyph glyph-name="Sacute" unicode="&#x15a;" horiz-adv-x="657" 
d="M200 785l-31 88l268 96l31 -88zM337 -15c-158 0 -276 87 -299 228l126 19c21 -86 93 -134 180 -134c77 0 149 37 149 103c0 41 -26 67 -80 84l-186 54c-64 19 -161 58 -161 185c0 139 117 211 264 210s251 -77 284 -211l-130 -22c-16 76 -82 119 -156 120
c-72 2 -135 -35 -135 -91c0 -54 56 -74 104 -87l129 -35c70 -20 193 -55 193 -198c0 -150 -135 -225 -282 -225z" />
    <glyph glyph-name="Scaron" unicode="&#x160;" horiz-adv-x="657" 
d="M342 786l-170 94l43 82l127 -69l127 69l44 -82zM337 -15c-158 0 -276 87 -299 228l126 19c21 -86 93 -134 180 -134c77 0 149 37 149 103c0 41 -26 67 -80 84l-186 54c-64 19 -161 58 -161 185c0 139 117 211 264 210s251 -77 284 -211l-130 -22c-16 76 -82 119 -156 120
c-72 2 -135 -35 -135 -91c0 -54 56 -74 104 -87l129 -35c70 -20 193 -55 193 -198c0 -150 -135 -225 -282 -225z" />
    <glyph glyph-name="Scedilla" unicode="&#x15e;" horiz-adv-x="657" 
d="M619 210c0 -131 -104 -205 -228 -222l-10 -30c38 -19 60 -50 60 -93c0 -63 -48 -107 -104 -107c-27 0 -50 8 -69 19l26 71c13 -5 24 -7 32 -7c20 0 31 14 31 27c0 26 -30 35 -65 45l26 72c-149 7 -258 93 -280 228l126 19c21 -86 93 -134 180 -134c77 0 149 37 149 103
c0 41 -26 67 -80 84l-186 54c-64 19 -161 58 -161 185c0 139 117 211 264 210s251 -77 284 -211l-130 -22c-16 76 -82 119 -156 120c-72 2 -135 -35 -135 -91c0 -54 56 -74 104 -87l129 -35c70 -20 193 -55 193 -198z" />
    <glyph glyph-name="uni0218" unicode="&#x218;" horiz-adv-x="657" 
d="M337 -15c-158 0 -276 87 -299 228l126 19c21 -86 93 -134 180 -134c77 0 149 37 149 103c0 41 -26 67 -80 84l-186 54c-64 19 -161 58 -161 185c0 139 117 211 264 210s251 -77 284 -211l-130 -22c-16 76 -82 119 -156 120c-72 2 -135 -35 -135 -91c0 -54 56 -74 104 -87
l129 -35c70 -20 193 -55 193 -198c0 -150 -135 -225 -282 -225zM293 -287v53c15 0 65 6 64 52h-64v117h116v-117c0 -63 -49 -105 -116 -105z" />
    <glyph glyph-name="uni1E9E" unicode="&#x1e9e;" horiz-adv-x="634" 
d="M345 -15c-43 0 -69 5 -93 15v118c20 -7 46 -15 77 -15c75 0 122 40 122 114c0 65 -57 118 -144 100l-36 94l128 142c-12 43 -47 69 -100 69c-37 0 -71 -19 -91 -56c-15 -27 -17 -58 -17 -98v-468h-122v469c0 45 4 88 16 125c31 91 104 141 214 141
c124 0 207 -76 226 -185l-116 -126c96 -18 165 -85 165 -211c0 -137 -81 -228 -229 -228z" />
    <glyph glyph-name="T" unicode="T" horiz-adv-x="607" 
d="M243 0v607h-233v113h587v-113h-233v-607h-121z" />
    <glyph glyph-name="Tbar" unicode="&#x166;" horiz-adv-x="607" 
d="M597 607h-233v-187h174v-120h-174v-300h-121v300h-175v120h175v187h-233v113h587v-113z" />
    <glyph glyph-name="Tcaron" unicode="&#x164;" horiz-adv-x="607" 
d="M303 786l-170 94l44 82l126 -69l127 69l44 -82zM243 0v607h-233v113h587v-113h-233v-607h-121z" />
    <glyph glyph-name="uni0162" unicode="&#x162;" horiz-adv-x="607" 
d="M364 0h-26l-15 -43c38 -19 61 -50 61 -93c0 -63 -49 -107 -105 -107c-27 0 -49 8 -69 18l26 72c14 -5 24 -7 33 -7c20 0 31 14 31 27c0 26 -31 35 -66 45l31 88h-22v607h-233v113h587v-113h-233v-607z" />
    <glyph glyph-name="uni021A" unicode="&#x21a;" horiz-adv-x="607" 
d="M243 0v607h-233v113h587v-113h-233v-607h-121zM245 -287v53c15 0 65 6 64 52h-64v117h117v-117c0 -63 -50 -105 -117 -105z" />
    <glyph glyph-name="U" unicode="U" horiz-adv-x="720" 
d="M360 -15c-172 0 -290 111 -290 283v451l122 1v-449c0 -109 80 -173 168 -173c89 0 168 66 168 173v449h122v-452c0 -172 -118 -283 -290 -283z" />
    <glyph glyph-name="Uacute" unicode="&#xda;" horiz-adv-x="720" 
d="M245 785l-31 88l268 96l30 -88zM360 -15c-172 0 -290 111 -290 283v451l122 1v-449c0 -109 80 -173 168 -173c89 0 168 66 168 173v449h122v-452c0 -172 -118 -283 -290 -283z" />
    <glyph glyph-name="Ucircumflex" unicode="&#xdb;" horiz-adv-x="720" 
d="M233 786l-43 83l170 93l171 -93l-44 -83l-127 69zM360 -15c-172 0 -290 111 -290 283v451l122 1v-449c0 -109 80 -173 168 -173c89 0 168 66 168 173v449h122v-452c0 -172 -118 -283 -290 -283z" />
    <glyph glyph-name="Udieresis" unicode="&#xdc;" horiz-adv-x="720" 
d="M202 840v110h110v-110h-110zM408 840v110h110v-110h-110zM360 -15c-172 0 -290 111 -290 283v451l122 1v-449c0 -109 80 -173 168 -173c89 0 168 66 168 173v449h122v-452c0 -172 -118 -283 -290 -283z" />
    <glyph glyph-name="Ugrave" unicode="&#xd9;" horiz-adv-x="720" 
d="M461 785l-268 96l30 88l269 -96zM360 -15c-172 0 -290 111 -290 283v451l122 1v-449c0 -109 80 -173 168 -173c89 0 168 66 168 173v449h122v-452c0 -172 -118 -283 -290 -283z" />
    <glyph glyph-name="Uhungarumlaut" unicode="&#x170;" horiz-adv-x="720" 
d="M281 791l-57 59l121 119l57 -58zM443 791l-57 59l122 119l57 -58zM360 -15c-172 0 -290 111 -290 283v451l122 1v-449c0 -109 80 -173 168 -173c89 0 168 66 168 173v449h122v-452c0 -172 -118 -283 -290 -283z" />
    <glyph glyph-name="Umacron" unicode="&#x16a;" horiz-adv-x="720" 
d="M227 840v94h266v-94h-266zM360 -15c-172 0 -290 111 -290 283v451l122 1v-449c0 -109 80 -173 168 -173c89 0 168 66 168 173v449h122v-452c0 -172 -118 -283 -290 -283z" />
    <glyph glyph-name="Uogonek" unicode="&#x172;" horiz-adv-x="720" 
d="M528 720h122v-452c0 -118 -55 -207 -146 -252c-48 -33 -85 -77 -85 -106c0 -16 12 -29 29 -29c11 0 24 6 37 18l43 -57c-24 -32 -60 -50 -96 -50c-63 0 -107 52 -107 109c0 28 10 57 27 84c-168 3 -282 114 -282 283v451l122 1v-449c0 -109 80 -173 168 -173
c89 0 168 66 168 173v449z" />
    <glyph glyph-name="Uring" unicode="&#x16e;" horiz-adv-x="720" 
d="M363 705c-79 0 -145 66 -145 146s66 146 145 146c80 0 146 -66 146 -146s-66 -146 -146 -146zM363 791c34 0 60 27 60 60s-26 60 -60 60c-33 0 -60 -27 -60 -60s27 -60 60 -60zM360 -15c-172 0 -290 111 -290 283v451l122 1v-449c0 -109 80 -173 168 -173
c89 0 168 66 168 173v449h122v-452c0 -172 -118 -283 -290 -283z" />
    <glyph glyph-name="V" unicode="V" horiz-adv-x="641" 
d="M232 0l-227 720h124l190 -603l193 603h124l-227 -720h-177z" />
    <glyph glyph-name="W" unicode="W" horiz-adv-x="976" 
d="M222 0l-210 720h126l143 -520l143 519l126 1l144 -520l144 520h126l-210 -720h-119l-148 512l-146 -512h-119z" />
    <glyph glyph-name="Wacute" unicode="&#x1e82;" horiz-adv-x="976" 
d="M369 785l-31 88l268 96l30 -88zM222 0l-210 720h126l143 -520l143 519l126 1l144 -520l144 520h126l-210 -720h-119l-148 512l-146 -512h-119z" />
    <glyph glyph-name="Wcircumflex" unicode="&#x174;" horiz-adv-x="976" 
d="M362 786l-44 83l170 93l171 -93l-44 -83l-127 69zM222 0l-210 720h126l143 -520l143 519l126 1l144 -520l144 520h126l-210 -720h-119l-148 512l-146 -512h-119z" />
    <glyph glyph-name="Wdieresis" unicode="&#x1e84;" horiz-adv-x="976" 
d="M330 840v110h110v-110h-110zM537 840v110h110v-110h-110zM222 0l-210 720h126l143 -520l143 519l126 1l144 -520l144 520h126l-210 -720h-119l-148 512l-146 -512h-119z" />
    <glyph glyph-name="Wgrave" unicode="&#x1e80;" horiz-adv-x="976" 
d="M621 785l-267 96l30 88l268 -96zM222 0l-210 720h126l143 -520l143 519l126 1l144 -520l144 520h126l-210 -720h-119l-148 512l-146 -512h-119z" />
    <glyph glyph-name="X" unicode="X" horiz-adv-x="656" 
d="M10 0l244 364l-237 356h147l165 -253l162 253h149l-237 -356l243 -364h-148l-169 262l-171 -262h-148z" />
    <glyph glyph-name="Y" unicode="Y" horiz-adv-x="612" 
d="M245 0v295l-245 425h141l165 -287l165 287h141l-245 -425v-295h-122z" />
    <glyph glyph-name="Yacute" unicode="&#xdd;" horiz-adv-x="612" 
d="M198 785l-31 88l268 96l31 -88zM245 0v295l-245 425h141l165 -287l165 287h141l-245 -425v-295h-122z" />
    <glyph glyph-name="Ycircumflex" unicode="&#x176;" horiz-adv-x="612" 
d="M179 786l-44 83l171 93l170 -93l-43 -83l-127 69zM245 0v295l-245 425h141l165 -287l165 287h141l-245 -425v-295h-122z" />
    <glyph glyph-name="Ydieresis" unicode="&#x178;" horiz-adv-x="612" 
d="M148 840v110h110v-110h-110zM354 840v110h110v-110h-110zM245 0v295l-245 425h141l165 -287l165 287h141l-245 -425v-295h-122z" />
    <glyph glyph-name="Ygrave" unicode="&#x1ef2;" horiz-adv-x="612" 
d="M443 785l-268 96l30 88l269 -96zM245 0v295l-245 425h141l165 -287l165 287h141l-245 -425v-295h-122z" />
    <glyph glyph-name="Z" unicode="Z" horiz-adv-x="664" 
d="M50 0v17l355 590h-330v113h539v-17l-353 -589h344v-114h-555z" />
    <glyph glyph-name="Zacute" unicode="&#x179;" horiz-adv-x="664" 
d="M232 785l-32 88l269 96l30 -88zM50 0v17l355 590h-330v113h539v-17l-353 -589h344v-114h-555z" />
    <glyph glyph-name="Zcaron" unicode="&#x17d;" horiz-adv-x="664" 
d="M340 786l-170 94l43 82l127 -69l127 69l44 -82zM50 0v17l355 590h-330v113h539v-17l-353 -589h344v-114h-555z" />
    <glyph glyph-name="Zdotaccent" unicode="&#x17b;" horiz-adv-x="664" 
d="M287 827v123h123v-123h-123zM50 0v17l355 590h-330v113h539v-17l-353 -589h344v-114h-555z" />
    <glyph glyph-name="a" unicode="a" horiz-adv-x="576" 
d="M496 455c19 -38 20 -77 20 -124v-331h-105v73c-46 -60 -104 -88 -190 -88c-117 0 -181 74 -181 163c0 78 38 132 123 162c57 18 140 30 235 43c-4 63 -37 92 -111 92c-48 0 -100 -21 -117 -76l-111 35c27 91 101 151 229 151c96 0 172 -29 208 -100zM384 171
c10 24 12 58 13 84c-86 -14 -135 -22 -173 -34c-42 -16 -66 -37 -66 -71c0 -40 30 -69 87 -69c82 0 128 52 139 90z" />
    <glyph glyph-name="aacute" unicode="&#xe1;" horiz-adv-x="576" 
d="M455 701l-267 -96l-31 88l268 96zM496 455c19 -38 20 -77 20 -124v-331h-105v73c-46 -60 -104 -88 -190 -88c-117 0 -181 74 -181 163c0 78 38 132 123 162c57 18 140 30 235 43c-4 63 -37 92 -111 92c-48 0 -100 -21 -117 -76l-111 35c27 91 101 151 229 151
c96 0 172 -29 208 -100zM384 171c10 24 12 58 13 84c-86 -14 -135 -22 -173 -34c-42 -16 -66 -37 -66 -71c0 -40 30 -69 87 -69c82 0 128 52 139 90z" />
    <glyph glyph-name="abreve" unicode="&#x103;" horiz-adv-x="576" 
d="M293 600c-83 0 -151 68 -151 152h94c0 -32 26 -58 57 -58c32 0 58 26 58 58h94c0 -84 -68 -152 -152 -152zM496 455c19 -38 20 -77 20 -124v-331h-105v73c-46 -60 -104 -88 -190 -88c-117 0 -181 74 -181 163c0 78 38 132 123 162c57 18 140 30 235 43
c-4 63 -37 92 -111 92c-48 0 -100 -21 -117 -76l-111 35c27 91 101 151 229 151c96 0 172 -29 208 -100zM384 171c10 24 12 58 13 84c-86 -14 -135 -22 -173 -34c-42 -16 -66 -37 -66 -71c0 -40 30 -69 87 -69c82 0 128 52 139 90z" />
    <glyph glyph-name="acircumflex" unicode="&#xe2;" horiz-adv-x="576" 
d="M297 675l-127 -69l-44 83l171 93l170 -93l-44 -83zM496 455c19 -38 20 -77 20 -124v-331h-105v73c-46 -60 -104 -88 -190 -88c-117 0 -181 74 -181 163c0 78 38 132 123 162c57 18 140 30 235 43c-4 63 -37 92 -111 92c-48 0 -100 -21 -117 -76l-111 35
c27 91 101 151 229 151c96 0 172 -29 208 -100zM384 171c10 24 12 58 13 84c-86 -14 -135 -22 -173 -34c-42 -16 -66 -37 -66 -71c0 -40 30 -69 87 -69c82 0 128 52 139 90z" />
    <glyph glyph-name="adieresis" unicode="&#xe4;" horiz-adv-x="576" 
d="M249 733v-110h-110v110h110zM456 733v-110h-110v110h110zM496 455c19 -38 20 -77 20 -124v-331h-105v73c-46 -60 -104 -88 -190 -88c-117 0 -181 74 -181 163c0 78 38 132 123 162c57 18 140 30 235 43c-4 63 -37 92 -111 92c-48 0 -100 -21 -117 -76l-111 35
c27 91 101 151 229 151c96 0 172 -29 208 -100zM384 171c10 24 12 58 13 84c-86 -14 -135 -22 -173 -34c-42 -16 -66 -37 -66 -71c0 -40 30 -69 87 -69c82 0 128 52 139 90z" />
    <glyph glyph-name="agrave" unicode="&#xe0;" horiz-adv-x="576" 
d="M480 693l-31 -88l-267 96l30 88zM496 455c19 -38 20 -77 20 -124v-331h-105v73c-46 -60 -104 -88 -190 -88c-117 0 -181 74 -181 163c0 78 38 132 123 162c57 18 140 30 235 43c-4 63 -37 92 -111 92c-48 0 -100 -21 -117 -76l-111 35c27 91 101 151 229 151
c96 0 172 -29 208 -100zM384 171c10 24 12 58 13 84c-86 -14 -135 -22 -173 -34c-42 -16 -66 -37 -66 -71c0 -40 30 -69 87 -69c82 0 128 52 139 90z" />
    <glyph glyph-name="amacron" unicode="&#x101;" horiz-adv-x="576" 
d="M442 754v-94h-267v94h267zM496 455c19 -38 20 -77 20 -124v-331h-105v73c-46 -60 -104 -88 -190 -88c-117 0 -181 74 -181 163c0 78 38 132 123 162c57 18 140 30 235 43c-4 63 -37 92 -111 92c-48 0 -100 -21 -117 -76l-111 35c27 91 101 151 229 151
c96 0 172 -29 208 -100zM384 171c10 24 12 58 13 84c-86 -14 -135 -22 -173 -34c-42 -16 -66 -37 -66 -71c0 -40 30 -69 87 -69c82 0 128 52 139 90z" />
    <glyph glyph-name="aogonek" unicode="&#x105;" horiz-adv-x="576" 
d="M516 0c-61 -33 -111 -87 -111 -121c0 -17 13 -29 29 -29c12 0 25 6 37 17l44 -56c-24 -33 -60 -51 -97 -51c-62 0 -107 52 -107 110c0 56 41 116 100 160v43c-46 -60 -104 -88 -190 -88c-117 0 -181 74 -181 163c0 78 38 132 123 162c57 18 140 30 235 43
c-4 63 -37 92 -111 92c-48 0 -100 -21 -117 -76l-111 35c27 91 101 151 229 151c96 0 172 -29 208 -100c19 -38 20 -77 20 -124v-331zM384 171c10 24 12 58 13 84c-86 -14 -135 -22 -173 -34c-42 -16 -66 -37 -66 -71c0 -40 30 -69 87 -69c82 0 128 52 139 90z" />
    <glyph glyph-name="aring" unicode="&#xe5;" horiz-adv-x="576" 
d="M496 455c19 -38 20 -77 20 -124v-331h-105v73c-46 -60 -104 -88 -190 -88c-117 0 -181 74 -181 163c0 78 38 132 123 162c57 18 140 30 235 43c-4 63 -37 92 -111 92c-48 0 -100 -21 -117 -76l-111 35c18 59 55 105 115 130c-16 24 -25 51 -25 81c0 80 66 146 145 146
c80 0 146 -66 146 -146c0 -31 -10 -59 -26 -83c36 -16 64 -41 82 -77zM294 675c-33 0 -60 -27 -60 -60s27 -60 60 -60c34 0 60 27 60 60s-26 60 -60 60zM384 171c10 24 12 58 13 84c-86 -14 -135 -22 -173 -34c-42 -16 -66 -37 -66 -71c0 -40 30 -69 87 -69
c82 0 128 52 139 90z" />
    <glyph glyph-name="atilde" unicode="&#xe3;" horiz-adv-x="576" 
d="M212 633h-72c-15 85 25 144 86 144c72 0 116 -82 152 -82c22 0 30 29 22 69h71c16 -80 -23 -144 -87 -144c-71 0 -112 82 -151 82c-22 0 -32 -23 -21 -69zM496 455c19 -38 20 -77 20 -124v-331h-105v73c-46 -60 -104 -88 -190 -88c-117 0 -181 74 -181 163
c0 78 38 132 123 162c57 18 140 30 235 43c-4 63 -37 92 -111 92c-48 0 -100 -21 -117 -76l-111 35c27 91 101 151 229 151c96 0 172 -29 208 -100zM384 171c10 24 12 58 13 84c-86 -14 -135 -22 -173 -34c-42 -16 -66 -37 -66 -71c0 -40 30 -69 87 -69c82 0 128 52 139 90z
" />
    <glyph glyph-name="ae" unicode="&#xe6;" horiz-adv-x="935" 
d="M525 236c9 -85 53 -138 131 -138c53 0 97 26 120 77l112 -36c-38 -97 -129 -154 -225 -154s-171 43 -216 112c-51 -81 -127 -112 -219 -112c-121 0 -188 67 -188 160c0 146 162 166 251 176l106 10c2 82 -46 114 -109 114c-53 0 -100 -23 -120 -75l-109 34
c34 84 115 151 232 151c86 0 147 -28 184 -76c44 48 107 76 182 76c165 0 249 -132 237 -319h-369zM656 450c-77 0 -115 -48 -128 -119h250c-9 76 -41 119 -122 119zM245 80c61 0 112 35 133 72c15 27 19 62 20 95l-83 -8c-54 -5 -157 -17 -157 -90c0 -41 33 -69 87 -69z
" />
    <glyph glyph-name="b" unicode="b" horiz-adv-x="616" 
d="M325 555c153 0 251 -121 251 -285c0 -162 -97 -285 -247 -285c-64 0 -115 20 -153 54v-39h-107v720h121v-207c36 27 81 42 135 42zM311 93c94 0 138 78 138 177c0 98 -45 177 -142 177c-92 0 -131 -72 -131 -177s38 -177 135 -177z" />
    <glyph glyph-name="c" unicode="c" horiz-adv-x="576" 
d="M305 -15c-167 0 -264 122 -265 285c1 166 102 285 266 285c123 0 213 -66 239 -172l-120 -33c-18 58 -65 92 -120 92c-95 0 -137 -73 -137 -172c0 -103 46 -172 137 -172c64 0 98 30 117 85l123 -27c-33 -110 -120 -171 -240 -171z" />
    <glyph glyph-name="cacute" unicode="&#x107;" horiz-adv-x="576" 
d="M159 605l-32 88l269 96l30 -88zM305 -15c-167 0 -264 122 -265 285c1 166 102 285 266 285c123 0 213 -66 239 -172l-120 -33c-18 58 -65 92 -120 92c-95 0 -137 -73 -137 -172c0 -103 46 -172 137 -172c64 0 98 30 117 85l123 -27c-33 -110 -120 -171 -240 -171z" />
    <glyph glyph-name="ccaron" unicode="&#x10d;" horiz-adv-x="576" 
d="M306 606l-170 94l43 82l127 -69l127 69l44 -82zM305 -15c-167 0 -264 122 -265 285c1 166 102 285 266 285c123 0 213 -66 239 -172l-120 -33c-18 58 -65 92 -120 92c-95 0 -137 -73 -137 -172c0 -103 46 -172 137 -172c64 0 98 30 117 85l123 -27
c-33 -110 -120 -171 -240 -171z" />
    <glyph glyph-name="ccedilla" unicode="&#xe7;" horiz-adv-x="576" 
d="M305 98c64 0 98 30 117 85l123 -27c-30 -99 -103 -158 -204 -169l-10 -29c38 -19 61 -50 61 -93c0 -63 -48 -107 -105 -107c-27 0 -49 8 -69 19l27 71c13 -5 23 -7 32 -7c20 0 31 14 31 27c0 26 -31 35 -65 45l25 74c-144 17 -227 132 -228 283c1 166 102 285 266 285
c123 0 213 -66 239 -172l-120 -33c-18 58 -65 92 -120 92c-95 0 -137 -73 -137 -172c0 -103 46 -172 137 -172z" />
    <glyph glyph-name="cdotaccent" unicode="&#x10b;" horiz-adv-x="576" 
d="M259 647v123h123v-123h-123zM305 -15c-167 0 -264 122 -265 285c1 166 102 285 266 285c123 0 213 -66 239 -172l-120 -33c-18 58 -65 92 -120 92c-95 0 -137 -73 -137 -172c0 -103 46 -172 137 -172c64 0 98 30 117 85l123 -27c-33 -110 -120 -171 -240 -171z" />
    <glyph glyph-name="d" unicode="d" horiz-adv-x="617" 
d="M426 720h121v-720h-107v39c-39 -34 -90 -54 -153 -54c-150 0 -247 123 -247 285c0 164 98 285 251 285c54 0 99 -15 135 -42v207zM305 93c97 0 135 72 135 177s-39 177 -131 177c-97 0 -141 -79 -141 -177c0 -99 43 -177 137 -177z" />
    <glyph glyph-name="eth" unicode="&#xf0;" horiz-adv-x="596" 
d="M465 639c66 -86 91 -195 91 -384c0 -165 -99 -270 -257 -270c-155 0 -259 108 -259 266c0 159 105 268 259 267c49 0 92 -12 143 -45c-7 47 -34 90 -74 124l-51 -60l-67 60l40 46c-26 11 -55 18 -84 20l18 93c51 -2 97 -12 137 -31l50 58l67 -59l-43 -50
c11 -11 21 -22 30 -35zM299 92c87 0 137 60 137 160s-51 160 -137 159c-90 1 -138 -58 -138 -159c0 -102 49 -160 138 -160z" />
    <glyph glyph-name="dcaron" unicode="&#x10f;" horiz-adv-x="786" 
d="M628 722h124v-134c0 -87 -42 -136 -124 -122l7 52c46 -4 63 30 57 75h-64v129zM426 513v207h121v-720h-107v39c-39 -34 -90 -54 -153 -54c-150 0 -247 123 -247 285c0 164 98 285 251 285c54 0 99 -15 135 -42zM305 93c97 0 135 72 135 177s-39 177 -131 177
c-97 0 -141 -79 -141 -177c0 -99 43 -177 137 -177z" />
    <glyph glyph-name="dcroat" unicode="&#x111;" horiz-adv-x="617" 
d="M611 677v-94h-64v-583h-107v39c-39 -34 -90 -54 -153 -54c-150 0 -247 123 -247 285c0 164 98 285 251 285c54 0 99 -15 135 -42v70h-82v94h82v43h121v-43h64zM305 93c97 0 135 72 135 177s-39 177 -131 177c-97 0 -141 -79 -141 -177c0 -99 43 -177 137 -177z" />
    <glyph glyph-name="e" unicode="e" horiz-adv-x="602" 
d="M170 236c9 -89 57 -138 139 -138c59 0 103 27 126 77l119 -36c-41 -98 -134 -154 -239 -154c-163 0 -275 115 -275 279c0 177 110 291 269 291c167 0 265 -124 251 -319h-390zM314 450c-81 0 -127 -42 -141 -122h265c-11 84 -50 122 -124 122z" />
    <glyph glyph-name="eacute" unicode="&#xe9;" horiz-adv-x="602" 
d="M456 701l-268 -96l-31 88l268 96zM170 236c9 -89 57 -138 139 -138c59 0 103 27 126 77l119 -36c-41 -98 -134 -154 -239 -154c-163 0 -275 115 -275 279c0 177 110 291 269 291c167 0 265 -124 251 -319h-390zM314 450c-81 0 -127 -42 -141 -122h265
c-11 84 -50 122 -124 122z" />
    <glyph glyph-name="ecaron" unicode="&#x11b;" horiz-adv-x="602" 
d="M479 700l-170 -94l-171 94l44 82l127 -69l126 69zM170 236c9 -89 57 -138 139 -138c59 0 103 27 126 77l119 -36c-41 -98 -134 -154 -239 -154c-163 0 -275 115 -275 279c0 177 110 291 269 291c167 0 265 -124 251 -319h-390zM314 450c-81 0 -127 -42 -141 -122h265
c-11 84 -50 122 -124 122z" />
    <glyph glyph-name="ecircumflex" unicode="&#xea;" horiz-adv-x="602" 
d="M309 675l-127 -69l-44 83l171 93l170 -93l-44 -83zM170 236c9 -89 57 -138 139 -138c59 0 103 27 126 77l119 -36c-41 -98 -134 -154 -239 -154c-163 0 -275 115 -275 279c0 177 110 291 269 291c167 0 265 -124 251 -319h-390zM314 450c-81 0 -127 -42 -141 -122h265
c-11 84 -50 122 -124 122z" />
    <glyph glyph-name="edieresis" unicode="&#xeb;" horiz-adv-x="602" 
d="M260 733v-110h-110v110h110zM467 733v-110h-110v110h110zM170 236c9 -89 57 -138 139 -138c59 0 103 27 126 77l119 -36c-41 -98 -134 -154 -239 -154c-163 0 -275 115 -275 279c0 177 110 291 269 291c167 0 265 -124 251 -319h-390zM314 450c-81 0 -127 -42 -141 -122
h265c-11 84 -50 122 -124 122z" />
    <glyph glyph-name="edotaccent" unicode="&#x117;" horiz-adv-x="602" 
d="M371 770v-123h-123v123h123zM170 236c9 -89 57 -138 139 -138c59 0 103 27 126 77l119 -36c-41 -98 -134 -154 -239 -154c-163 0 -275 115 -275 279c0 177 110 291 269 291c167 0 265 -124 251 -319h-390zM314 450c-81 0 -127 -42 -141 -122h265c-11 84 -50 122 -124 122
z" />
    <glyph glyph-name="egrave" unicode="&#xe8;" horiz-adv-x="602" 
d="M490 693l-31 -88l-268 96l31 88zM170 236c9 -89 57 -138 139 -138c59 0 103 27 126 77l119 -36c-41 -98 -134 -154 -239 -154c-163 0 -275 115 -275 279c0 177 110 291 269 291c167 0 265 -124 251 -319h-390zM314 450c-81 0 -127 -42 -141 -122h265
c-11 84 -50 122 -124 122z" />
    <glyph glyph-name="emacron" unicode="&#x113;" horiz-adv-x="602" 
d="M452 754v-94h-267v94h267zM170 236c9 -89 57 -138 139 -138c59 0 103 27 126 77l119 -36c-41 -98 -134 -154 -239 -154c-163 0 -275 115 -275 279c0 177 110 291 269 291c167 0 265 -124 251 -319h-390zM314 450c-81 0 -127 -42 -141 -122h265c-11 84 -50 122 -124 122z
" />
    <glyph glyph-name="eogonek" unicode="&#x119;" horiz-adv-x="602" 
d="M170 236c9 -89 57 -138 139 -138c59 0 103 27 126 77l119 -36c-7 -17 -16 -33 -26 -47c-28 -46 -57 -89 -73 -116c-17 -31 -30 -59 -36 -79c-3 -8 -6 -26 4 -37c15 -16 42 -7 60 7l43 -56c-10 -17 -26 -32 -47 -41c-46 -20 -100 -6 -130 32c-25 31 -34 81 -15 126
c8 21 21 43 34 62c-17 -3 -35 -5 -53 -5c-163 0 -275 115 -275 279c0 177 110 291 269 291c167 0 265 -124 251 -319h-390zM314 450c-81 0 -127 -42 -141 -122h265c-11 84 -50 122 -124 122z" />
    <glyph glyph-name="uni0259" unicode="&#x259;" horiz-adv-x="602" 
d="M287 555c164 0 275 -115 275 -279c0 -177 -109 -291 -269 -291c-167 0 -265 124 -251 319h391c-9 89 -57 138 -140 138c-58 0 -102 -27 -126 -77l-119 36c41 98 135 154 239 154zM288 90c81 0 128 43 142 123h-265c10 -85 49 -123 123 -123z" />
    <glyph glyph-name="f" unicode="f" horiz-adv-x="378" 
d="M306 637c-47 0 -68 -25 -68 -62v-35h130v-94h-130v-446h-121v446h-87v94h87v9c0 41 -1 98 36 139c45 51 108 47 148 47h67v-98h-62z" />
    <glyph glyph-name="g" unicode="g" horiz-adv-x="616" 
d="M440 540h106v-566c0 -28 -2 -52 -7 -76c-25 -105 -120 -153 -242 -153c-90 0 -172 44 -215 117l112 55c20 -39 61 -57 104 -57c75 0 129 39 128 116v52c-37 -28 -83 -43 -139 -43c-150 0 -247 123 -247 285c0 164 98 285 251 285c61 0 111 -19 149 -53v38zM305 93
c97 0 135 72 135 177s-39 177 -131 177c-97 0 -141 -79 -141 -177c0 -99 43 -177 137 -177z" />
    <glyph glyph-name="gbreve" unicode="&#x11f;" horiz-adv-x="616" 
d="M338 600c-84 0 -152 68 -152 152h94c0 -32 26 -58 58 -58s57 26 57 58h94c0 -84 -67 -152 -151 -152zM440 540h106v-566c0 -28 -2 -52 -7 -76c-25 -105 -120 -153 -242 -153c-90 0 -172 44 -215 117l112 55c20 -39 61 -57 104 -57c75 0 129 39 128 116v52
c-37 -28 -83 -43 -139 -43c-150 0 -247 123 -247 285c0 164 98 285 251 285c61 0 111 -19 149 -53v38zM305 93c97 0 135 72 135 177s-39 177 -131 177c-97 0 -141 -79 -141 -177c0 -99 43 -177 137 -177z" />
    <glyph glyph-name="uni0123" unicode="&#x123;" horiz-adv-x="616" 
d="M376 717v-117h-116v117c0 63 49 105 116 105v-53c-15 0 -64 -6 -64 -52h64zM440 540h106v-566c0 -28 -2 -52 -7 -76c-25 -105 -120 -153 -242 -153c-90 0 -172 44 -215 117l112 55c20 -39 61 -57 104 -57c75 0 129 39 128 116v52c-37 -28 -83 -43 -139 -43
c-150 0 -247 123 -247 285c0 164 98 285 251 285c61 0 111 -19 149 -53v38zM305 93c97 0 135 72 135 177s-39 177 -131 177c-97 0 -141 -79 -141 -177c0 -99 43 -177 137 -177z" />
    <glyph glyph-name="gdotaccent" unicode="&#x121;" horiz-adv-x="616" 
d="M392 770v-123h-123v123h123zM440 540h106v-566c0 -28 -2 -52 -7 -76c-25 -105 -120 -153 -242 -153c-90 0 -172 44 -215 117l112 55c20 -39 61 -57 104 -57c75 0 129 39 128 116v52c-37 -28 -83 -43 -139 -43c-150 0 -247 123 -247 285c0 164 98 285 251 285
c61 0 111 -19 149 -53v38zM305 93c97 0 135 72 135 177s-39 177 -131 177c-97 0 -141 -79 -141 -177c0 -99 43 -177 137 -177z" />
    <glyph glyph-name="h" unicode="h" horiz-adv-x="626" 
d="M353 555c199 0 213 -189 213 -253v-302h-122v260c0 67 -11 182 -127 182c-61 0 -126 -33 -126 -164v-278h-122v720h108v-240c39 47 98 75 176 75z" />
    <glyph glyph-name="hbar" unicode="&#x127;" horiz-adv-x="626" 
d="M353 555c199 0 213 -189 213 -253v-302h-122v260c0 67 -11 182 -127 182c-61 0 -126 -33 -126 -164v-278h-122v583h-54v94h54v43h108v-43h105v-94h-105v-103c39 47 98 75 176 75z" />
    <glyph glyph-name="i" unicode="i" 
d="M80 624v110h120v-110h-120zM80 0v540h120v-540h-120z" />
    <glyph glyph-name="dotlessi" unicode="&#x131;" 
d="M80 0v540h120v-540h-120z" />
    <glyph glyph-name="iacute" unicode="&#xed;" 
d="M22 605l-32 88l269 96l30 -88zM80 0v540h120v-540h-120z" />
    <glyph glyph-name="icircumflex" unicode="&#xee;" 
d="M22 606l-44 83l171 93l170 -93l-44 -83l-126 69zM80 0v540h120v-540h-120z" />
    <glyph glyph-name="idieresis" unicode="&#xef;" 
d="M-18 623v110h110v-110h-110zM189 623v110h110v-110h-110zM80 0v540h120v-540h-120z" />
    <glyph glyph-name="i.loclTRK" 
d="M80 624v110h120v-110h-120zM80 0v540h120v-540h-120z" />
    <glyph glyph-name="igrave" unicode="&#xec;" 
d="M259 605l-268 96l31 88l268 -96zM80 0v540h120v-540h-120z" />
    <glyph glyph-name="imacron" unicode="&#x12b;" 
d="M7 660v94h267v-94h-267zM80 0v540h120v-540h-120z" />
    <glyph glyph-name="iogonek" unicode="&#x12f;" 
d="M80 734h120v-110h-120v110zM80 17v523h120v-540c-61 -33 -110 -87 -110 -121c0 -17 12 -29 29 -29c11 0 24 6 37 17l43 -56c-24 -33 -60 -51 -96 -51c-63 0 -107 52 -107 110c0 51 34 105 84 147z" />
    <glyph glyph-name="j" unicode="j" horiz-adv-x="288" 
d="M96 624v111h121v-111h-121zM-10 -240v113h26c58 0 80 27 80 81v586h121v-640c0 -87 -54 -140 -145 -140h-82z" />
    <glyph glyph-name="k" unicode="k" horiz-adv-x="538" 
d="M69 0l1 720h122v-440l198 260h150l-209 -270l227 -270h-159l-207 260v-260h-123z" />
    <glyph glyph-name="uni0137" unicode="&#x137;" horiz-adv-x="538" 
d="M69 0l1 720h122v-440l198 260h150l-209 -270l227 -270h-159l-207 260v-260h-123zM241 -287v53c15 0 65 6 64 52h-64v117h116v-117c0 -63 -49 -105 -116 -105z" />
    <glyph glyph-name="l" unicode="l" 
d="M80 0v735h120v-735h-120z" />
    <glyph glyph-name="lacute" unicode="&#x13a;" 
d="M12 785l-32 88l269 96l30 -88zM80 0v735h120v-735h-120z" />
    <glyph glyph-name="lcaron" unicode="&#x13e;" horiz-adv-x="438" 
d="M80 0v735h120v-735h-120zM281 466l7 52c46 -4 63 30 57 75h-64v129h124v-134c0 -87 -42 -136 -124 -122z" />
    <glyph glyph-name="uni013C" unicode="&#x13c;" 
d="M80 0v735h120v-735h-120zM82 -287v53c15 0 65 6 64 52h-64v117h117v-117c0 -63 -50 -105 -117 -105z" />
    <glyph glyph-name="lslash" unicode="&#x142;" horiz-adv-x="399" 
d="M371 531v-130l-111 -64v-337h-121v268l-112 -64v130l112 64v337h121v-268z" />
    <glyph glyph-name="m" unicode="m" horiz-adv-x="899" 
d="M654 553c119 0 185 -78 185 -195v-358h-120v328c0 74 -40 118 -102 118c-58 0 -102 -42 -102 -114v-332h-121l1 327c0 74 -40 119 -103 119c-61 0 -102 -46 -102 -114v-332h-121v540h107v-58c35 44 91 71 156 71c76 0 129 -33 158 -85c33 53 94 85 164 85z" />
    <glyph glyph-name="n" unicode="n" horiz-adv-x="626" 
d="M353 555c199 0 213 -189 213 -253v-302h-122v260c0 67 -11 182 -127 182c-61 0 -126 -33 -126 -164v-278h-122v540h108v-60c39 47 98 75 176 75z" />
    <glyph glyph-name="nacute" unicode="&#x144;" horiz-adv-x="626" 
d="M462 701l-268 -96l-31 88l268 96zM353 555c199 0 213 -189 213 -253v-302h-122v260c0 67 -11 182 -127 182c-61 0 -126 -33 -126 -164v-278h-122v540h108v-60c39 47 98 75 176 75z" />
    <glyph glyph-name="ncaron" unicode="&#x148;" horiz-adv-x="626" 
d="M484 700l-171 -94l-170 94l44 82l126 -69l127 69zM353 555c199 0 213 -189 213 -253v-302h-122v260c0 67 -11 182 -127 182c-61 0 -126 -33 -126 -164v-278h-122v540h108v-60c39 47 98 75 176 75z" />
    <glyph glyph-name="uni0146" unicode="&#x146;" horiz-adv-x="626" 
d="M353 555c199 0 213 -189 213 -253v-302h-122v260c0 67 -11 182 -127 182c-61 0 -126 -33 -126 -164v-278h-122v540h108v-60c39 47 98 75 176 75zM262 -182v117h117v-117c0 -63 -50 -105 -117 -105v53c15 0 65 6 64 52h-64z" />
    <glyph glyph-name="eng" unicode="&#x14b;" horiz-adv-x="626" 
d="M353 555c199 0 213 -189 213 -253v-391c0 -76 -37 -124 -97 -136c-45 -9 -81 -3 -115 5v86c37 -3 90 -10 90 70v324c0 67 -11 182 -127 182c-61 0 -126 -33 -126 -164v-278h-122v540h108v-60c39 47 98 75 176 75z" />
    <glyph glyph-name="ntilde" unicode="&#xf1;" horiz-adv-x="626" 
d="M392 620c-71 0 -112 82 -151 82c-22 0 -32 -23 -21 -69h-72c-15 85 25 144 86 144c72 0 116 -82 152 -82c22 0 30 29 22 69h71c16 -80 -23 -144 -87 -144zM353 555c199 0 213 -189 213 -253v-302h-122v260c0 67 -11 182 -127 182c-61 0 -126 -33 -126 -164v-278h-122v540
h108v-60c39 47 98 75 176 75z" />
    <glyph glyph-name="o" unicode="o" horiz-adv-x="618" 
d="M309 -15c-163 0 -269 118 -269 285c0 169 109 285 269 285c162 0 269 -118 269 -285c0 -168 -108 -285 -269 -285zM309 98c95 0 142 71 142 172c0 105 -48 172 -142 172c-97 0 -141 -70 -141 -172c0 -105 48 -172 141 -172z" />
    <glyph glyph-name="oacute" unicode="&#xf3;" horiz-adv-x="618" 
d="M179 605l-31 88l268 96l31 -88zM309 -15c-163 0 -269 118 -269 285c0 169 109 285 269 285c162 0 269 -118 269 -285c0 -168 -108 -285 -269 -285zM309 98c95 0 142 71 142 172c0 105 -48 172 -142 172c-97 0 -141 -70 -141 -172c0 -105 48 -172 141 -172z" />
    <glyph glyph-name="ocircumflex" unicode="&#xf4;" horiz-adv-x="618" 
d="M183 606l-44 83l171 93l170 -93l-44 -83l-126 69zM309 -15c-163 0 -269 118 -269 285c0 169 109 285 269 285c162 0 269 -118 269 -285c0 -168 -108 -285 -269 -285zM309 98c95 0 142 71 142 172c0 105 -48 172 -142 172c-97 0 -141 -70 -141 -172
c0 -105 48 -172 141 -172z" />
    <glyph glyph-name="odieresis" unicode="&#xf6;" horiz-adv-x="618" 
d="M151 623v110h110v-110h-110zM358 623v110h110v-110h-110zM309 -15c-163 0 -269 118 -269 285c0 169 109 285 269 285c162 0 269 -118 269 -285c0 -168 -108 -285 -269 -285zM309 98c95 0 142 71 142 172c0 105 -48 172 -142 172c-97 0 -141 -70 -141 -172
c0 -105 48 -172 141 -172z" />
    <glyph glyph-name="ograve" unicode="&#xf2;" horiz-adv-x="618" 
d="M439 605l-268 96l31 88l268 -96zM309 -15c-161 0 -269 117 -269 285c0 167 107 285 269 285c160 0 269 -116 269 -285c0 -167 -106 -285 -269 -285zM309 98c93 0 142 67 142 172c0 102 -45 172 -142 172c-94 0 -142 -67 -142 -172c0 -101 47 -172 142 -172z" />
    <glyph glyph-name="ohungarumlaut" unicode="&#x151;" horiz-adv-x="618" 
d="M230 611l-57 59l121 119l57 -58zM392 611l-57 59l122 119l57 -58zM309 -15c-163 0 -269 118 -269 285c0 169 109 285 269 285c162 0 269 -118 269 -285c0 -168 -108 -285 -269 -285zM309 98c95 0 142 71 142 172c0 105 -48 172 -142 172c-97 0 -141 -70 -141 -172
c0 -105 48 -172 141 -172z" />
    <glyph glyph-name="omacron" unicode="&#x14d;" horiz-adv-x="618" 
d="M176 660v94h267v-94h-267zM309 -15c-163 0 -269 118 -269 285c0 169 109 285 269 285c162 0 269 -118 269 -285c0 -168 -108 -285 -269 -285zM309 98c95 0 142 71 142 172c0 105 -48 172 -142 172c-97 0 -141 -70 -141 -172c0 -105 48 -172 141 -172z" />
    <glyph glyph-name="oslash" unicode="&#xf8;" horiz-adv-x="618" 
d="M592 472l-50 -49c23 -44 36 -95 36 -153c0 -168 -108 -285 -269 -285c-62 0 -116 17 -158 47l-45 -45l-80 81l50 49c-23 43 -36 95 -36 153c0 169 109 285 269 285c62 0 115 -17 158 -47l45 45zM309 442c-97 0 -141 -70 -141 -172c0 -26 3 -49 9 -70l216 217
c-21 16 -50 25 -84 25zM309 98c95 0 142 71 142 172c0 26 -3 49 -9 69l-216 -216c22 -16 49 -25 83 -25z" />
    <glyph glyph-name="otilde" unicode="&#xf5;" horiz-adv-x="618" 
d="M388 620c-71 0 -112 82 -151 82c-22 0 -32 -23 -21 -69h-72c-15 85 25 144 86 144c72 0 116 -82 152 -82c22 0 30 29 22 69h71c16 -80 -23 -144 -87 -144zM309 -15c-163 0 -269 118 -269 285c0 169 109 285 269 285c162 0 269 -118 269 -285c0 -168 -108 -285 -269 -285z
M309 98c95 0 142 71 142 172c0 105 -48 172 -142 172c-97 0 -141 -70 -141 -172c0 -105 48 -172 141 -172z" />
    <glyph glyph-name="oe" unicode="&#x153;" horiz-adv-x="1013" 
d="M580 236c9 -89 57 -138 140 -138c59 0 103 27 126 77l119 -36c-41 -98 -135 -154 -239 -154c-89 0 -163 34 -211 92c-48 -58 -119 -92 -206 -92c-163 0 -269 118 -269 285c0 169 109 285 269 285c87 0 159 -34 206 -92c47 59 119 92 205 92c167 0 265 -124 251 -319h-391
zM725 450c-81 0 -128 -42 -142 -122h265c-10 84 -50 122 -123 122zM309 98c95 0 142 71 142 172c0 105 -48 172 -142 172c-97 0 -141 -70 -141 -172c0 -105 48 -172 141 -172z" />
    <glyph glyph-name="p" unicode="p" horiz-adv-x="616" 
d="M325 555c153 0 251 -121 251 -285c0 -162 -97 -285 -247 -285c-56 0 -102 16 -139 43v-268h-121v780h107v-38c38 34 88 53 149 53zM311 93c94 0 138 78 138 177c0 98 -45 177 -142 177c-92 0 -131 -72 -131 -177s38 -177 135 -177z" />
    <glyph glyph-name="thorn" unicode="&#xfe;" horiz-adv-x="616" 
d="M325 555c153 0 251 -121 251 -285c0 -162 -97 -285 -247 -285c-56 0 -102 16 -139 43v-268h-121v780h1v180h121v-206c36 26 80 41 134 41zM311 93c94 0 138 78 138 177c0 98 -45 177 -142 177c-92 0 -131 -72 -131 -177s38 -177 135 -177z" />
    <glyph glyph-name="q" unicode="q" horiz-adv-x="617" 
d="M440 540h107v-780h-121v268c-37 -28 -83 -43 -139 -43c-150 0 -247 123 -247 285c0 164 98 285 251 285c61 0 111 -19 149 -53v38zM305 93c97 0 135 72 135 177s-39 177 -131 177c-97 0 -141 -79 -141 -177c0 -99 43 -177 137 -177z" />
    <glyph glyph-name="r" unicode="r" horiz-adv-x="399" 
d="M231 512c39 27 95 36 143 28v-112c-32 9 -78 6 -112 -13c-49 -27 -71 -78 -71 -141v-274h-121v540h107v-86c13 23 31 44 54 58z" />
    <glyph glyph-name="racute" unicode="&#x155;" horiz-adv-x="399" 
d="M369 701l-268 -96l-31 88l268 96zM231 512c39 27 95 36 143 28v-112c-32 9 -78 6 -112 -13c-49 -27 -71 -78 -71 -141v-274h-121v540h107v-86c13 23 31 44 54 58z" />
    <glyph glyph-name="rcaron" unicode="&#x159;" horiz-adv-x="399" 
d="M393 700l-170 -94l-171 94l44 82l127 -69l126 69zM231 512c39 27 95 36 143 28v-112c-32 9 -78 6 -112 -13c-49 -27 -71 -78 -71 -141v-274h-121v540h107v-86c13 23 31 44 54 58z" />
    <glyph glyph-name="uni0157" unicode="&#x157;" horiz-adv-x="399" 
d="M231 512c39 27 95 36 143 28v-112c-32 9 -78 6 -112 -13c-49 -27 -71 -78 -71 -141v-274h-121v540h107v-86c13 23 31 44 54 58zM73 -182v117h116v-117c0 -63 -49 -105 -116 -105v53c15 0 65 6 64 52h-64z" />
    <glyph glyph-name="s" unicode="s" horiz-adv-x="542" 
d="M279 -15c-134 0 -221 63 -239 172l123 19c12 -54 58 -86 124 -86c57 0 91 24 91 64c0 37 -15 46 -137 78c-136 36 -183 76 -183 157c0 101 83 166 212 166c126 0 214 -62 227 -159l-123 -22c-6 45 -43 73 -102 77c-56 2 -94 -20 -94 -56c0 -32 21 -43 147 -75
c130 -34 176 -76 176 -160c0 -109 -83 -175 -222 -175z" />
    <glyph glyph-name="sacute" unicode="&#x15b;" horiz-adv-x="542" 
d="M161 605l-31 88l268 96l30 -88zM279 -15c-134 0 -221 63 -239 172l123 19c12 -54 58 -86 124 -86c57 0 91 24 91 64c0 37 -15 46 -137 78c-136 36 -183 76 -183 157c0 101 83 166 212 166c126 0 214 -62 227 -159l-123 -22c-6 45 -43 73 -102 77c-56 2 -94 -20 -94 -56
c0 -32 21 -43 147 -75c130 -34 176 -76 176 -160c0 -109 -83 -175 -222 -175z" />
    <glyph glyph-name="scaron" unicode="&#x161;" horiz-adv-x="542" 
d="M279 606l-170 94l43 82l127 -69l127 69l44 -82zM279 -15c-134 0 -221 63 -239 172l123 19c12 -54 58 -86 124 -86c57 0 91 24 91 64c0 37 -15 46 -137 78c-136 36 -183 76 -183 157c0 101 83 166 212 166c126 0 214 -62 227 -159l-123 -22c-6 45 -43 73 -102 77
c-56 2 -94 -20 -94 -56c0 -32 21 -43 147 -75c130 -34 176 -76 176 -160c0 -109 -83 -175 -222 -175z" />
    <glyph glyph-name="scedilla" unicode="&#x15f;" horiz-adv-x="542" 
d="M501 160c0 -99 -68 -162 -184 -173l-10 -29c39 -19 61 -50 61 -93c0 -63 -48 -107 -104 -107c-27 0 -50 8 -70 19l27 71c13 -5 23 -7 32 -7c20 0 31 14 31 27c0 26 -30 35 -65 45l25 73c-114 11 -188 72 -204 171l123 19c12 -54 58 -86 124 -86c57 0 91 24 91 64
c0 37 -15 46 -137 78c-136 36 -183 76 -183 157c0 101 83 166 212 166c126 0 214 -62 227 -159l-123 -22c-6 45 -43 73 -102 77c-56 2 -94 -20 -94 -56c0 -32 21 -43 147 -75c130 -34 176 -76 176 -160z" />
    <glyph glyph-name="uni0219" unicode="&#x219;" horiz-adv-x="542" 
d="M279 -15c-134 0 -221 63 -239 172l123 19c12 -54 58 -86 124 -86c57 0 91 24 91 64c0 37 -15 46 -137 78c-136 36 -183 76 -183 157c0 101 83 166 212 166c126 0 214 -62 227 -159l-123 -22c-6 45 -43 73 -102 77c-56 2 -94 -20 -94 -56c0 -32 21 -43 147 -75
c130 -34 176 -76 176 -160c0 -109 -83 -175 -222 -175zM219 -287v53c15 0 65 6 65 52h-65v117h117v-117c0 -63 -49 -105 -117 -105z" />
    <glyph glyph-name="germandbls" unicode="&#xdf;" horiz-adv-x="634" 
d="M344 -15c-41 0 -68 5 -92 15v118c19 -8 44 -15 76 -15c76 0 125 37 125 111c0 79 -65 115 -160 115v105c63 5 101 38 101 96s-47 92 -102 92c-37 0 -70 -13 -88 -49c-9 -18 -13 -46 -13 -75v-498h-122v530c0 27 3 49 9 70c31 95 118 135 214 135c125 0 224 -85 224 -203
c0 -55 -20 -103 -61 -134c68 -25 119 -95 119 -186c0 -141 -81 -227 -230 -227z" />
    <glyph glyph-name="t" unicode="t" horiz-adv-x="433" 
d="M228 446v-219c0 -42 -2 -76 11 -97c24 -39 80 -39 148 -29v-101c-107 -21 -216 -11 -258 66c-25 47 -21 93 -21 155v225h-98v94h98v150h120v-150h159v-94h-159z" />
    <glyph glyph-name="tbar" unicode="&#x167;" horiz-adv-x="453" 
d="M228 232v-5c0 -42 -2 -76 11 -97c24 -39 80 -39 148 -29v-101c-107 -21 -216 -11 -258 66c-25 47 -21 93 -21 155v11h-98v94h98v120h-98v94h98v150h120v-150h159v-94h-159v-120h175v-94h-175z" />
    <glyph glyph-name="tcaron" unicode="&#x165;" horiz-adv-x="433" 
d="M340 859h123v-133c0 -88 -41 -136 -123 -123l7 52c46 -3 63 30 57 76h-64v128zM228 690v-150h159v-94h-159v-219c0 -42 -2 -76 11 -97c24 -39 80 -39 148 -29v-101c-107 -21 -216 -11 -258 66c-25 47 -21 93 -21 155v225h-98v94h98v150h120z" />
    <glyph glyph-name="uni0163" unicode="&#x163;" horiz-adv-x="433" 
d="M228 446v-219c0 -42 -2 -76 11 -97c24 -39 80 -39 148 -29v-101c-34 -7 -69 -10 -102 -9l-11 -33c39 -19 61 -50 61 -93c0 -63 -48 -107 -104 -107c-27 0 -50 8 -70 19l27 71c13 -5 23 -7 32 -7c20 0 31 14 31 27c0 26 -30 35 -65 45l30 88c-38 11 -69 32 -87 65
c-25 47 -21 93 -21 155v225h-98v94h98v150h120v-150h159v-94h-159z" />
    <glyph glyph-name="uni021B" unicode="&#x21b;" horiz-adv-x="433" 
d="M228 446v-219c0 -42 -2 -76 11 -97c24 -39 80 -39 148 -29v-101c-107 -21 -216 -11 -258 66c-25 47 -21 93 -21 155v225h-98v94h98v150h120v-150h159v-94h-159zM181 -182v117h117v-117c0 -63 -49 -105 -117 -105v53c15 0 65 6 65 52h-65z" />
    <glyph glyph-name="u" unicode="u" horiz-adv-x="626" 
d="M434 540h122v-540h-107v60c-39 -47 -99 -75 -177 -75c-198 0 -212 189 -212 254v301h122v-260c0 -67 11 -182 126 -182c61 0 126 34 126 165v277z" />
    <glyph glyph-name="uacute" unicode="&#xfa;" horiz-adv-x="626" 
d="M454 701l-267 -96l-31 88l268 96zM434 540h122v-540h-107v60c-39 -47 -99 -75 -177 -75c-198 0 -212 189 -212 254v301h122v-260c0 -67 11 -182 126 -182c61 0 126 34 126 165v277z" />
    <glyph glyph-name="ucircumflex" unicode="&#xfb;" horiz-adv-x="626" 
d="M308 675l-127 -69l-44 83l171 93l170 -93l-44 -83zM434 540h122v-540h-107v60c-39 -47 -99 -75 -177 -75c-198 0 -212 189 -212 254v301h122v-260c0 -67 11 -182 126 -182c61 0 126 34 126 165v277z" />
    <glyph glyph-name="udieresis" unicode="&#xfc;" horiz-adv-x="626" 
d="M259 733v-110h-110v110h110zM466 733v-110h-110v110h110zM434 540h122v-540h-107v60c-39 -47 -99 -75 -177 -75c-198 0 -212 189 -212 254v301h122v-260c0 -67 11 -182 126 -182c61 0 126 34 126 165v277z" />
    <glyph glyph-name="ugrave" unicode="&#xf9;" horiz-adv-x="626" 
d="M475 693l-31 -88l-268 96l31 88zM434 540h122v-540h-107v60c-39 -47 -99 -75 -177 -75c-198 0 -212 189 -212 254v301h122v-260c0 -67 11 -182 126 -182c61 0 126 34 126 165v277z" />
    <glyph glyph-name="uhungarumlaut" unicode="&#x171;" horiz-adv-x="626" 
d="M345 731l-122 -120l-57 59l122 119zM386 611l-57 59l121 119l57 -58zM434 540h122v-540h-107v60c-39 -47 -99 -75 -177 -75c-198 0 -212 189 -212 254v301h122v-260c0 -67 11 -182 126 -182c61 0 126 34 126 165v277z" />
    <glyph glyph-name="umacron" unicode="&#x16b;" horiz-adv-x="626" 
d="M441 754v-94h-267v94h267zM434 540h122v-540h-107v60c-39 -47 -99 -75 -177 -75c-198 0 -212 189 -212 254v301h122v-260c0 -67 11 -182 126 -182c61 0 126 34 126 165v277z" />
    <glyph glyph-name="uogonek" unicode="&#x173;" horiz-adv-x="626" 
d="M556 0c-61 -33 -111 -87 -111 -121c0 -17 12 -29 29 -29c11 0 24 6 37 17l43 -56c-24 -33 -60 -51 -96 -51c-63 0 -107 52 -107 110c0 55 40 115 98 158v32c-39 -47 -99 -75 -177 -75c-198 0 -212 189 -212 254v301h122v-260c0 -67 11 -182 126 -182c61 0 126 34 126 165
v277h122v-540z" />
    <glyph glyph-name="uring" unicode="&#x16f;" horiz-adv-x="626" 
d="M308 566c-80 0 -146 66 -146 146s66 146 146 146s146 -66 146 -146s-66 -146 -146 -146zM308 772c-33 0 -60 -27 -60 -60s27 -60 60 -60s60 27 60 60s-27 60 -60 60zM434 540h122v-540h-107v60c-39 -47 -99 -75 -177 -75c-198 0 -212 189 -212 254v301h122v-260
c0 -67 11 -182 126 -182c61 0 126 34 126 165v277z" />
    <glyph glyph-name="v" unicode="v" horiz-adv-x="553" 
d="M216 0l-196 540h121l136 -391l135 391h121l-196 -540h-121z" />
    <glyph glyph-name="w" unicode="w" horiz-adv-x="802" 
d="M185 0l-165 541l119 -1l106 -346l106 346h101l107 -346l105 346h118l-165 -540h-101l-115 372l-122 -372h-94z" />
    <glyph glyph-name="wacute" unicode="&#x1e83;" horiz-adv-x="802" 
d="M264 605l-31 88l268 96l31 -88zM185 0l-165 541l119 -1l106 -346l106 346h101l107 -346l105 346h118l-165 -540h-101l-115 372l-122 -372h-94z" />
    <glyph glyph-name="wcircumflex" unicode="&#x175;" horiz-adv-x="802" 
d="M274 606l-43 83l170 93l171 -93l-44 -83l-127 69zM185 0l-165 541l119 -1l106 -346l106 346h101l107 -346l105 346h118l-165 -540h-101l-115 372l-122 -372h-94z" />
    <glyph glyph-name="wdieresis" unicode="&#x1e85;" horiz-adv-x="802" 
d="M243 623v110h110v-110h-110zM450 623v110h110v-110h-110zM185 0l-165 541l119 -1l106 -346l106 346h101l107 -346l105 346h118l-165 -540h-101l-115 372l-122 -372h-94z" />
    <glyph glyph-name="wgrave" unicode="&#x1e81;" horiz-adv-x="802" 
d="M516 605l-268 96l30 88l269 -96zM185 0l-165 541l119 -1l106 -346l106 346h101l107 -346l105 346h118l-165 -540h-101l-115 372l-122 -372h-94z" />
    <glyph glyph-name="x" unicode="x" horiz-adv-x="554" 
d="M10 0l198 273l-194 267h142l122 -173l119 173h142l-193 -267l198 -273h-142l-124 179l-126 -179h-142z" />
    <glyph glyph-name="y" unicode="y" horiz-adv-x="559" 
d="M434 540h121l-301 -780h-113l89 243l-218 537h125l151 -386z" />
    <glyph glyph-name="yacute" unicode="&#xfd;" horiz-adv-x="559" 
d="M450 701l-267 -96l-31 88l268 96zM434 540h121l-301 -780h-113l89 243l-218 537h125l151 -386z" />
    <glyph glyph-name="ycircumflex" unicode="&#x177;" horiz-adv-x="559" 
d="M288 675l-127 -69l-44 83l171 93l170 -93l-44 -83zM434 540h121l-301 -780h-113l89 243l-218 537h125l151 -386z" />
    <glyph glyph-name="ydieresis" unicode="&#xff;" horiz-adv-x="559" 
d="M238 733v-110h-110v110h110zM445 733v-110h-110v110h110zM434 540h121l-301 -780h-113l89 243l-218 537h125l151 -386z" />
    <glyph glyph-name="ygrave" unicode="&#x1ef3;" horiz-adv-x="559" 
d="M440 693l-31 -88l-267 96l30 88zM434 540h121l-301 -780h-113l89 243l-218 537h125l151 -386z" />
    <glyph glyph-name="z" unicode="z" horiz-adv-x="534" 
d="M20 0v17l286 417h-257v106h445v-17l-285 -417h272v-106h-461z" />
    <glyph glyph-name="zacute" unicode="&#x17a;" horiz-adv-x="534" 
d="M173 605l-31 88l268 96l31 -88zM20 0v17l286 417h-257v106h445v-17l-285 -417h272v-106h-461z" />
    <glyph glyph-name="zcaron" unicode="&#x17e;" horiz-adv-x="534" 
d="M277 606l-171 94l44 82l127 -69l126 69l44 -82zM20 0v17l286 417h-257v106h445v-17l-285 -417h272v-106h-461z" />
    <glyph glyph-name="zdotaccent" unicode="&#x17c;" horiz-adv-x="534" 
d="M216 647v123h123v-123h-123zM20 0v17l286 417h-257v106h445v-17l-285 -417h272v-106h-461z" />
    <glyph glyph-name="ordfeminine" unicode="&#xaa;" horiz-adv-x="576" 
d="M496 455c19 -38 20 -77 20 -124v-331h-105v73c-46 -60 -104 -88 -190 -88c-117 0 -181 74 -181 163c0 78 38 132 123 162c57 18 140 30 235 43c-4 63 -37 92 -111 92c-48 0 -100 -21 -117 -76l-111 35c27 91 101 151 229 151c96 0 172 -29 208 -100zM384 171
c10 24 12 58 13 84c-86 -14 -135 -22 -173 -34c-42 -16 -66 -37 -66 -71c0 -40 30 -69 87 -69c82 0 128 52 139 90z" />
    <glyph glyph-name="ordmasculine" unicode="&#xba;" horiz-adv-x="618" 
d="M309 -15c-163 0 -269 118 -269 285c0 169 109 285 269 285c162 0 269 -118 269 -285c0 -168 -108 -285 -269 -285zM309 98c95 0 142 71 142 172c0 105 -48 172 -142 172c-97 0 -141 -70 -141 -172c0 -105 48 -172 141 -172z" />
    <glyph glyph-name="uni0410" unicode="&#x410;" horiz-adv-x="671" 
d="M527 0l-50 156h-284l-49 -156h-124l227 720h177l227 -720h-124zM229 269h212l-107 335z" />
    <glyph glyph-name="uni0411" unicode="&#x411;" horiz-adv-x="639" 
d="M70 0v720h482v-113h-362v-155h178c13 0 38 -1 57 -3c121 -14 184 -109 184 -223s-62 -209 -184 -223c-19 -2 -43 -3 -57 -3h-298zM190 113h173c13 0 31 1 45 4c60 13 79 63 79 109s-19 97 -79 109c-14 3 -32 4 -45 4h-173v-226z" />
    <glyph glyph-name="uni0412" unicode="&#x412;" horiz-adv-x="631" 
d="M495 379c70 -29 106 -92 106 -165c0 -128 -74 -214 -216 -214h-315v720h286c145 0 212 -101 212 -198c0 -66 -28 -116 -73 -143zM192 607v-174h162c52 0 91 29 91 87c0 50 -34 87 -91 87h-162zM370 114c63 0 109 40 109 104c0 58 -39 102 -106 102h-181v-206h178z" />
    <glyph glyph-name="uni0413" unicode="&#x413;" horiz-adv-x="545" 
d="M70 0v720h465v-113h-345v-607h-120z" />
    <glyph glyph-name="uni0403" unicode="&#x403;" horiz-adv-x="545" 
d="M151 785l-31 88l268 96l31 -88zM70 0v720h465v-113h-345v-607h-120z" />
    <glyph glyph-name="uni0490" unicode="&#x490;" horiz-adv-x="555" 
d="M70 0v720h355v113h120v-226h-355v-607h-120z" />
    <glyph glyph-name="uni0414" unicode="&#x414;" horiz-adv-x="752" 
d="M32 -120v233c93 0 119 101 130 226c11 123 17 233 27 382l469 -1v-607h54v-233h-120v120h-440v-120h-120zM219 113h319v494l-239 1c-7 -105 -10 -181 -20 -291c-11 -107 -18 -153 -60 -204z" />
    <glyph glyph-name="uni0415" unicode="&#x415;" horiz-adv-x="585" 
d="M70 0v720h465v-113h-345v-178h285v-112h-285v-204h345v-113h-465z" />
    <glyph glyph-name="uni0400" unicode="&#x400;" horiz-adv-x="585" 
d="M426 785l-267 96l30 88l268 -96zM70 0v720h465v-113h-345v-178h285v-112h-285v-204h345v-113h-465z" />
    <glyph glyph-name="uni0401" unicode="&#x401;" horiz-adv-x="585" 
d="M141 840v110h110v-110h-110zM348 840v110h110v-110h-110zM70 0v720h465v-113h-345v-178h285v-112h-285v-204h345v-113h-465z" />
    <glyph glyph-name="uni0416" unicode="&#x416;" horiz-adv-x="916" 
d="M10 0l271 367l-250 353h144l223 -326v326h120v-326l223 326h144l-250 -353l271 -367h-149l-239 328v-328h-120v328l-239 -328h-149z" />
    <glyph glyph-name="uni0417" unicode="&#x417;" horiz-adv-x="649" 
d="M325 -15c-152 0 -245 76 -287 154l103 70c24 -55 78 -110 189 -110c107 0 154 53 154 114c0 76 -72 95 -149 97l-81 2v114c12 0 52 0 70 1c76 3 131 35 131 98c0 60 -50 97 -125 97c-71 0 -127 -36 -154 -79l-85 86c49 59 135 106 242 106c126 0 249 -64 249 -206
c0 -66 -27 -125 -71 -160c63 -26 100 -77 100 -156c0 -141 -125 -228 -286 -228z" />
    <glyph glyph-name="uni0418" unicode="&#x418;" horiz-adv-x="718" 
d="M648 0h-122v508l-334 -508h-122v720h122v-507l334 507h122v-720z" />
    <glyph glyph-name="uni0419" unicode="&#x419;" horiz-adv-x="718" 
d="M359 780c-84 0 -152 68 -152 152h94c0 -32 26 -58 58 -58s57 26 57 58h94c0 -84 -68 -152 -151 -152zM70 0v720h122v-507l334 507h122v-720h-122v508l-334 -508h-122z" />
    <glyph glyph-name="uni040D" unicode="&#x40d;" horiz-adv-x="718" 
d="M485 785l-268 96l30 88l269 -96zM70 0v720h122v-507l334 507h122v-720h-122v508l-334 -508h-122z" />
    <glyph glyph-name="uni041A" unicode="&#x41a;" horiz-adv-x="647" 
d="M70 0v720h120v-334l288 334h148l-310 -353l331 -367h-153l-304 336v-336h-120z" />
    <glyph glyph-name="uni040C" unicode="&#x40c;" horiz-adv-x="647" 
d="M227 785l-31 88l268 96l31 -88zM70 0v720h120v-334l288 334h148l-310 -353l331 -367h-153l-304 336v-336h-120z" />
    <glyph glyph-name="uni041B" unicode="&#x41b;" horiz-adv-x="722" 
d="M20 0v101c64 -5 84 23 104 139c31 164 42 369 47 480h481v-720h-120v607h-250c-6 -91 -17 -260 -46 -413c-26 -139 -64 -226 -216 -194z" />
    <glyph glyph-name="uni041C" unicode="&#x41c;" horiz-adv-x="855" 
d="M70 0v720h108l250 -510l249 510h108v-720h-113v462l-220 -462h-48l-221 462v-462h-113z" />
    <glyph glyph-name="uni041D" unicode="&#x41d;" horiz-adv-x="722" 
d="M70 0v720h120v-303h341v303h121v-720h-121v304h-341v-304h-120z" />
    <glyph glyph-name="uni041E" unicode="&#x41e;" horiz-adv-x="749" 
d="M375 -15c-216 0 -345 152 -345 375s129 375 345 375s344 -152 344 -375s-128 -375 -344 -375zM375 99c145 -2 217 104 217 261c0 158 -72 260 -217 261c-145 2 -217 -103 -217 -261c-1 -157 72 -260 217 -261z" />
    <glyph glyph-name="uni041F" unicode="&#x41f;" horiz-adv-x="723" 
d="M70 0v720h583v-720h-120v607h-343v-607h-120z" />
    <glyph glyph-name="uni0420" unicode="&#x420;" horiz-adv-x="639" 
d="M70 0v720h298c14 0 38 -1 57 -4c125 -19 184 -111 184 -230s-60 -211 -184 -231c-19 -3 -44 -4 -57 -4h-178v-251h-120zM190 364h173c13 0 31 1 45 5c60 15 79 71 79 117s-19 101 -79 116c-14 4 -32 5 -45 5h-173v-243z" />
    <glyph glyph-name="uni0421" unicode="&#x421;" horiz-adv-x="738" 
d="M375 -15c-216 0 -345 152 -345 375s129 375 345 375c165 0 279 -89 323 -230l-121 -33c-28 93 -95 149 -202 149c-145 0 -218 -103 -218 -261c-1 -157 73 -261 218 -261c107 0 174 56 202 150l121 -34c-44 -141 -158 -230 -323 -230z" />
    <glyph glyph-name="uni0422" unicode="&#x422;" horiz-adv-x="607" 
d="M243 0v607h-233v113h587v-113h-233v-607h-121z" />
    <glyph glyph-name="uni0423" unicode="&#x423;" horiz-adv-x="637" 
d="M165 0l95 194l-248 526h136l175 -399l181 399h128l-338 -720h-129z" />
    <glyph glyph-name="uni040E" unicode="&#x40e;" horiz-adv-x="637" 
d="M329 780c-84 0 -151 68 -151 152h94c0 -32 25 -58 57 -58s58 26 58 58h94c0 -84 -68 -152 -152 -152zM165 0l95 194l-248 526h136l175 -399l181 399h128l-338 -720h-129z" />
    <glyph glyph-name="uni0424" unicode="&#x424;" horiz-adv-x="739" 
d="M309 0v103c-148 -25 -279 76 -279 278c0 201 131 307 279 282v57h120v-57c148 25 280 -81 280 -282c0 -202 -132 -303 -280 -278v-103h-120zM309 213v341c-117 18 -156 -78 -156 -173s39 -186 156 -168zM429 213c116 -18 157 73 157 164s-41 195 -157 177v-341z" />
    <glyph glyph-name="uni0425" unicode="&#x425;" horiz-adv-x="656" 
d="M10 0l244 364l-237 356h147l165 -253l162 253h149l-237 -356l243 -364h-148l-169 262l-171 -262h-148z" />
    <glyph glyph-name="uni0427" unicode="&#x427;" horiz-adv-x="676" 
d="M485 720h121v-720h-121v276c-41 -25 -103 -39 -168 -39c-182 0 -247 114 -247 278v205h122v-168c0 -99 12 -201 151 -201c64 0 114 21 142 45v324z" />
    <glyph glyph-name="uni0426" unicode="&#x426;" horiz-adv-x="750" 
d="M620 -113v113h-550v720h120v-613h350v596h120v-596h80v-220h-120z" />
    <glyph glyph-name="uni0428" unicode="&#x428;" horiz-adv-x="947" 
d="M70 0v720h120v-607h223v607h121v-607h222v607h121v-720h-807z" />
    <glyph glyph-name="uni0429" unicode="&#x429;" horiz-adv-x="967" 
d="M877 107h80v-220h-121v113h-766v720h120v-607h223v607h121v-607h222v607h121v-613z" />
    <glyph glyph-name="uni040F" unicode="&#x40f;" horiz-adv-x="768" 
d="M324 -120v120h-254v720h120v-607h388v607h120v-720h-254v-120h-120z" />
    <glyph glyph-name="uni042C" unicode="&#x42c;" horiz-adv-x="648" 
d="M69 0v720h121v-251h177c13 0 39 -1 57 -4c124 -20 184 -112 184 -231c0 -118 -59 -211 -184 -230c-18 -3 -43 -4 -57 -4h-298zM190 113h172c13 0 31 1 45 5c60 15 79 70 79 116s-19 102 -79 117c-14 4 -32 5 -45 5h-172v-243z" />
    <glyph glyph-name="uni042A" unicode="&#x42a;" horiz-adv-x="659" 
d="M97 0v626h-99v94h219v-251h177c13 0 39 -1 58 -4c124 -20 183 -112 183 -231c0 -118 -58 -211 -183 -230c-19 -3 -44 -4 -58 -4h-297zM217 113h172c14 0 32 1 46 5c60 15 79 70 79 116s-19 102 -79 117c-14 4 -32 5 -46 5h-172v-243z" />
    <glyph glyph-name="uni042B" unicode="&#x42b;" horiz-adv-x="870" 
d="M69 0v720h121v-251h177c13 0 39 -1 57 -4c124 -20 184 -112 184 -231c0 -118 -59 -211 -184 -230c-18 -3 -43 -4 -57 -4h-298zM679 0v720h121v-720h-121zM190 113h172c13 0 31 1 45 5c60 15 79 70 79 116s-19 102 -79 117c-14 4 -32 5 -45 5h-172v-243z" />
    <glyph glyph-name="uni0409" unicode="&#x409;" horiz-adv-x="1100" 
d="M876 465c124 -20 184 -112 184 -231c0 -118 -59 -211 -184 -230c-18 -3 -43 -4 -57 -4h-298v607h-249c-6 -91 -17 -260 -46 -413c-26 -139 -64 -226 -216 -194v101c64 -5 84 23 104 139c31 164 42 369 47 480h481v-251h177c13 0 39 -1 57 -4zM859 118c60 15 79 70 79 116
s-19 102 -79 117c-14 4 -32 5 -45 5h-172v-243h172c13 0 31 1 45 5z" />
    <glyph glyph-name="uni040A" unicode="&#x40a;" horiz-adv-x="1102" 
d="M879 465c124 -20 183 -112 183 -231c0 -118 -58 -211 -183 -230c-19 -3 -44 -4 -58 -4h-297v355h-334v-355h-120v720h120v-252h334v252h120v-251h177c13 0 39 -1 58 -4zM862 118c60 15 79 70 79 116s-19 102 -79 117c-14 4 -32 5 -46 5h-172v-243h172c14 0 32 1 46 5z
" />
    <glyph glyph-name="uni0405" unicode="&#x405;" horiz-adv-x="657" 
d="M337 -15c-158 0 -276 87 -299 228l126 19c21 -86 93 -134 180 -134c77 0 149 37 149 103c0 41 -26 67 -80 84l-186 54c-64 19 -161 58 -161 185c0 139 117 211 264 210s251 -77 284 -211l-130 -22c-16 76 -82 119 -156 120c-72 2 -135 -35 -135 -91c0 -54 56 -74 104 -87
l129 -35c70 -20 193 -55 193 -198c0 -150 -135 -225 -282 -225z" />
    <glyph glyph-name="uni0404" unicode="&#x404;" horiz-adv-x="723" 
d="M371 -15c-213 0 -338 165 -338 375c1 223 128 375 338 375c169 0 286 -90 322 -247l-121 -17c-24 91 -96 149 -194 150c-124 2 -198 -82 -215 -204h256v-113h-255c6 -47 19 -91 48 -129c37 -51 100 -75 166 -76c95 -1 165 58 192 143l118 -29
c-44 -152 -157 -228 -317 -228z" />
    <glyph glyph-name="uni042D" unicode="&#x42d;" horiz-adv-x="720" 
d="M352 -15c-160 0 -273 76 -317 228l118 29c27 -85 97 -144 192 -143c66 1 129 25 166 76c29 38 42 82 48 129h-255v113h256c-17 122 -91 206 -215 204c-98 -1 -170 -59 -194 -150l-121 17c36 157 153 247 322 247c210 0 337 -152 338 -375c0 -210 -125 -375 -338 -375z
" />
    <glyph glyph-name="uni0406" unicode="&#x406;" 
d="M80 0v720h120v-720h-120z" />
    <glyph glyph-name="uni0407" unicode="&#x407;" 
d="M-18 840v110h110v-110h-110zM189 840v110h110v-110h-110zM80 0v720h120v-720h-120z" />
    <glyph glyph-name="uni0408" unicode="&#x408;" horiz-adv-x="501" 
d="M214 -15c-110 0 -185 62 -214 159l119 29c7 -41 48 -75 90 -75c28 0 65 14 80 48c10 21 10 50 10 89v485h122v-485c0 -66 3 -104 -24 -151c-40 -69 -106 -99 -183 -99z" />
    <glyph glyph-name="uni040B" unicode="&#x40b;" horiz-adv-x="676" 
d="M359 483c182 0 247 -114 247 -278v-205h-122v168c0 99 -11 201 -151 201c-64 0 -114 -21 -142 -45v-324h-121v613h-70v107h345v-107h-154v-169c41 25 104 39 168 39z" />
    <glyph glyph-name="uni042E" unicode="&#x42e;" horiz-adv-x="946" 
d="M613 735c191 0 303 -148 303 -375c0 -228 -112 -375 -303 -375c-174 0 -282 122 -300 315h-123v-300h-120v720h120v-300h123c18 193 126 315 300 315zM613 99c119 0 176 109 176 261s-57 261 -176 261s-175 -109 -175 -261c-1 -152 56 -261 175 -261z" />
    <glyph glyph-name="uni042F" unicode="&#x42f;" horiz-adv-x="660" 
d="M293 720h297v-720h-120v251h-171l-122 -251h-137l133 273c-82 37 -121 116 -121 213c0 119 58 211 183 230c19 3 44 4 58 4zM470 364v243h-172c-14 0 -32 -1 -46 -5c-60 -15 -79 -70 -79 -116s19 -102 79 -117c14 -4 32 -5 46 -5h172z" />
    <glyph glyph-name="uni0402" unicode="&#x402;" horiz-adv-x="676" 
d="M78 0v613h-78v107h345v-107h-160v-126c45 45 111 68 193 68c165 0 258 -95 258 -275c0 -171 -82 -280 -268 -280v122c109 0 146 69 146 158c0 117 -64 159 -153 159c-83 0 -134 -36 -151 -91c-8 -26 -10 -62 -10 -92v-256h-122z" />
    <glyph glyph-name="uni04AE" unicode="&#x4ae;" horiz-adv-x="612" 
d="M245 0v295l-245 425h141l165 -287l165 287h141l-245 -425v-295h-122z" />
    <glyph glyph-name="uni04BA" unicode="&#x4ba;" horiz-adv-x="676" 
d="M359 483c182 0 247 -114 247 -278v-205h-122v168c0 99 -11 201 -151 201c-64 0 -114 -21 -142 -45v-324h-121v720h121v-276c41 25 104 39 168 39z" />
    <glyph glyph-name="uni04E8" unicode="&#x4e8;" horiz-adv-x="769" 
d="M375 735c216 0 344 -152 344 -375s-128 -375 -344 -375s-345 152 -345 375s129 375 345 375zM375 621c-126 2 -197 -77 -213 -201h426c-16 123 -87 200 -213 201zM375 99c126 -2 196 78 213 201h-426c16 -123 87 -200 213 -201z" />
    <glyph glyph-name="uni0414.loclBGR" horiz-adv-x="765" 
d="M658 113h61v-201h-114v88h-454v-88h-113v201h61l191 607h177zM223 113h311l-157 490z" />
    <glyph glyph-name="uni0416.loclBGR" horiz-adv-x="916" 
d="M10 0l271 367l-250 353h144l223 -326v326h120v-326l223 326h144l-250 -353l271 -367h-149l-239 328v-328h-120v328l-239 -328h-149z" />
    <glyph glyph-name="uni041A.loclBGR" horiz-adv-x="647" 
d="M70 0v720h120v-334l288 334h148l-310 -353l331 -367h-153l-304 336v-336h-120z" />
    <glyph glyph-name="uni041B.loclBGR" horiz-adv-x="641" 
d="M232 720h177l227 -720h-124l-193 603l-190 -603h-124z" />
    <glyph glyph-name="uni0430" unicode="&#x430;" horiz-adv-x="576" 
d="M496 455c19 -38 20 -77 20 -124v-331h-105v73c-46 -60 -104 -88 -190 -88c-117 0 -181 74 -181 163c0 78 38 132 123 162c57 18 140 30 235 43c-4 63 -37 92 -111 92c-48 0 -100 -21 -117 -76l-111 35c27 91 101 151 229 151c96 0 172 -29 208 -100zM384 171
c10 24 12 58 13 84c-86 -14 -135 -22 -173 -34c-42 -16 -66 -37 -66 -71c0 -40 30 -69 87 -69c82 0 128 52 139 90z" />
    <glyph glyph-name="uni0431" unicode="&#x431;" horiz-adv-x="599" 
d="M295 -16c-155 2 -240 106 -252 273c-7 85 4 213 34 283c20 46 55 87 94 114c88 61 211 58 330 81l11 -107c-76 -18 -209 -13 -277 -56c-48 -30 -73 -90 -78 -150c41 61 108 84 171 84c144 0 231 -113 231 -257c0 -159 -108 -267 -264 -265zM301 97c86 0 131 58 131 148
c0 91 -47 147 -131 147c-86 0 -131 -56 -131 -147c0 -94 47 -148 131 -148z" />
    <glyph glyph-name="uni0432" unicode="&#x432;" horiz-adv-x="559" 
d="M69 0v540h246c35 0 67 -4 89 -11c52 -15 98 -58 98 -136c0 -46 -15 -74 -39 -94c-12 -10 -24 -16 -36 -20c12 -2 26 -6 37 -12c37 -17 65 -50 65 -114c0 -72 -36 -124 -103 -143c-25 -7 -58 -10 -91 -10h-266zM191 317h100c20 0 41 2 55 8c21 9 32 31 32 56
c0 27 -11 51 -36 59c-18 6 -47 6 -53 6h-98v-129zM191 93h135c14 0 32 3 45 8c25 8 35 33 35 57c0 33 -19 52 -42 59c-13 5 -30 5 -40 5h-133v-129z" />
    <glyph glyph-name="uni0433" unicode="&#x433;" horiz-adv-x="480" 
d="M70 0v540h385v-113h-265v-427h-120z" />
    <glyph glyph-name="uni0453" unicode="&#x453;" horiz-adv-x="480" 
d="M135 605l-32 88l269 96l30 -88zM70 0v540h385v-113h-265v-427h-120z" />
    <glyph glyph-name="uni0491" unicode="&#x491;" horiz-adv-x="480" 
d="M70 0v540h265v113h120v-226h-265v-427h-120z" />
    <glyph glyph-name="uni0434" unicode="&#x434;" horiz-adv-x="633" 
d="M30 -120v215c58 0 78 34 92 134c13 88 20 190 25 311h402v-445h54v-215h-113v120h-346v-120h-114zM192 95h237v351h-176c-5 -81 -11 -171 -20 -236c-7 -56 -15 -89 -41 -115z" />
    <glyph glyph-name="uni0435" unicode="&#x435;" horiz-adv-x="602" 
d="M170 236c9 -89 57 -138 139 -138c59 0 103 27 126 77l119 -36c-41 -98 -134 -154 -239 -154c-163 0 -275 115 -275 279c0 177 110 291 269 291c167 0 265 -124 251 -319h-390zM314 450c-81 0 -127 -42 -141 -122h265c-11 84 -50 122 -124 122z" />
    <glyph glyph-name="uni0450" unicode="&#x450;" horiz-adv-x="602" 
d="M490 693l-31 -88l-268 96l31 88zM170 236c9 -89 57 -138 139 -138c59 0 103 27 126 77l119 -36c-41 -98 -134 -154 -239 -154c-163 0 -275 115 -275 279c0 177 110 291 269 291c167 0 265 -124 251 -319h-390zM314 450c-81 0 -127 -42 -141 -122h265
c-11 84 -50 122 -124 122z" />
    <glyph glyph-name="uni0451" unicode="&#x451;" horiz-adv-x="602" 
d="M260 733v-110h-110v110h110zM467 733v-110h-110v110h110zM170 236c9 -89 57 -138 139 -138c59 0 103 27 126 77l119 -36c-41 -98 -134 -154 -239 -154c-163 0 -275 115 -275 279c0 177 110 291 269 291c167 0 265 -124 251 -319h-390zM314 450c-81 0 -127 -42 -141 -122
h265c-11 84 -50 122 -124 122z" />
    <glyph glyph-name="uni0436" unicode="&#x436;" horiz-adv-x="766" 
d="M10 0l198 270l-186 270h132l175 -262v262h107v-262l176 262h132l-186 -270l198 -270h-139l-181 262v-262h-107v262l-180 -262h-139z" />
    <glyph glyph-name="uni0437" unicode="&#x437;" horiz-adv-x="520" 
d="M421 283c38 -27 59 -72 59 -124c0 -112 -100 -174 -218 -174c-103 0 -192 46 -240 122l95 63c38 -46 85 -72 143 -72c60 0 97 28 97 74c0 58 -59 59 -124 59h-40v95h40c60 0 107 9 107 57c0 43 -38 60 -80 60c-52 0 -106 -25 -145 -57l-68 83c59 53 135 86 218 86
c104 0 198 -55 198 -161c0 -41 -13 -77 -42 -111z" />
    <glyph glyph-name="uni0438" unicode="&#x438;" horiz-adv-x="608" 
d="M538 540v-540h-115v353l-257 -353h-97v540h116v-343l257 343h96z" />
    <glyph glyph-name="uni0439" unicode="&#x439;" horiz-adv-x="608" 
d="M320 600c-84 0 -152 68 -152 152h94c0 -32 26 -58 58 -58s57 26 57 58h94c0 -84 -68 -152 -151 -152zM538 540v-540h-115v353l-257 -353h-97v540h116v-343l257 343h96z" />
    <glyph glyph-name="uni045D" unicode="&#x45d;" horiz-adv-x="608" 
d="M449 605l-267 96l30 88l268 -96zM538 540v-540h-115v353l-257 -353h-97v540h116v-343l257 343h96z" />
    <glyph glyph-name="uni043A" unicode="&#x43a;" horiz-adv-x="538" 
d="M69 0l1 540h122v-260l198 260h150l-209 -270l227 -270h-159l-207 260v-260h-123z" />
    <glyph glyph-name="uni045C" unicode="&#x45c;" horiz-adv-x="538" 
d="M153 605l-31 88l268 96l31 -88zM69 0l1 540h122v-260l198 260h150l-209 -270l227 -270h-159l-207 260v-260h-123z" />
    <glyph glyph-name="uni043B" unicode="&#x43b;" horiz-adv-x="605" 
d="M20 0v101c59 -11 72 14 83 78c17 89 27 223 34 361h398v-540h-120v427h-171c-7 -88 -19 -224 -33 -294c-22 -118 -68 -161 -191 -133z" />
    <glyph glyph-name="uni043C" unicode="&#x43c;" horiz-adv-x="724" 
d="M69 0v540h99l194 -373l193 373h99v-540h-115v298l-153 -298h-48l-153 298v-298h-116z" />
    <glyph glyph-name="uni043D" unicode="&#x43d;" horiz-adv-x="623" 
d="M69 0v540h121v-213h242v213h121v-540h-121v214h-242v-214h-121z" />
    <glyph glyph-name="uni043E" unicode="&#x43e;" horiz-adv-x="618" 
d="M309 -15c-163 0 -269 118 -269 285c0 169 109 285 269 285c162 0 269 -118 269 -285c0 -168 -108 -285 -269 -285zM309 98c95 0 142 71 142 172c0 105 -48 172 -142 172c-97 0 -141 -70 -141 -172c0 -105 48 -172 141 -172z" />
    <glyph glyph-name="uni043F" unicode="&#x43f;" horiz-adv-x="608" 
d="M69 0v540h469v-540h-120v427h-228v-427h-121z" />
    <glyph glyph-name="uni0440" unicode="&#x440;" horiz-adv-x="616" 
d="M325 555c153 0 251 -121 251 -285c0 -162 -97 -285 -247 -285c-56 0 -102 16 -139 43v-268h-121v780h107v-38c38 34 88 53 149 53zM311 93c94 0 138 78 138 177c0 98 -45 177 -142 177c-92 0 -131 -72 -131 -177s38 -177 135 -177z" />
    <glyph glyph-name="uni0441" unicode="&#x441;" horiz-adv-x="576" 
d="M305 -15c-167 0 -264 122 -265 285c1 166 102 285 266 285c123 0 213 -66 239 -172l-120 -33c-18 58 -65 92 -120 92c-95 0 -137 -73 -137 -172c0 -103 46 -172 137 -172c64 0 98 30 117 85l123 -27c-33 -110 -120 -171 -240 -171z" />
    <glyph glyph-name="uni0442" unicode="&#x442;" horiz-adv-x="532" 
d="M206 0v433h-181v107h482v-107h-181v-433h-120z" />
    <glyph glyph-name="uni0443" unicode="&#x443;" horiz-adv-x="559" 
d="M434 540h121l-301 -780h-113l89 243l-218 537h125l151 -386z" />
    <glyph glyph-name="uni045E" unicode="&#x45e;" horiz-adv-x="559" 
d="M291 600c-84 0 -152 68 -152 152h94c0 -32 26 -58 58 -58s57 26 57 58h94c0 -84 -67 -152 -151 -152zM434 540h121l-301 -780h-113l89 243l-218 537h125l151 -386z" />
    <glyph glyph-name="uni0444" unicode="&#x444;" horiz-adv-x="753" 
d="M323 -225v216c-158 -25 -283 79 -283 279c0 199 125 304 283 279v163h107v-163c158 25 283 -80 283 -279c0 -200 -125 -304 -283 -279v-216h-107zM323 99v342c-108 18 -160 -53 -160 -171s56 -189 160 -171zM430 99c104 -18 161 50 161 171s-53 189 -161 171v-342z" />
    <glyph glyph-name="uni0445" unicode="&#x445;" horiz-adv-x="554" 
d="M10 0l198 273l-194 267h142l122 -173l119 173h142l-193 -267l198 -273h-142l-124 179l-126 -179h-142z" />
    <glyph glyph-name="uni0447" unicode="&#x447;" horiz-adv-x="576" 
d="M384 0v182c-37 -19 -86 -31 -138 -31c-111 0 -178 52 -198 147c-8 41 -8 92 -8 111v131h122v-131c0 -15 0 -47 7 -74c12 -54 44 -77 106 -77c47 0 84 14 109 33v249h122v-540h-122z" />
    <glyph glyph-name="uni0446" unicode="&#x446;" horiz-adv-x="652" 
d="M522 -113v113h-453v540h121v-427h228v427h120v-433h104v-220h-120z" />
    <glyph glyph-name="uni0448" unicode="&#x448;" horiz-adv-x="790" 
d="M69 0v540h116v-433h152v433h116v-433h152v433h115v-540h-651z" />
    <glyph glyph-name="uni0449" unicode="&#x449;" horiz-adv-x="781" 
d="M651 -113v113h-582v540h116v-433h152v433h116v-433h152v433h115v-433h51v-220h-120z" />
    <glyph glyph-name="uni045F" unicode="&#x45f;" horiz-adv-x="608" 
d="M251 -120v120h-182v540h121v-427h228v427h120v-540h-167v-120h-120z" />
    <glyph glyph-name="uni044C" unicode="&#x44c;" horiz-adv-x="569" 
d="M69 0v540h121v-180h97c30 0 72 -1 98 -6c91 -19 144 -74 144 -175c0 -95 -52 -151 -141 -172c-26 -6 -70 -7 -100 -7h-219zM190 95h109c14 0 33 0 50 5c30 8 57 38 57 79c0 44 -27 73 -60 82c-16 4 -34 5 -47 5h-109v-171z" />
    <glyph glyph-name="uni044A" unicode="&#x44a;" horiz-adv-x="598" 
d="M99 0l-1 446h-78v94h199v-180h97c30 0 72 -1 98 -6c91 -19 144 -74 144 -175c0 -95 -52 -151 -140 -172c-27 -6 -70 -7 -101 -7h-218zM219 95h109c14 0 33 0 50 5c30 8 57 38 57 79c0 44 -27 73 -60 82c-16 4 -33 5 -47 5h-109v-171z" />
    <glyph glyph-name="uni044B" unicode="&#x44b;" horiz-adv-x="739" 
d="M69 0v540h121v-180h60c30 0 73 -1 98 -6c91 -19 144 -74 144 -175c0 -95 -52 -151 -140 -172c-27 -6 -70 -7 -100 -7h-183zM549 0v540h120v-540h-120zM190 95h72c15 0 34 0 50 5c30 8 58 38 58 79c0 44 -28 73 -61 82c-16 4 -33 5 -47 5h-72v-171z" />
    <glyph glyph-name="uni0459" unicode="&#x459;" horiz-adv-x="856" 
d="M20 0v101c59 -11 72 14 83 78c17 89 27 223 34 361h377v-180h60c36 0 67 0 98 -6c84 -16 144 -72 144 -173c0 -98 -57 -157 -140 -174c-36 -7 -77 -7 -101 -7h-182v427h-149c-7 -88 -19 -224 -33 -294c-22 -118 -68 -161 -191 -133zM514 95h72c15 0 33 0 50 5
c30 8 57 37 57 81c0 43 -28 71 -60 80c-17 4 -35 5 -47 5h-72v-171z" />
    <glyph glyph-name="uni045A" unicode="&#x45a;" horiz-adv-x="835" 
d="M69 0v540h121v-180h182v180h121v-180h60c36 0 67 0 98 -6c84 -16 144 -72 144 -173c0 -98 -57 -157 -140 -174c-36 -7 -77 -7 -101 -7h-182v266h-182v-266h-121zM493 95h72c15 0 33 0 50 5c30 8 57 37 57 81c0 43 -28 71 -60 80c-17 4 -35 5 -47 5h-72v-171z" />
    <glyph glyph-name="uni0455" unicode="&#x455;" horiz-adv-x="542" 
d="M279 -15c-134 0 -221 63 -239 172l123 19c12 -54 58 -86 124 -86c57 0 91 24 91 64c0 37 -15 46 -137 78c-136 36 -183 76 -183 157c0 101 83 166 212 166c126 0 214 -62 227 -159l-123 -22c-6 45 -43 73 -102 77c-56 2 -94 -20 -94 -56c0 -32 21 -43 147 -75
c130 -34 176 -76 176 -160c0 -109 -83 -175 -222 -175z" />
    <glyph glyph-name="uni0454" unicode="&#x454;" horiz-adv-x="577" 
d="M305 -15c-166 0 -264 121 -264 284c0 167 102 286 265 286c123 0 214 -66 239 -172l-120 -33c-19 60 -65 92 -123 92c-76 0 -118 -53 -130 -124h180v-95h-180c13 -76 57 -125 133 -125c64 0 99 30 118 85l122 -27c-33 -110 -119 -171 -240 -171z" />
    <glyph glyph-name="uni044D" unicode="&#x44d;" horiz-adv-x="577" 
d="M272 -15c-120 0 -207 61 -240 171l122 27c19 -55 54 -85 118 -85c76 0 121 49 133 125h-180v95h180c-11 71 -54 124 -130 124c-58 0 -104 -32 -123 -92l-120 33c25 106 116 172 239 172c163 0 266 -119 266 -286c0 -163 -99 -284 -265 -284z" />
    <glyph glyph-name="uni0456" unicode="&#x456;" 
d="M80 624v110h120v-110h-120zM80 0v540h120v-540h-120z" />
    <glyph glyph-name="uni0457" unicode="&#x457;" 
d="M-18 623v110h110v-110h-110zM189 623v110h110v-110h-110zM80 0v540h120v-540h-120z" />
    <glyph glyph-name="uni0458" unicode="&#x458;" horiz-adv-x="288" 
d="M96 624v111h121v-111h-121zM-10 -240v113h26c58 0 80 27 80 81v586h121v-640c0 -87 -54 -140 -145 -140h-82z" />
    <glyph glyph-name="uni045B" unicode="&#x45b;" horiz-adv-x="626" 
d="M353 555c199 0 213 -189 213 -253v-302h-122v260c0 67 -11 182 -127 182c-61 0 -126 -33 -126 -164v-278h-122v583h-54v94h54v43h108v-43h105v-94h-105v-103c39 47 98 75 176 75z" />
    <glyph glyph-name="uni044E" unicode="&#x44e;" horiz-adv-x="851" 
d="M542 -15c-129 0 -226 83 -247 225h-105v-210h-121v540h121v-210h105c21 144 119 225 249 225c160 0 267 -119 267 -284c0 -169 -109 -286 -269 -286zM540 98c97 0 144 70 144 172c0 106 -48 172 -143 172s-141 -68 -141 -171c0 -106 49 -173 140 -173z" />
    <glyph glyph-name="uni044F" unicode="&#x44f;" horiz-adv-x="584" 
d="M295 540h219v-540h-121v180h-97h-18l-111 -180h-127l122 196c-64 24 -108 78 -108 163c0 97 57 157 141 174c35 7 75 7 100 7zM393 274v172h-109c-13 0 -32 -1 -50 -6c-29 -9 -57 -39 -57 -80c0 -42 28 -71 60 -80c17 -5 35 -6 47 -6h109z" />
    <glyph glyph-name="uni0452" unicode="&#x452;" horiz-adv-x="626" 
d="M469 -225c-42 -9 -89 -2 -115 5v86c37 -3 90 -10 90 70v324c0 67 -11 182 -127 182c-61 0 -126 -33 -126 -164v-278h-121v583h-55v94h55v43h107v-43h105v-94h-105v-104c39 48 99 76 176 76c199 0 213 -189 213 -253v-391c0 -75 -34 -122 -97 -136z" />
    <glyph glyph-name="uni04AF" unicode="&#x4af;" horiz-adv-x="553" 
d="M216 -180v180l-196 540h121l136 -391l135 391h121l-196 -540v-180h-121z" />
    <glyph glyph-name="uni04BB" unicode="&#x4bb;" horiz-adv-x="579" 
d="M195 540v-181c37 18 86 30 138 30c111 0 178 -52 198 -147c8 -41 8 -92 8 -111v-131h-122v131c0 15 0 47 -7 74c-12 54 -44 78 -106 78c-47 0 -84 -15 -109 -34v-249h-122v540h122z" />
    <glyph glyph-name="uni04E9" unicode="&#x4e9;" horiz-adv-x="618" 
d="M309 555c162 0 269 -118 269 -285c0 -168 -108 -285 -269 -285c-163 0 -269 118 -269 285c0 169 109 285 269 285zM309 442c-81 0 -125 -49 -137 -124h275c-13 77 -59 124 -138 124zM309 98c79 0 125 50 138 125h-275c12 -78 59 -125 137 -125z" />
    <glyph glyph-name="uni0432.loclBGR" horiz-adv-x="604" 
d="M456 398c69 -26 118 -95 118 -189c0 -140 -102 -224 -259 -224c-118 0 -208 47 -236 150c-9 34 -10 65 -10 95v300c0 19 1 43 9 70c29 93 118 135 210 135c132 0 228 -85 228 -205c0 -52 -19 -100 -60 -132zM320 97c79 0 133 46 133 117c0 78 -65 114 -160 115v105
c63 5 101 39 101 94c0 61 -47 94 -103 94c-33 0 -70 -12 -87 -49c-13 -26 -13 -60 -13 -75v-276c0 -14 1 -42 7 -61c16 -44 72 -64 122 -64z" />
    <glyph glyph-name="uni0433.loclBGR" horiz-adv-x="542" 
d="M263 -15c-138 0 -222 66 -222 175c0 84 47 126 176 160c126 32 148 43 148 75c0 36 -38 58 -95 56c-59 -4 -96 -32 -102 -77l-123 22c13 97 101 159 227 159c129 0 212 -65 212 -166c0 -81 -47 -121 -182 -157c-122 -32 -138 -41 -138 -78c0 -40 34 -64 91 -64
c66 0 112 32 124 86l123 -19c-18 -109 -105 -172 -239 -172z" />
    <glyph glyph-name="uni0434.loclBGR" horiz-adv-x="616" 
d="M440 540h106v-566c0 -28 -2 -52 -7 -76c-25 -105 -120 -153 -242 -153c-90 0 -172 44 -215 117l112 55c20 -39 61 -57 104 -57c75 0 129 39 128 116v52c-37 -28 -83 -43 -139 -43c-150 0 -247 123 -247 285c0 164 98 285 251 285c61 0 111 -19 149 -53v38zM305 93
c97 0 135 72 135 177s-39 177 -131 177c-97 0 -141 -79 -141 -177c0 -99 43 -177 137 -177z" />
    <glyph glyph-name="uni0436.loclBGR" horiz-adv-x="787" 
d="M10 0l198 270l-186 270h132l175 -261v441h107v-441l176 261h131l-185 -270l198 -270h-140l-180 262v-262h-107v262l-180 -262h-139z" />
    <glyph glyph-name="uni0437.loclBGR" horiz-adv-x="653" 
d="M327 -195c-152 0 -245 76 -287 154l103 70c24 -55 78 -110 189 -110c107 0 153 53 153 114c0 76 -71 95 -148 97l-81 2v114c12 0 52 0 70 1c76 3 130 35 130 98c0 60 -49 97 -125 97c-71 0 -126 -36 -154 -79l-84 86c48 59 135 106 242 106c126 0 249 -64 249 -206
c0 -66 -27 -125 -71 -160c63 -26 100 -77 100 -156c0 -141 -125 -228 -286 -228z" />
    <glyph glyph-name="uni0438.loclBGR" horiz-adv-x="626" 
d="M434 540h122v-540h-107v60c-39 -47 -99 -75 -177 -75c-198 0 -212 189 -212 254v301h122v-260c0 -67 11 -182 126 -182c61 0 126 34 126 165v277z" />
    <glyph glyph-name="uni0439.loclBGR" horiz-adv-x="626" 
d="M308 600c-84 0 -152 68 -152 152h94c0 -32 26 -58 58 -58s57 26 57 58h94c0 -84 -68 -152 -151 -152zM434 540h122v-540h-107v60c-39 -47 -99 -75 -177 -75c-198 0 -212 189 -212 254v301h122v-260c0 -67 11 -182 126 -182c61 0 126 34 126 165v277z" />
    <glyph glyph-name="uni045D.loclBGR" horiz-adv-x="621" 
d="M474 693l-32 -88l-267 96l30 88zM434 540h122v-540h-107v60c-39 -47 -99 -75 -177 -75c-198 0 -212 189 -212 254v301h122v-260c0 -67 11 -182 126 -182c61 0 126 34 126 165v277z" />
    <glyph glyph-name="uni043A.loclBGR" horiz-adv-x="538" 
d="M69 0l1 720h122v-440l198 260h150l-209 -270l227 -270h-159l-207 260v-260h-123z" />
    <glyph glyph-name="uni043B.loclBGR" horiz-adv-x="553" 
d="M216 540h121l196 -540h-121l-135 392l-136 -392h-121z" />
    <glyph glyph-name="uni043D.loclBGR" horiz-adv-x="623" 
d="M69 0v540h121v-213h242v213h121v-540h-121v214h-242v-214h-121z" />
    <glyph glyph-name="uni043F.loclBGR" horiz-adv-x="626" 
d="M353 555c199 0 213 -189 213 -253v-302h-122v260c0 67 -11 182 -127 182c-61 0 -126 -33 -126 -164v-278h-122v540h108v-60c39 47 98 75 176 75z" />
    <glyph glyph-name="uni0442.loclBGR" horiz-adv-x="899" 
d="M654 553c119 0 185 -78 185 -195v-358h-120v328c0 74 -40 118 -102 118c-58 0 -102 -42 -102 -114v-332h-121l1 327c0 74 -40 119 -103 119c-61 0 -102 -46 -102 -114v-332h-121v540h107v-58c35 44 91 71 156 71c76 0 129 -33 158 -85c33 53 94 85 164 85z" />
    <glyph glyph-name="uni0447.loclBGR" horiz-adv-x="576" 
d="M384 0v182c-37 -19 -86 -31 -138 -31c-111 0 -178 52 -198 147c-8 41 -8 92 -8 111v131h122v-131c0 -15 0 -47 7 -74c12 -54 44 -77 106 -77c47 0 84 14 109 33v249h122v-540h-122z" />
    <glyph glyph-name="uni0446.loclBGR" horiz-adv-x="649" 
d="M556 107h83v-195h-120v88h-70v60c-39 -47 -99 -75 -177 -75c-198 0 -212 189 -212 254v301h122v-260c0 -67 11 -182 126 -182c61 0 126 34 126 165v277h122v-433z" />
    <glyph glyph-name="uni0448.loclBGR" horiz-adv-x="899" 
d="M709 540h121v-540h-107v58c-35 -44 -91 -71 -156 -71c-76 0 -129 33 -158 85c-33 -53 -94 -85 -164 -85c-119 0 -185 78 -185 195v358h121l-1 -328c0 -74 40 -118 102 -118c59 0 102 42 102 114l1 332h120v-327c0 -74 39 -119 102 -119c61 0 102 46 102 114v332z" />
    <glyph glyph-name="uni0449.loclBGR" horiz-adv-x="923" 
d="M830 107h83v-220h-120v113h-70v58c-35 -44 -91 -71 -156 -71c-76 0 -129 33 -158 85c-33 -53 -94 -85 -164 -85c-119 0 -185 78 -185 195v358h121l-1 -328c0 -74 40 -118 102 -118c59 0 102 42 102 114l1 332h120v-327c0 -74 39 -119 102 -119c61 0 102 46 102 114v332
h121v-433z" />
    <glyph glyph-name="uni044C.loclBGR" horiz-adv-x="569" 
d="M69 0v540h121v-180h97c30 0 72 -1 98 -6c91 -19 144 -74 144 -175c0 -95 -52 -151 -141 -172c-26 -6 -70 -7 -100 -7h-219zM190 95h109c14 0 33 0 50 5c30 8 57 38 57 79c0 44 -27 73 -60 82c-16 4 -34 5 -47 5h-109v-171z" />
    <glyph glyph-name="uni044E.loclBGR" horiz-adv-x="848" 
d="M544 555c160 0 267 -119 267 -284c0 -169 -109 -286 -269 -286c-129 0 -226 83 -247 225h-105v-210h-121v540h1v180h120v-390h105c21 144 119 225 249 225zM540 98c97 0 144 70 144 172c0 106 -48 172 -143 172s-141 -68 -141 -171c0 -106 49 -173 140 -173z" />
    <glyph glyph-name="uni0431.loclSRB" horiz-adv-x="599" 
d="M295 -16c-155 2 -240 106 -252 273c-7 85 4 213 34 283c20 46 55 87 94 114c88 61 211 58 330 81l11 -107c-76 -18 -209 -13 -277 -56c-48 -30 -73 -90 -78 -150c41 61 108 84 171 84c144 0 231 -113 231 -257c0 -159 -108 -267 -264 -265zM301 97c86 0 131 58 131 148
c0 91 -47 147 -131 147c-86 0 -131 -56 -131 -147c0 -94 47 -148 131 -148z" />
    <glyph glyph-name="Alpha" unicode="&#x391;" horiz-adv-x="671" 
d="M527 0l-50 156h-284l-49 -156h-124l227 720h177l227 -720h-124zM229 269h212l-107 335z" />
    <glyph glyph-name="Beta" unicode="&#x392;" horiz-adv-x="631" 
d="M495 379c70 -29 106 -92 106 -165c0 -128 -74 -214 -216 -214h-315v720h286c145 0 212 -101 212 -198c0 -66 -28 -116 -73 -143zM192 607v-174h162c52 0 91 29 91 87c0 50 -34 87 -91 87h-162zM370 114c63 0 109 40 109 104c0 58 -39 102 -106 102h-181v-206h178z" />
    <glyph glyph-name="Gamma" unicode="&#x393;" horiz-adv-x="545" 
d="M70 0v720h465v-113h-345v-607h-120z" />
    <glyph glyph-name="uni0394" unicode="&#x394;" horiz-adv-x="671" 
d="M424 720l227 -720h-631l227 720h177zM180 113h311l-157 490z" />
    <glyph glyph-name="Epsilon" unicode="&#x395;" horiz-adv-x="585" 
d="M70 0v720h465v-113h-345v-178h285v-112h-285v-204h345v-113h-465z" />
    <glyph glyph-name="Zeta" unicode="&#x396;" horiz-adv-x="664" 
d="M50 0v17l355 590h-330v113h539v-17l-353 -589h344v-114h-555z" />
    <glyph glyph-name="Eta" unicode="&#x397;" horiz-adv-x="722" 
d="M70 0v720h120v-303h341v303h121v-720h-121v304h-341v-304h-120z" />
    <glyph glyph-name="Theta" unicode="&#x398;" horiz-adv-x="749" 
d="M375 -15c-216 0 -345 152 -345 375s129 375 345 375s344 -152 344 -375s-128 -375 -344 -375zM375 99c145 -2 217 104 217 261c0 158 -72 260 -217 261c-145 2 -217 -103 -217 -261c-1 -157 72 -260 217 -261zM241 313v94h267v-94h-267z" />
    <glyph glyph-name="Iota" unicode="&#x399;" 
d="M80 0v720h120v-720h-120z" />
    <glyph glyph-name="Kappa" unicode="&#x39a;" horiz-adv-x="647" 
d="M70 0v720h120v-334l288 334h148l-310 -353l331 -367h-153l-304 336v-336h-120z" />
    <glyph glyph-name="Lambda" unicode="&#x39b;" horiz-adv-x="641" 
d="M232 720h177l227 -720h-124l-193 603l-190 -603h-124z" />
    <glyph glyph-name="Mu" unicode="&#x39c;" horiz-adv-x="855" 
d="M70 0v720h108l250 -510l249 510h108v-720h-113v462l-220 -462h-48l-221 462v-462h-113z" />
    <glyph glyph-name="Nu" unicode="&#x39d;" horiz-adv-x="718" 
d="M70 0v720h122l334 -507v507h122v-720h-122l-334 508v-508h-122z" />
    <glyph glyph-name="Xi" unicode="&#x39e;" horiz-adv-x="723" 
d="M70 607v113h583v-113h-583zM120 304v113h483v-113h-483zM70 0v113h583v-113h-583z" />
    <glyph glyph-name="Omicron" unicode="&#x39f;" horiz-adv-x="749" 
d="M375 -15c-216 0 -345 152 -345 375s129 375 345 375s344 -152 344 -375s-128 -375 -344 -375zM375 99c145 -2 217 104 217 261c0 158 -72 260 -217 261c-145 2 -217 -103 -217 -261c-1 -157 72 -260 217 -261z" />
    <glyph glyph-name="Pi" unicode="&#x3a0;" horiz-adv-x="723" 
d="M70 0v720h583v-720h-120v607h-343v-607h-120z" />
    <glyph glyph-name="Rho" unicode="&#x3a1;" horiz-adv-x="639" 
d="M70 0v720h298c14 0 38 -1 57 -4c125 -19 184 -111 184 -230s-60 -211 -184 -231c-19 -3 -44 -4 -57 -4h-178v-251h-120zM190 364h173c13 0 31 1 45 5c60 15 79 71 79 117s-19 101 -79 116c-14 4 -32 5 -45 5h-173v-243z" />
    <glyph glyph-name="Sigma" unicode="&#x3a3;" horiz-adv-x="635" 
d="M70 0v108l248 252l-248 251v109h495v-113h-343l234 -238v-18l-234 -238h340v-113h-492z" />
    <glyph glyph-name="Tau" unicode="&#x3a4;" horiz-adv-x="607" 
d="M243 0v607h-233v113h587v-113h-233v-607h-121z" />
    <glyph glyph-name="Upsilon" unicode="&#x3a5;" horiz-adv-x="612" 
d="M245 0v295l-245 425h141l165 -287l165 287h141l-245 -425v-295h-122z" />
    <glyph glyph-name="Phi" unicode="&#x3a6;" horiz-adv-x="739" 
d="M309 0v103c-148 -25 -279 76 -279 278c0 201 131 307 279 282v57h120v-57c148 25 280 -81 280 -282c0 -202 -132 -303 -280 -278v-103h-120zM309 213v341c-117 18 -156 -78 -156 -173s39 -186 156 -168zM429 213c116 -18 157 73 157 164s-41 195 -157 177v-341z" />
    <glyph glyph-name="Chi" unicode="&#x3a7;" horiz-adv-x="656" 
d="M10 0l244 364l-237 356h147l165 -253l162 253h149l-237 -356l243 -364h-148l-169 262l-171 -262h-148z" />
    <glyph glyph-name="Psi" unicode="&#x3a8;" horiz-adv-x="753" 
d="M317 0v157c-115 5 -210 52 -238 170c-7 28 -9 59 -9 78v315h113v-295c0 -13 0 -37 7 -63c18 -70 66 -92 127 -93v451h120v-451c63 1 114 29 129 99c5 24 5 47 5 57v295h112v-315c0 -23 -1 -49 -9 -76c-29 -119 -124 -167 -237 -172v-157h-120z" />
    <glyph glyph-name="uni03A9" unicode="&#x3a9;" horiz-adv-x="749" 
d="M38 0v113h104c-70 62 -112 157 -112 268c0 200 136 354 345 354c208 0 344 -154 344 -354c0 -111 -42 -206 -112 -268h104v-113h-251v113c64 33 131 122 132 250c1 142 -82 258 -217 258s-217 -115 -217 -257c0 -133 72 -219 135 -251v-113h-255z" />
    <glyph glyph-name="Alphatonos" unicode="&#x386;" horiz-adv-x="671" 
d="M527 0l-50 156h-284l-49 -156h-124l227 720h177l227 -720h-124zM30 600l38 120h119l-38 -120h-119zM229 269h212l-107 335z" />
    <glyph glyph-name="Epsilontonos" unicode="&#x388;" horiz-adv-x="750" 
d="M28 600l38 120h119l-38 -120h-119zM235 0v720h465v-113h-345v-178h285v-112h-285v-204h345v-113h-465z" />
    <glyph glyph-name="Etatonos" unicode="&#x389;" horiz-adv-x="875" 
d="M28 600l38 120h119l-38 -120h-119zM224 0v720h120v-303h341v303h120v-720h-120v304h-341v-304h-120z" />
    <glyph glyph-name="Iotatonos" unicode="&#x38a;" 
d="M-18 840v110h110v-110h-110zM189 840v110h110v-110h-110zM80 0v720h120v-720h-120z" />
    <glyph glyph-name="Omicrontonos" unicode="&#x38c;" horiz-adv-x="859" 
d="M485 -15c-216 0 -345 152 -345 375s129 375 345 375c215 0 344 -152 344 -375s-129 -375 -344 -375zM31 600l38 120h119l-38 -120h-119zM485 99c145 -2 217 104 217 261c0 158 -72 260 -217 261c-145 2 -217 -103 -218 -261c0 -157 73 -260 218 -261z" />
    <glyph glyph-name="Upsilontonos" unicode="&#x38e;" horiz-adv-x="834" 
d="M32 600l38 120h119l-38 -120h-119zM467 0v295l-244 425h140l165 -287l166 287h140l-245 -425v-295h-122z" />
    <glyph glyph-name="Omegatonos" unicode="&#x38f;" horiz-adv-x="876" 
d="M162 0v113h103c-70 62 -112 157 -112 268c0 200 137 354 345 354s345 -154 345 -354c0 -111 -42 -206 -112 -268h103v-113h-251v113c64 33 131 122 132 250c1 142 -82 258 -217 258s-217 -115 -217 -257c0 -133 72 -219 135 -251v-113h-254zM31 600l38 120h119l-38 -120
h-119z" />
    <glyph glyph-name="Iotadieresis" unicode="&#x3aa;" 
d="M-18 840v110h110v-110h-110zM189 840v110h110v-110h-110zM80 0v720h120v-720h-120z" />
    <glyph glyph-name="Upsilondieresis" unicode="&#x3ab;" horiz-adv-x="612" 
d="M148 840v110h110v-110h-110zM354 840v110h110v-110h-110zM245 0v295l-245 425h141l165 -287l165 287h141l-245 -425v-295h-122z" />
    <glyph glyph-name="alpha" unicode="&#x3b1;" horiz-adv-x="629" 
d="M452 540h107v-540h-107v55c-38 -44 -95 -70 -163 -70c-153 0 -249 123 -249 285c0 164 98 285 253 285c68 0 122 -25 159 -69v54zM308 93c93 0 132 72 132 177s-39 177 -131 177c-90 0 -141 -69 -141 -178c0 -97 42 -176 140 -176z" />
    <glyph glyph-name="beta" unicode="&#x3b2;" horiz-adv-x="604" 
d="M69 -240v780c0 18 3 38 9 60c28 93 118 135 210 135c132 0 228 -85 228 -205c0 -53 -20 -101 -61 -132c70 -25 119 -94 119 -189c0 -140 -102 -224 -260 -224c-47 0 -89 9 -124 26v-251h-121zM320 97c79 0 133 46 133 117c0 78 -65 114 -161 115v105c64 5 102 39 102 94
c0 61 -47 94 -103 94c-33 0 -70 -12 -88 -49c-12 -26 -12 -60 -12 -75v-276c0 -14 0 -42 7 -61c16 -44 72 -64 122 -64z" />
    <glyph glyph-name="gamma" unicode="&#x3b3;" horiz-adv-x="553" 
d="M216 -180v180l-196 540h121l136 -391l135 391h121l-196 -540v-180h-121z" />
    <glyph glyph-name="delta" unicode="&#x3b4;" horiz-adv-x="618" 
d="M427 483c94 -39 151 -126 151 -237c0 -154 -107 -261 -272 -261c-159 0 -266 100 -266 251c0 115 62 207 170 226c-52 28 -91 69 -91 134c0 54 27 123 123 136c17 3 32 3 63 3h164v-98h-136c-23 0 -40 0 -54 -4c-23 -6 -39 -20 -39 -43c0 -54 96 -70 187 -107zM310 98
c86 0 131 58 131 148c0 91 -46 147 -131 147c-87 0 -132 -57 -132 -147c0 -94 47 -148 132 -148z" />
    <glyph glyph-name="epsilon" unicode="&#x3b5;" horiz-adv-x="521" 
d="M404 170l95 -63c-49 -76 -138 -122 -241 -122c-118 0 -218 62 -218 174c0 52 21 97 60 124c-30 34 -43 70 -43 111c0 106 94 161 198 161c83 0 159 -33 219 -86l-68 -83c-40 32 -93 57 -145 57c-43 0 -80 -17 -80 -60c0 -48 46 -57 107 -57h39v-95h-40
c-65 0 -124 -1 -124 -59c0 -46 37 -74 97 -74c58 0 105 26 144 72z" />
    <glyph glyph-name="zeta" unicode="&#x3b6;" horiz-adv-x="526" 
d="M411 -120c1 121 -67 120 -147 120c-137 0 -224 53 -224 198c0 86 31 157 143 272c52 52 97 92 154 143h-267v107h453v-89c-48 -44 -52 -50 -226 -210c-96 -90 -130 -150 -130 -212c0 -88 68 -96 161 -96c31 0 70 -4 98 -14c71 -25 109 -101 90 -219h-105z" />
    <glyph glyph-name="eta" unicode="&#x3b7;" horiz-adv-x="626" 
d="M353 555c199 0 213 -189 213 -253v-302h-122v260c0 67 -11 182 -127 182c-61 0 -126 -33 -126 -164v-278h-122v540h108v-60c39 47 98 75 176 75z" />
    <glyph glyph-name="theta" unicode="&#x3b8;" horiz-adv-x="686" 
d="M343 735c191 0 303 -148 303 -375c0 -228 -112 -375 -303 -375s-303 148 -303 375s112 375 303 375zM343 621c-106 0 -162 -87 -173 -214h347c-11 127 -68 214 -174 214zM343 99c106 0 163 87 174 214h-347c10 -127 67 -214 173 -214z" />
    <glyph glyph-name="iota" unicode="&#x3b9;" horiz-adv-x="405" 
d="M211 -4c-39 7 -79 21 -108 68c-28 45 -23 88 -23 157v319h120v-313c0 -44 -2 -75 11 -97c14 -22 37 -31 59 -33c27 -2 60 0 89 4v-101c-41 -11 -110 -11 -148 -4z" />
    <glyph glyph-name="kappa" unicode="&#x3ba;" horiz-adv-x="538" 
d="M69 0l1 540h122v-260l198 260h150l-209 -270l227 -270h-159l-207 260v-260h-123z" />
    <glyph glyph-name="lambda" unicode="&#x3bb;" horiz-adv-x="573" 
d="M40 0l196 540c-26 64 -50 90 -119 90h-26v105h37c12 0 51 0 81 -7c86 -20 117 -101 148 -188l196 -540h-121l-135 392l-136 -392h-121z" />
    <glyph glyph-name="uni03BC" unicode="&#x3bc;" horiz-adv-x="635" 
d="M69 -240v780h122v-260c0 -67 11 -182 126 -182c62 0 127 34 127 165v277h121v-540h-107v61c-39 -48 -99 -76 -176 -76c-44 0 -79 10 -106 29v-254h-107z" />
    <glyph glyph-name="nu" unicode="&#x3bd;" horiz-adv-x="553" 
d="M216 0l-196 540h121l136 -391l135 391h121l-196 -540h-121z" />
    <glyph glyph-name="xi" unicode="&#x3be;" horiz-adv-x="573" 
d="M460 -120c9 114 -47 120 -148 120c-189 0 -272 85 -272 215c0 77 30 141 100 168c-43 37 -71 89 -71 156c0 140 124 196 247 196c109 0 192 -44 244 -106l-85 -86c-30 46 -82 79 -159 79c-69 0 -120 -27 -120 -87c0 -62 54 -91 131 -95c18 -1 58 -1 70 -1v-113l-81 -2
c-92 -4 -148 -26 -148 -100c0 -86 78 -110 185 -111c42 -1 81 -2 115 -14c74 -25 124 -97 98 -219h-106z" />
    <glyph glyph-name="omicron" unicode="&#x3bf;" horiz-adv-x="618" 
d="M309 -15c-163 0 -269 118 -269 285c0 169 109 285 269 285c162 0 269 -118 269 -285c0 -168 -108 -285 -269 -285zM309 98c95 0 142 71 142 172c0 105 -48 172 -142 172c-97 0 -141 -70 -141 -172c0 -105 48 -172 141 -172z" />
    <glyph glyph-name="pi" unicode="&#x3c0;" horiz-adv-x="675" 
d="M123 0v433h-86v107h601v-107h-86v-433h-121v433h-187v-433h-121z" />
    <glyph glyph-name="rho" unicode="&#x3c1;" horiz-adv-x="635" 
d="M69 -240v472c0 36 0 71 6 104c22 130 115 219 259 219c167 0 261 -121 261 -283c0 -165 -96 -287 -248 -287c-65 0 -121 23 -157 59v-284h-121zM331 93c96 0 144 73 144 178c0 106 -48 176 -144 176c-97 0 -141 -71 -141 -177c0 -107 47 -177 141 -177z" />
    <glyph glyph-name="uni03C2" unicode="&#x3c2;" horiz-adv-x="576" 
d="M427 -120c2 117 -60 117 -154 120c-139 5 -233 93 -233 259c0 182 102 296 266 296c123 0 213 -65 239 -172l-120 -33c-19 58 -63 92 -124 92c-90 0 -125 -74 -125 -174c0 -85 24 -154 143 -155c24 0 83 0 123 -14c74 -26 109 -106 91 -219h-106z" />
    <glyph glyph-name="sigma" unicode="&#x3c3;" horiz-adv-x="637" 
d="M608 540v-107h-83c32 -44 53 -104 53 -170c0 -157 -109 -278 -269 -278c-161 0 -269 122 -269 278c0 135 78 240 200 269c35 8 81 8 142 8h226zM309 98c94 0 142 71 142 165c0 93 -49 164 -142 164c-97 0 -141 -74 -141 -164c0 -98 49 -165 141 -165z" />
    <glyph glyph-name="tau" unicode="&#x3c4;" horiz-adv-x="553" 
d="M337 -4c-40 7 -80 21 -109 68c-27 45 -22 88 -22 157v212h-181v107h482v-107h-181v-206c0 -44 -2 -75 11 -97s36 -31 59 -33c27 -2 60 0 88 4v-101c-40 -11 -109 -11 -147 -4z" />
    <glyph glyph-name="upsilon" unicode="&#x3c5;" horiz-adv-x="616" 
d="M60 247v293h122v-260c0 -67 11 -182 126 -182c116 0 126 115 126 182v260h122v-293c0 -101 -16 -262 -248 -262s-248 161 -248 262z" />
    <glyph glyph-name="phi" unicode="&#x3c6;" horiz-adv-x="756" 
d="M323 -225v216c-158 -25 -283 79 -283 279c0 199 125 304 283 279v163h107v-163c158 25 283 -80 283 -279c0 -200 -125 -304 -283 -279v-216h-107zM323 99v342c-108 18 -160 -53 -160 -171s56 -189 160 -171zM430 99c104 -18 161 50 161 171s-53 189 -161 171v-342z" />
    <glyph glyph-name="chi" unicode="&#x3c7;" horiz-adv-x="554" 
d="M10 0l198 273l-194 267h142l122 -173l119 173h142l-193 -267l198 -273h-142l-124 179l-126 -179h-142z" />
    <glyph glyph-name="psi" unicode="&#x3c8;" horiz-adv-x="733" 
d="M309 -225v198c-115 5 -212 52 -240 171c-7 27 -9 58 -9 77v319h113v-299c0 -12 0 -37 7 -63c18 -71 69 -92 129 -93v455h115v-455c63 1 117 29 132 100c5 23 5 46 5 56v299h112v-319c0 -23 -1 -48 -9 -76c-29 -119 -125 -167 -240 -172v-198h-115z" />
    <glyph glyph-name="omega" unicode="&#x3c9;" horiz-adv-x="798" 
d="M607 555c99 -62 151 -175 151 -301c0 -150 -76 -269 -212 -269c-61 0 -118 23 -147 89c-29 -66 -86 -89 -146 -89c-139 0 -213 122 -213 270c0 127 54 239 151 300l82 -96c-74 -57 -105 -111 -105 -199c0 -92 35 -161 101 -161c72 0 74 83 74 186v57h112v-57
c0 -105 3 -186 74 -186c68 0 101 72 101 161c0 91 -33 144 -105 199z" />
    <glyph glyph-name="iotatonos" unicode="&#x3af;" horiz-adv-x="405" 
d="M81 615l38 120h119l-38 -120h-119zM211 -4c-39 7 -79 21 -108 68c-28 45 -23 88 -23 157v319h120v-313c0 -44 -2 -75 11 -97c14 -22 37 -31 59 -33c27 -2 60 0 89 4v-101c-41 -11 -110 -11 -148 -4z" />
    <glyph glyph-name="iotadieresis" unicode="&#x3ca;" horiz-adv-x="402" 
d="M-18 615v110h110v-110h-110zM189 615v110h110v-110h-110zM211 -4c-39 7 -79 21 -108 68c-28 45 -23 88 -23 157v319h120v-313c0 -44 -2 -75 11 -97c14 -22 37 -31 59 -33c27 -2 60 0 89 4v-101c-41 -11 -110 -11 -148 -4z" />
    <glyph glyph-name="iotadieresistonos" unicode="&#x390;" horiz-adv-x="488" 
d="M160 615l38 120h119l-38 -120h-119zM31 615v110h97v-110h-97zM348 615v110h97v-110h-97zM294 -4c-40 7 -80 21 -109 68c-28 45 -22 88 -22 157v319h120v-313c0 -44 -2 -75 11 -97s36 -31 59 -33c27 -2 60 0 88 4v-101c-40 -11 -109 -11 -147 -4z" />
    <glyph glyph-name="upsilontonos" unicode="&#x3cd;" horiz-adv-x="616" 
d="M260 615l38 120h119l-38 -120h-119zM60 247v293h122v-260c0 -67 11 -182 126 -182c116 0 126 115 126 182v260h122v-293c0 -101 -16 -262 -248 -262s-248 161 -248 262z" />
    <glyph glyph-name="upsilondieresis" unicode="&#x3cb;" horiz-adv-x="616" 
d="M150 615v110h110v-110h-110zM357 615v110h110v-110h-110zM60 247v293h122v-260c0 -67 11 -182 126 -182c116 0 126 115 126 182v260h122v-293c0 -101 -16 -262 -248 -262s-248 161 -248 262z" />
    <glyph glyph-name="upsilondieresistonos" unicode="&#x3b0;" horiz-adv-x="616" 
d="M230 615l38 120h119l-38 -120h-119zM101 615v110h97v-110h-97zM418 615v110h98v-110h-98zM60 247v293h122v-260c0 -67 11 -182 126 -182c116 0 126 115 126 182v260h122v-293c0 -101 -16 -262 -248 -262s-248 161 -248 262z" />
    <glyph glyph-name="omicrontonos" unicode="&#x3cc;" horiz-adv-x="618" 
d="M247 615l38 120h119l-38 -120h-119zM309 -15c-163 0 -269 118 -269 285c0 169 109 285 269 285c162 0 269 -118 269 -285c0 -168 -108 -285 -269 -285zM309 98c95 0 142 71 142 172c0 105 -48 172 -142 172c-97 0 -141 -70 -141 -172c0 -105 48 -172 141 -172z" />
    <glyph glyph-name="omegatonos" unicode="&#x3ce;" horiz-adv-x="798" 
d="M495 735l-38 -120h-119l38 120h119zM607 555c99 -62 151 -175 151 -301c0 -150 -76 -269 -212 -269c-61 0 -118 23 -147 89c-29 -66 -86 -89 -146 -89c-139 0 -213 122 -213 270c0 127 54 239 151 300l82 -96c-74 -57 -105 -111 -105 -199c0 -92 35 -161 101 -161
c72 0 74 83 74 186v57h112v-57c0 -105 3 -186 74 -186c68 0 101 72 101 161c0 91 -33 144 -105 199z" />
    <glyph glyph-name="alphatonos" unicode="&#x3ac;" horiz-adv-x="611" 
d="M416 735l-38 -120h-119l38 120h119zM452 540h107v-540h-107v55c-38 -44 -95 -70 -163 -70c-153 0 -249 123 -249 285c0 164 98 285 253 285c68 0 122 -25 159 -69v54zM308 93c93 0 132 72 132 177s-39 177 -131 177c-90 0 -141 -69 -141 -178c0 -97 42 -176 140 -176z
" />
    <glyph glyph-name="epsilontonos" unicode="&#x3ad;" horiz-adv-x="520" 
d="M361 735l-38 -120h-119l38 120h119zM404 170l95 -63c-49 -76 -138 -122 -241 -122c-118 0 -218 62 -218 174c0 52 21 97 60 124c-30 34 -43 70 -43 111c0 106 94 161 198 161c83 0 159 -33 219 -86l-68 -83c-40 32 -93 57 -145 57c-43 0 -80 -17 -80 -60
c0 -48 46 -57 107 -57h39v-95h-40c-65 0 -124 -1 -124 -59c0 -46 37 -74 97 -74c58 0 105 26 144 72z" />
    <glyph glyph-name="etatonos" unicode="&#x3ae;" horiz-adv-x="626" 
d="M264 615l38 120h119l-38 -120h-119zM353 555c199 0 213 -189 213 -253v-302h-122v260c0 67 -11 182 -127 182c-61 0 -126 -33 -126 -164v-278h-122v540h108v-60c39 47 98 75 176 75z" />
    <glyph glyph-name="zero" unicode="0" horiz-adv-x="658" 
d="M329 -15c-153 0 -259 106 -259 259v232c0 153 106 259 259 259s259 -106 259 -259v-232c0 -153 -106 -259 -259 -259zM329 100c76 0 136 60 136 136v249c0 76 -60 136 -136 136s-136 -60 -136 -136v-249c0 -76 60 -136 136 -136z" />
    <glyph glyph-name="one" unicode="1" horiz-adv-x="438" 
d="M195 0v589l-135 -83v133l135 81h123v-720h-123z" />
    <glyph glyph-name="two" unicode="2" horiz-adv-x="596" 
d="M421 278l-184 -163h309v-114h-496v105l308 275c48 42 64 79 64 115c0 72 -49 125 -121 125c-75 0 -128 -58 -126 -124h-124c0 144 104 238 252 238c139 0 243 -100 243 -240c0 -103 -43 -145 -125 -217z" />
    <glyph glyph-name="three" unicode="3" horiz-adv-x="582" 
d="M348 450c110 -23 174 -116 174 -225c0 -136 -111 -238 -246 -238c-108 0 -205 66 -236 171l117 32c16 -58 65 -90 119 -90c70 1 123 55 123 125c0 71 -51 126 -124 126c-21 0 -43 -7 -62 -17l-55 95l207 177h-297v114h442v-114z" />
    <glyph glyph-name="four" unicode="4" horiz-adv-x="609" 
d="M369 0v119h-319v113l231 488h137l-230 -488h181v187h122v-187h68v-113h-68v-119h-122z" />
    <glyph glyph-name="five" unicode="5" horiz-adv-x="586" 
d="M305 462c135 0 231 -100 231 -235s-117 -242 -252 -242c-110 0 -204 73 -234 178l116 31c15 -57 68 -93 122 -93c70 0 127 56 127 126s-58 126 -127 126c-55 0 -91 -25 -110 -47l-103 33l22 381h391v-113h-285l-10 -177c34 21 75 32 112 32z" />
    <glyph glyph-name="six" unicode="6" horiz-adv-x="622" 
d="M337 463c135 0 231 -101 231 -236c0 -136 -113 -242 -249 -242c-141 0 -249 108 -249 261v219c0 164 105 269 263 269c73 0 139 -24 190 -76l-87 -85c-26 30 -64 48 -103 48c-84 0 -140 -67 -140 -139v-74c39 35 91 55 144 55zM319 100c70 0 127 57 127 127
s-56 127 -126 127s-127 -57 -127 -127c0 -69 56 -127 126 -127z" />
    <glyph glyph-name="seven" unicode="7" horiz-adv-x="534" 
d="M107 0l247 606h-314v114h444v-114l-247 -606h-130z" />
    <glyph glyph-name="eight" unicode="8" horiz-adv-x="612" 
d="M471 386c53 -41 81 -105 81 -173c0 -134 -103 -228 -246 -228c-144 0 -246 94 -246 228c0 68 28 131 81 173c-40 39 -62 88 -62 145c0 124 94 204 227 204s227 -80 227 -204c0 -57 -21 -105 -62 -145zM306 622c-59 0 -100 -30 -100 -91c0 -60 41 -89 100 -89s99 29 99 89
c0 61 -40 91 -99 91zM306 99c70 0 119 39 119 114c0 74 -48 114 -119 114s-119 -40 -119 -114c0 -75 48 -114 119 -114z" />
    <glyph glyph-name="nine" unicode="9" horiz-adv-x="622" 
d="M303 734c141 0 249 -108 249 -261v-219c0 -164 -105 -269 -262 -269c-73 0 -140 24 -191 77l87 84c26 -30 64 -48 104 -48c83 0 139 67 139 139v74c-39 -35 -91 -54 -144 -54c-135 0 -231 100 -231 235c0 136 114 242 249 242zM302 365c70 0 127 57 127 127
c0 69 -56 127 -126 127s-127 -57 -127 -127s56 -127 126 -127z" />
    <glyph glyph-name="zero.tf" horiz-adv-x="620" 
d="M310 -15c-153 0 -259 106 -259 259v232c0 153 106 259 259 259c154 0 259 -106 259 -259v-232c0 -153 -105 -259 -259 -259zM310 100c77 0 137 60 137 136v249c0 76 -60 136 -137 136c-76 0 -136 -60 -136 -136v-249c0 -76 60 -136 136 -136z" />
    <glyph glyph-name="one.tf" horiz-adv-x="620" 
d="M289 0v589l-135 -83v133l135 81h123v-720h-123z" />
    <glyph glyph-name="two.tf" horiz-adv-x="620" 
d="M432 278l-184 -163h309v-114h-496l1 105l307 275c48 42 64 79 64 115c0 72 -49 125 -121 125c-74 0 -127 -58 -126 -124h-123c0 144 103 238 252 238c138 0 242 -100 242 -240c0 -103 -43 -145 -125 -217z" />
    <glyph glyph-name="three.tf" horiz-adv-x="620" 
d="M367 450c110 -23 174 -116 174 -225c0 -136 -110 -238 -245 -238c-108 0 -205 66 -236 171l116 32c17 -58 66 -90 119 -90c71 1 124 55 124 125c0 71 -51 126 -124 126c-21 0 -43 -7 -62 -17l-55 95l207 177h-297v114h441v-114z" />
    <glyph glyph-name="four.tf" horiz-adv-x="620" 
d="M382 0v119h-319v113l230 488h138l-231 -488h182v187h122v-187h67v-113h-67v-119h-122z" />
    <glyph glyph-name="five.tf" horiz-adv-x="620" 
d="M322 462c135 0 232 -100 232 -235s-118 -242 -253 -242c-110 0 -204 73 -234 178l116 31c15 -57 69 -93 122 -93c71 0 127 56 127 126s-58 126 -127 126c-55 0 -91 -25 -110 -47l-103 33l22 381h391v-113h-284l-11 -177c34 21 75 32 112 32z" />
    <glyph glyph-name="six.tf" horiz-adv-x="620" 
d="M327 463c136 0 232 -101 232 -236c0 -136 -114 -242 -249 -242c-141 0 -249 108 -249 261v219c0 164 105 269 262 269c73 0 140 -24 191 -76l-87 -85c-26 30 -64 48 -104 48c-83 0 -139 -67 -139 -139v-74c39 35 90 55 143 55zM310 100c70 0 127 57 127 127
s-56 127 -126 127s-127 -57 -127 -127c0 -69 56 -127 126 -127z" />
    <glyph glyph-name="seven.tf" horiz-adv-x="620" 
d="M157 0l247 606h-314v114h443v-114l-246 -606h-130z" />
    <glyph glyph-name="eight.tf" horiz-adv-x="620" 
d="M475 386c53 -41 81 -105 81 -173c0 -134 -103 -228 -247 -228c-143 0 -245 94 -245 228c0 69 27 131 81 174c-40 39 -63 87 -63 144c0 124 94 204 227 204s227 -80 227 -204c0 -57 -20 -105 -61 -145zM309 622c-59 0 -99 -30 -99 -91c0 -60 40 -89 99 -89s100 29 100 89
c0 61 -41 91 -100 91zM309 99c71 0 119 39 119 114c0 74 -48 114 -119 114s-118 -40 -118 -114c0 -75 48 -114 118 -114z" />
    <glyph glyph-name="nine.tf" horiz-adv-x="620" 
d="M310 735c141 0 249 -108 249 -261v-219c0 -164 -105 -269 -262 -269c-73 0 -140 24 -191 77l87 84c26 -30 64 -48 104 -48c84 0 139 67 139 139v74c-39 -35 -90 -54 -143 -54c-136 0 -232 100 -232 235c0 136 114 242 249 242zM309 366c70 0 127 57 127 127
c0 69 -56 127 -126 127s-127 -57 -127 -127s56 -127 126 -127z" />
    <glyph glyph-name="uni2080" unicode="&#x2080;" horiz-adv-x="468" 
d="M234 -11c-99 0 -164 65 -164 173v124c0 105 65 173 164 173s164 -65 164 -173v-124c0 -107 -61 -173 -164 -173zM234 62c53 0 85 37 85 100v124c0 60 -30 100 -85 100c-52 0 -84 -38 -84 -100v-124c0 -59 29 -100 84 -100z" />
    <glyph glyph-name="uni2081" unicode="&#x2081;" horiz-adv-x="344" 
d="M144 0v365l-84 -51v85l84 51h79v-450h-79z" />
    <glyph glyph-name="uni2082" unicode="&#x2082;" horiz-adv-x="412" 
d="M283 173l-112 -100h191v-73h-312v68l192 171c29 26 40 49 40 71c0 44 -30 77 -74 77c-46 0 -79 -36 -77 -76h-80c0 91 64 149 159 149c87 0 152 -62 152 -151c0 -65 -27 -91 -79 -136z" />
    <glyph glyph-name="uni2083" unicode="&#x2083;" horiz-adv-x="404" 
d="M237 280c68 -15 107 -73 107 -141c0 -86 -70 -150 -155 -150c-68 0 -130 42 -149 109l76 20c10 -36 40 -55 73 -55c43 1 76 33 76 76c0 44 -32 77 -76 77c-14 0 -27 -4 -38 -10l-36 61l127 109h-184v74h279v-74z" />
    <glyph glyph-name="uni2084" unicode="&#x2084;" horiz-adv-x="419" 
d="M249 0v73h-199v74l144 303h89l-144 -303h110v115h78v-115h42v-74h-42v-73h-78z" />
    <glyph glyph-name="uni2085" unicode="&#x2085;" horiz-adv-x="405" 
d="M210 288c85 0 145 -61 145 -147c0 -84 -73 -151 -159 -151c-68 0 -127 45 -146 111l75 20c9 -35 41 -57 74 -57c43 0 77 35 77 77c0 43 -35 78 -77 78c-33 0 -56 -16 -67 -29l-66 21l13 239h245v-72h-176l-6 -108c21 12 46 18 68 18z" />
    <glyph glyph-name="uni2086" unicode="&#x2086;" horiz-adv-x="439" 
d="M239 287c86 0 146 -62 146 -148s-71 -152 -157 -152c-90 0 -158 67 -158 164v137c0 105 66 171 167 171c45 0 86 -14 119 -47l-56 -55c-17 18 -39 29 -63 29c-53 0 -87 -42 -87 -87v-45c25 22 56 33 89 33zM228 61c43 0 78 34 78 78c0 43 -35 78 -78 78s-78 -35 -78 -78
c0 -42 34 -78 78 -78z" />
    <glyph glyph-name="uni2087" unicode="&#x2087;" horiz-adv-x="369" 
d="M81 0l155 377h-196v73h279v-73l-153 -377h-85z" />
    <glyph glyph-name="uni2088" unicode="&#x2088;" horiz-adv-x="432" 
d="M320 240c33 -26 52 -66 52 -110c0 -83 -66 -143 -156 -143c-91 0 -156 60 -156 143c0 44 18 83 51 110c-25 24 -39 54 -39 91c0 77 59 128 144 128c84 0 143 -51 143 -128c0 -37 -13 -67 -39 -91zM216 386c-37 0 -61 -18 -61 -55c0 -38 24 -55 61 -55c36 0 60 17 60 55
c0 37 -24 55 -60 55zM216 61c43 0 73 24 73 69c0 47 -30 71 -73 71c-44 0 -73 -24 -73 -71c0 -45 29 -69 73 -69z" />
    <glyph glyph-name="uni2089" unicode="&#x2089;" horiz-adv-x="439" 
d="M211 459c90 0 158 -67 158 -164v-137c0 -105 -67 -171 -167 -171c-46 0 -87 14 -120 47l57 55c16 -18 39 -29 63 -29c52 0 86 42 86 87v44c-24 -21 -56 -32 -89 -32c-85 0 -146 63 -146 148c0 86 72 152 158 152zM211 230c42 0 77 34 77 77c0 42 -34 78 -77 78
s-78 -34 -78 -78c0 -43 35 -77 78 -77z" />
    <glyph glyph-name="uni2070" unicode="&#x2070;" horiz-adv-x="468" 
d="M234 259c-99 0 -164 65 -164 173v124c0 105 65 173 164 173s164 -65 164 -173v-124c0 -107 -61 -173 -164 -173zM234 332c53 0 85 37 85 100v124c0 60 -30 100 -85 100c-52 0 -84 -38 -84 -100v-124c0 -59 29 -100 84 -100z" />
    <glyph glyph-name="uni00B9" unicode="&#xb9;" horiz-adv-x="344" 
d="M144 270v365l-84 -51v85l84 51h79v-450h-79z" />
    <glyph glyph-name="uni00B2" unicode="&#xb2;" horiz-adv-x="412" 
d="M283 443l-112 -100h191v-73h-312v68l192 171c29 26 40 49 40 71c0 44 -30 77 -74 77c-46 0 -79 -36 -77 -76h-80c0 91 64 149 159 149c87 0 152 -62 152 -151c0 -65 -27 -91 -79 -136z" />
    <glyph glyph-name="uni00B3" unicode="&#xb3;" horiz-adv-x="404" 
d="M237 550c68 -15 107 -73 107 -141c0 -86 -70 -150 -155 -150c-68 0 -130 42 -149 109l76 20c10 -36 40 -55 73 -55c43 1 76 33 76 76c0 44 -32 77 -76 77c-14 0 -27 -4 -38 -10l-36 61l127 109h-184v74h279v-74z" />
    <glyph glyph-name="uni2074" unicode="&#x2074;" horiz-adv-x="419" 
d="M249 270v73h-199v74l144 303h89l-144 -303h110v115h78v-115h42v-74h-42v-73h-78z" />
    <glyph glyph-name="uni2075" unicode="&#x2075;" horiz-adv-x="405" 
d="M210 558c85 0 145 -61 145 -147c0 -84 -73 -151 -159 -151c-68 0 -127 45 -146 111l75 20c9 -35 41 -57 74 -57c43 0 77 35 77 77c0 43 -35 78 -77 78c-33 0 -56 -16 -67 -29l-66 21l13 239h245v-72h-176l-6 -108c21 12 46 18 68 18z" />
    <glyph glyph-name="uni2076" unicode="&#x2076;" horiz-adv-x="439" 
d="M239 557c86 0 146 -62 146 -148s-71 -152 -157 -152c-90 0 -158 67 -158 164v137c0 105 66 171 167 171c45 0 86 -14 119 -47l-56 -55c-17 18 -39 29 -63 29c-53 0 -87 -42 -87 -87v-45c25 22 56 33 89 33zM228 331c43 0 78 34 78 78c0 43 -35 78 -78 78s-78 -35 -78 -78
c0 -42 34 -78 78 -78z" />
    <glyph glyph-name="uni2077" unicode="&#x2077;" horiz-adv-x="369" 
d="M81 270l155 377h-196v73h279v-73l-153 -377h-85z" />
    <glyph glyph-name="uni2078" unicode="&#x2078;" horiz-adv-x="432" 
d="M320 510c33 -26 52 -66 52 -110c0 -83 -66 -143 -156 -143c-91 0 -156 60 -156 143c0 44 18 83 51 110c-25 24 -39 54 -39 91c0 77 59 128 144 128c84 0 143 -51 143 -128c0 -37 -13 -67 -39 -91zM216 656c-37 0 -61 -18 -61 -55c0 -38 24 -55 61 -55c36 0 60 17 60 55
c0 37 -24 55 -60 55zM216 331c43 0 73 24 73 69c0 47 -30 71 -73 71c-44 0 -73 -24 -73 -71c0 -45 29 -69 73 -69z" />
    <glyph glyph-name="uni2079" unicode="&#x2079;" horiz-adv-x="439" 
d="M211 729c90 0 158 -67 158 -164v-137c0 -105 -66 -171 -167 -171c-45 0 -86 14 -119 47l56 55c17 -18 39 -29 63 -29c53 0 87 42 87 87v45c-25 -22 -56 -33 -89 -33c-86 0 -146 63 -146 148c0 86 71 152 157 152zM211 500c43 0 78 34 78 77c0 42 -34 78 -78 78
c-43 0 -78 -34 -78 -78c0 -43 35 -77 78 -77z" />
    <glyph glyph-name="fraction" unicode="&#x2044;" horiz-adv-x="258" 
d="M-82 0l-71 53l493 673l71 -53z" />
    <glyph glyph-name="onehalf" unicode="&#xbd;" horiz-adv-x="1014" 
d="M684 726l71 -53l-493 -673l-70 53zM223 270h-79v365l-84 -51v85l84 51h79v-450zM885 173l-112 -100h191v-73h-312v68l192 171c29 26 40 49 40 71c0 44 -30 77 -74 77c-46 0 -79 -36 -77 -76h-80c0 91 64 149 159 149c87 0 152 -62 152 -151c0 -65 -27 -91 -79 -136z" />
    <glyph glyph-name="onequarter" unicode="&#xbc;" horiz-adv-x="1035" 
d="M261 0l-70 53l493 673l70 -53zM144 270v365l-84 -51v85l84 51h79v-450h-79zM795 0v73h-199v74l144 303h89l-143 -303h109v115h79v-115h41v-74h-41v-73h-79z" />
    <glyph glyph-name="threequarters" unicode="&#xbe;" horiz-adv-x="1028" 
d="M745 726l70 -53l-493 -673l-70 53zM344 409c0 -86 -70 -150 -155 -150c-68 0 -130 42 -149 109l76 20c10 -36 40 -55 73 -55c43 1 76 33 76 76c0 44 -32 77 -76 77c-14 0 -27 -4 -38 -10l-36 61l127 109h-184v74h279v-74l-100 -96c68 -15 107 -73 107 -141zM926 147h42
v-74h-42v-73h-78v73h-199v74l143 303h90l-144 -303h110v115h78v-115z" />
    <glyph glyph-name="period" unicode="." horiz-adv-x="303" 
d="M90 0v123h123v-123h-123z" />
    <glyph glyph-name="comma" unicode="," horiz-adv-x="303" 
d="M60 -127l7 51c46 -3 63 31 57 76h-64v128h123v-133c0 -87 -41 -136 -123 -122z" />
    <glyph glyph-name="colon" unicode=":" horiz-adv-x="343" 
d="M111 352v123h123v-123h-123zM110 65v123h123v-123h-123z" />
    <glyph glyph-name="semicolon" unicode=";" horiz-adv-x="343" 
d="M110 417v123h123v-123h-123zM110 -127l7 51c46 -3 63 31 57 76h-64v128h123v-133c0 -87 -41 -136 -123 -122z" />
    <glyph glyph-name="ellipsis" unicode="&#x2026;" horiz-adv-x="710" 
d="M80 0v123h123v-123h-123zM293 0v123h124v-123h-124zM507 0v123h123v-123h-123z" />
    <glyph glyph-name="exclam" unicode="!" horiz-adv-x="360" 
d="M120 180v540h120v-540h-120zM120 0v111h120v-111h-120z" />
    <glyph glyph-name="exclamdown" unicode="&#xa1;" horiz-adv-x="360" 
d="M120 540h120v-111h-120v111zM120 360h120v-540h-120v540z" />
    <glyph glyph-name="question" unicode="?" horiz-adv-x="553" 
d="M201 195c0 46 8 90 29 127c26 53 62 63 112 116c27 30 34 58 34 93c0 22 -5 41 -16 56c-19 24 -50 34 -83 34c-28 0 -55 -7 -72 -22c-20 -16 -29 -40 -28 -68h-127c7 66 37 127 86 161c38 28 88 42 136 42c73 0 142 -21 185 -73c30 -34 46 -81 46 -127
c0 -69 -33 -125 -78 -172c-32 -34 -61 -54 -78 -82c-19 -31 -19 -46 -19 -85h-127zM201 0v133h127v-133h-127z" />
    <glyph glyph-name="questiondown" unicode="&#xbf;" horiz-adv-x="553" 
d="M352 540v-132h-127v132h127zM353 345c0 -46 -8 -90 -29 -127c-27 -52 -62 -63 -113 -116c-27 -30 -33 -58 -33 -93c0 -22 4 -41 16 -56c18 -24 50 -34 83 -34c27 0 54 7 71 22c20 16 29 40 28 68h127c-7 -66 -37 -127 -86 -161c-38 -28 -88 -42 -136 -42
c-73 0 -142 21 -185 73c-30 34 -46 81 -46 127c0 69 33 125 78 172c32 34 62 55 78 82c19 31 19 46 19 85h128z" />
    <glyph glyph-name="periodcentered" unicode="&#xb7;" horiz-adv-x="267" 
d="M135 242c-42 0 -75 31 -75 73s33 73 75 73c39 0 72 -31 72 -73s-33 -73 -72 -73z" />
    <glyph glyph-name="bullet" unicode="&#x2022;" horiz-adv-x="703" 
d="M355 173c-81 0 -145 62 -145 142c0 81 64 142 145 142c75 0 138 -61 138 -142c0 -80 -63 -142 -138 -142z" />
    <glyph glyph-name="asterisk" unicode="*" horiz-adv-x="465" 
d="M155 364l-87 62l75 89l-113 30l33 102l108 -45l-7 118h107l-8 -118l109 45l33 -102l-114 -30l75 -89l-86 -62l-63 97z" />
    <glyph glyph-name="numbersign" unicode="#" horiz-adv-x="931" 
d="M189 1l52 195h-181l30 114h182l31 117h-182l31 113h181l49 180h117l-49 -180h123l49 180h117l-49 -180h181l-30 -113h-181l-32 -117h181l-30 -114h-181l-52 -195h-117l52 195h-123l-52 -195h-117zM389 310h122l32 117h-123z" />
    <glyph glyph-name="slash" unicode="/" horiz-adv-x="433" 
d="M252 720h121l-192 -720h-121z" />
    <glyph glyph-name="backslash" unicode="\" horiz-adv-x="433" 
d="M181 720l192 -720h-121l-192 720h121z" />
    <glyph glyph-name="colon.case" horiz-adv-x="343" 
d="M111 472v123h123v-123h-123zM110 125v123h123v-123h-123z" />
    <glyph glyph-name="exclamdown.case" horiz-adv-x="360" 
d="M120 720h120v-111h-120v111zM120 540h120v-540h-120v540z" />
    <glyph glyph-name="questiondown.case" horiz-adv-x="553" 
d="M352 720v-132h-127v132h127zM353 525c0 -46 -8 -90 -29 -127c-27 -52 -62 -63 -113 -116c-27 -30 -33 -58 -33 -93c0 -21 4 -41 16 -56c18 -24 50 -33 83 -33c27 0 54 6 71 21c20 16 29 40 28 68h127c-7 -66 -37 -127 -86 -161c-38 -28 -88 -42 -136 -42
c-73 0 -142 21 -185 73c-30 34 -46 81 -46 127c0 69 33 125 78 172c32 34 62 55 78 82c19 31 19 46 19 85h128z" />
    <glyph glyph-name="periodcentered.case" horiz-adv-x="267" 
d="M135 287c-42 0 -75 31 -75 73s33 73 75 73c39 0 72 -31 72 -73s-33 -73 -72 -73z" />
    <glyph glyph-name="parenleft" unicode="(" horiz-adv-x="453" 
d="M323 -190c-116 135 -186 334 -183 520c-3 187 67 385 183 520l89 -66c-120 -144 -162 -293 -163 -454c1 -160 43 -310 163 -454z" />
    <glyph glyph-name="parenright" unicode=")" horiz-adv-x="453" 
d="M130 -190l-89 66c120 144 162 294 163 454c-1 161 -42 310 -163 454l89 66c117 -135 186 -333 183 -520c3 -186 -66 -385 -183 -520z" />
    <glyph glyph-name="braceleft" unicode="{" horiz-adv-x="449" 
d="M340 -212c-86 0 -140 54 -140 140v300c0 8 -2 15 -6 20l-44 63c-13 19 -13 44 0 64l44 62c4 6 6 13 6 20v300c0 86 54 140 140 140h68v-114h-59c-20 0 -35 -15 -35 -34v-292c0 -31 -9 -60 -27 -85l-22 -29l22 -30c18 -25 27 -54 27 -85v-292c0 -20 15 -35 35 -35h59v-113
h-68z" />
    <glyph glyph-name="braceright" unicode="}" horiz-adv-x="449" 
d="M109 -212h-68v113h60c19 0 34 15 34 35v292c0 31 10 60 28 85l21 30l-21 29c-18 25 -28 54 -28 85v292c0 19 -15 34 -34 34h-60v114h68c86 0 140 -54 140 -140v-300c0 -7 2 -14 6 -20l44 -62c14 -20 14 -45 0 -64l-44 -63c-4 -5 -6 -12 -6 -20v-300
c0 -86 -54 -140 -140 -140z" />
    <glyph glyph-name="bracketleft" unicode="[" horiz-adv-x="424" 
d="M140 -212v1109h219v-107h-112v-895h112v-107h-219z" />
    <glyph glyph-name="bracketright" unicode="]" horiz-adv-x="424" 
d="M284 -212h-218v107h111v895h-111v107h218v-1109z" />
    <glyph glyph-name="parenleft.case" horiz-adv-x="453" 
d="M323 -160c-116 135 -186 334 -183 520c-3 187 67 385 183 520l89 -66c-120 -144 -162 -293 -163 -454c1 -160 43 -310 163 -454z" />
    <glyph glyph-name="parenright.case" horiz-adv-x="453" 
d="M130 -160l-89 66c120 144 162 294 163 454c-1 161 -42 310 -163 454l89 66c117 -135 186 -333 183 -520c3 -186 -66 -385 -183 -520z" />
    <glyph glyph-name="braceleft.case" horiz-adv-x="449" 
d="M340 -195c-86 0 -140 54 -140 140v301c0 7 -2 14 -6 19l-44 63c-13 20 -13 45 0 64l44 63c4 6 6 12 6 19v301c0 85 54 140 140 140h68v-114h-59c-20 0 -35 -16 -35 -35v-292c0 -30 -9 -59 -27 -85l-22 -29l22 -29c18 -26 27 -55 27 -85v-292c0 -20 15 -36 35 -36h59v-113
h-68z" />
    <glyph glyph-name="braceright.case" horiz-adv-x="449" 
d="M109 -195h-68v113h60c19 0 34 16 34 36v292c0 30 10 59 28 85l21 29l-21 29c-18 26 -28 55 -28 85v292c0 19 -15 35 -34 35h-60v114h68c86 0 140 -55 140 -140v-301c0 -7 2 -13 6 -19l44 -63c14 -19 14 -44 0 -64l-44 -63c-4 -5 -6 -12 -6 -19v-301
c0 -86 -54 -140 -140 -140z" />
    <glyph glyph-name="bracketleft.case" horiz-adv-x="424" 
d="M140 -195v1110h219v-107h-112v-896h112v-107h-219z" />
    <glyph glyph-name="bracketright.case" horiz-adv-x="424" 
d="M284 -195h-218v107h111v896h-111v107h218v-1110z" />
    <glyph glyph-name="hyphen" unicode="-" horiz-adv-x="420" 
d="M60 268v95h300v-95h-300z" />
    <glyph glyph-name="uni00AD" unicode="&#xad;" horiz-adv-x="420" 
d="M60 268v95h300v-95h-300z" />
    <glyph glyph-name="endash" unicode="&#x2013;" horiz-adv-x="540" 
d="M60 268v95h420v-95h-420z" />
    <glyph glyph-name="emdash" unicode="&#x2014;" horiz-adv-x="780" 
d="M60 268v95h660v-95h-660z" />
    <glyph glyph-name="uni2011" unicode="&#x2011;" horiz-adv-x="420" 
d="M60 268v95h300v-95h-300z" />
    <glyph glyph-name="underscore" unicode="_" horiz-adv-x="660" 
d="M0 -122v95h660v-95h-660z" />
    <glyph glyph-name="hyphen.case" horiz-adv-x="420" 
d="M60 313v95h300v-95h-300z" />
    <glyph glyph-name="endash.case" horiz-adv-x="540" 
d="M60 313v95h420v-95h-420z" />
    <glyph glyph-name="emdash.case" horiz-adv-x="780" 
d="M60 313v95h660v-95h-660z" />
    <glyph glyph-name="quotesinglbase" unicode="&#x201a;" horiz-adv-x="303" 
d="M60 -127l7 51c46 -3 63 31 57 76h-64v128h123v-133c0 -87 -41 -136 -123 -122z" />
    <glyph glyph-name="quotedblbase" unicode="&#x201e;" horiz-adv-x="451" 
d="M80 -127l7 51c46 -3 63 31 57 76h-64v128h123v-133c0 -87 -41 -136 -123 -122zM248 -127l7 51c46 -3 62 31 56 76h-63v128h123v-133c0 -87 -41 -136 -123 -122z" />
    <glyph glyph-name="quotedblleft" unicode="&#x201c;" horiz-adv-x="451" 
d="M203 721l-7 -51c-46 3 -62 -31 -57 -76h64v-128h-123v133c0 87 41 136 123 122zM371 721l-7 -51c-46 3 -63 -31 -57 -76h64v-128h-124v133c0 87 42 136 124 122z" />
    <glyph glyph-name="quotedblright" unicode="&#x201d;" horiz-adv-x="451" 
d="M80 466l7 52c46 -4 63 30 57 75h-64v129h123v-134c0 -87 -41 -136 -123 -122zM248 466l7 52c46 -4 62 30 56 75h-63v129h123v-134c0 -87 -41 -136 -123 -122z" />
    <glyph glyph-name="quoteleft" unicode="&#x2018;" horiz-adv-x="284" 
d="M199 464c-82 -13 -123 35 -123 123v133h123v-128h-64c-5 -46 11 -79 57 -76z" />
    <glyph glyph-name="quoteright" unicode="&#x2019;" horiz-adv-x="284" 
d="M85 464l7 52c46 -3 63 30 57 76h-64v128h123v-133c0 -88 -41 -136 -123 -123z" />
    <glyph glyph-name="uni201F" unicode="&#x201f;" horiz-adv-x="451" 
d="M204 466c-82 -14 -124 35 -124 122v134h124v-129h-64c-6 -45 11 -79 56 -75zM371 466c-82 -14 -123 35 -123 122v134h123v-129h-64c-6 -45 11 -79 57 -75z" />
    <glyph glyph-name="guillemotleft" unicode="&#xab;" horiz-adv-x="586" 
d="M256 49l-176 221l176 222l64 -51l-136 -171l136 -171zM460 49l-176 221l176 222l65 -51l-137 -171l137 -171z" />
    <glyph glyph-name="guillemotright" unicode="&#xbb;" horiz-adv-x="586" 
d="M126 49l-64 50l136 171l-136 171l64 51l176 -222zM330 49l-64 50l136 171l-136 171l64 51l176 -222z" />
    <glyph glyph-name="guilsinglleft" unicode="&#x2039;" horiz-adv-x="637" 
d="M380 75l-240 240l240 240l75 -74l-171 -166l171 -166z" />
    <glyph glyph-name="guilsinglright" unicode="&#x203a;" horiz-adv-x="638" 
d="M257 75l-75 74l171 166l-171 166l75 74l240 -240z" />
    <glyph glyph-name="quotedbl" unicode="&#x22;" horiz-adv-x="467" 
d="M60 540v180h120v-180h-120zM247 540v180h120v-180h-120z" />
    <glyph glyph-name="quotesingle" unicode="'" horiz-adv-x="260" 
d="M60 540v180h120v-180h-120z" />
    <glyph glyph-name="guillemotleft.case" horiz-adv-x="586" 
d="M256 139l-176 221l176 222l64 -51l-136 -171l136 -171zM460 139l-176 221l176 222l65 -51l-137 -171l137 -171z" />
    <glyph glyph-name="guillemotright.case" horiz-adv-x="586" 
d="M126 139l-64 50l136 171l-136 171l64 51l176 -222zM330 139l-64 50l136 171l-136 171l64 51l176 -222z" />
    <glyph glyph-name="guilsinglleft.case" horiz-adv-x="637" 
d="M380 120l-240 240l240 240l75 -74l-171 -166l171 -166z" />
    <glyph glyph-name="guilsinglright.case" horiz-adv-x="637" 
d="M257 120l-75 74l171 166l-171 166l75 74l240 -240z" />
    <glyph glyph-name="anoteleia" unicode="&#x387;" horiz-adv-x="600" 
d="M135 242c-42 0 -75 31 -75 73s33 73 75 73c39 0 72 -31 72 -73s-33 -73 -72 -73z" />
    <glyph glyph-name="uni037E" unicode="&#x37e;" horiz-adv-x="343" 
d="M110 417v123h123v-123h-123zM110 -127l7 51c46 -3 63 31 57 76h-64v128h123v-133c0 -87 -41 -136 -123 -122z" />
    <glyph glyph-name="uni00A0" unicode="&#xa0;" horiz-adv-x="200" 
 />
    <glyph glyph-name="uni2060" unicode="&#x2060;" horiz-adv-x="0" 
 />
    <glyph glyph-name="cent" unicode="&#xa2;" horiz-adv-x="576" 
d="M263 -29v92c-141 19 -222 133 -223 282c1 150 84 263 223 282v93h94v-94c96 -16 166 -77 188 -168l-120 -33c-18 58 -65 92 -120 92c-95 0 -137 -73 -137 -172c0 -103 46 -172 137 -172c64 0 98 30 117 85l123 -27c-29 -93 -95 -151 -188 -167v-93h-94z" />
    <glyph glyph-name="currency" unicode="&#xa4;" horiz-adv-x="670" 
d="M598 361c0 -52 -15 -101 -42 -142l84 -84l-80 -80l-84 84c-40 -26 -89 -41 -141 -41c-51 0 -100 15 -140 41l-85 -84l-80 80l84 84c-26 41 -41 90 -41 142c0 51 15 99 41 139l-84 84l80 81l84 -84c41 27 89 42 141 42s101 -15 142 -42l83 84l80 -81l-83 -83
c26 -41 41 -89 41 -140zM175 360c0 -86 72 -160 160 -160c89 0 160 74 160 160c0 89 -73 160 -160 160c-88 0 -160 -71 -160 -160z" />
    <glyph glyph-name="dollar" unicode="$" horiz-adv-x="628" 
d="M590 210c0 -117 -83 -202 -211 -221v-89h-120v90c-119 21 -202 103 -221 223l120 19c19 -82 85 -134 170 -134c83 0 143 44 143 104c0 41 -24 66 -80 84l-174 53c-99 31 -152 94 -152 184c0 112 74 190 194 207v89h120v-91c107 -21 180 -93 206 -205l-123 -22
c-14 71 -72 119 -149 120c-72 2 -128 -38 -128 -92c0 -39 30 -66 99 -86l130 -37c124 -37 176 -95 176 -196z" />
    <glyph glyph-name="Euro" unicode="&#x20ac;" horiz-adv-x="683" 
d="M455 99c44 -1 89 11 125 37l63 -99c-55 -35 -121 -52 -188 -52c-167 0 -283 96 -327 244h-98v95h81c-1 12 -2 24 -2 36s1 24 2 35h-81v95h98c43 151 158 245 327 245c68 0 133 -17 188 -51l-64 -100c-35 25 -80 38 -124 38c-100 0 -165 -50 -196 -132h244v-95h-264
c-1 -11 -2 -23 -2 -35s1 -24 2 -36h264v-95h-243c31 -82 96 -131 195 -130z" />
    <glyph glyph-name="florin" unicode="&#x192;" horiz-adv-x="709" 
d="M532 735c54 0 103 -14 139 -32l-55 -99c-1 1 -34 17 -72 17c-45 0 -96 -22 -106 -82l-22 -131h183v-95h-198l-19 -113c-24 -139 -100 -215 -209 -215c-49 0 -100 15 -135 31l51 101c15 -8 48 -18 74 -18c59 0 87 56 97 118l15 96h-144v95h159l17 106
c13 79 59 221 225 221z" />
    <glyph glyph-name="uni20B4" unicode="&#x20b4;" horiz-adv-x="627" 
d="M537 480h51v-95h-549l-1 95h363l2 3c10 15 13 33 13 46c0 25 -8 44 -24 60c-18 19 -45 32 -74 32c-39 0 -67 -22 -83 -44c-11 -15 -17 -31 -19 -48h-127c4 44 21 87 45 117c42 57 110 89 184 89c61 0 121 -21 160 -58c40 -36 65 -94 65 -150c0 -16 -2 -31 -6 -47z
M588 335v-94h-366c-15 -14 -21 -29 -21 -51c0 -29 11 -50 33 -66c26 -19 56 -24 79 -24c42 0 73 18 98 54c8 10 14 23 17 37h124c-3 -34 -17 -71 -37 -101c-45 -70 -121 -105 -202 -105c-50 0 -104 13 -140 34c-63 35 -99 103 -99 173c0 17 2 33 7 49h-43v94h550z" />
    <glyph glyph-name="uni20BD" unicode="&#x20bd;" horiz-adv-x="685" 
d="M414 262h-152v-69h235v-95h-235v-98h-120v98h-72v95h72v69h-72v103h72v355h272c7 0 32 0 58 -4c125 -19 183 -113 183 -229c0 -120 -60 -203 -183 -221c-26 -4 -51 -4 -58 -4zM262 607v-242h147c11 0 27 0 46 6c55 15 79 58 79 112c0 49 -19 104 -79 119
c-18 5 -38 5 -46 5h-147z" />
    <glyph glyph-name="sterling" unicode="&#xa3;" horiz-adv-x="571" 
d="M248 305v-192h238v-113h-448v113h14c40 0 74 35 74 75v117h-88v113h88v125c0 110 90 192 204 192c104 0 165 -76 203 -182l-109 -36c-19 65 -46 104 -94 104c-49 0 -81 -35 -81 -84v-119h151v-113h-152z" />
    <glyph glyph-name="yen" unicode="&#xa5;" horiz-adv-x="612" 
d="M612 720l-210 -364h109v-94h-144v-69h144v-94h-144v-99h-122v99h-144v94h144v69h-144v94h109l-210 364h141l165 -287l165 287h141z" />
    <glyph glyph-name="uni2215" unicode="&#x2215;" horiz-adv-x="433" 
d="M252 720h121l-192 -720h-121z" />
    <glyph glyph-name="plus" unicode="+" horiz-adv-x="572" 
d="M239 134v179h-179v95h179v178h95v-178h178v-95h-178v-179h-95z" />
    <glyph glyph-name="minus" unicode="&#x2212;" horiz-adv-x="540" 
d="M60 313v95h420v-95h-420z" />
    <glyph glyph-name="multiply" unicode="&#xd7;" horiz-adv-x="508" 
d="M380 167l-126 127l-127 -127l-67 67l127 127l-126 126l67 66l126 -126l126 126l67 -66l-126 -126l126 -127z" />
    <glyph glyph-name="divide" unicode="&#xf7;" horiz-adv-x="540" 
d="M214 462v114h114v-114h-114zM60 313v95h420v-95h-420zM214 147v113h114v-113h-114z" />
    <glyph glyph-name="equal" unicode="=" horiz-adv-x="750" 
d="M120 407v95h510v-95h-510zM120 218v95h510v-95h-510z" />
    <glyph glyph-name="notequal" unicode="&#x2260;" horiz-adv-x="750" 
d="M630 407h-161l-69 -94h230v-95h-300l-83 -113l-77 55l43 58h-93v95h163l69 94h-232v95h302l83 113l76 -55l-43 -58h92v-95z" />
    <glyph glyph-name="greater" unicode="&#x3e;" horiz-adv-x="638" 
d="M257 75l-75 74l171 166l-171 166l75 74l240 -240z" />
    <glyph glyph-name="less" unicode="&#x3c;" horiz-adv-x="637" 
d="M380 75l-240 240l240 240l75 -74l-171 -166l171 -166z" />
    <glyph glyph-name="greaterequal" unicode="&#x2265;" horiz-adv-x="750" 
d="M120 167v95l342 99l-342 99v95l510 -157v-74zM630 0h-510v95h510v-95z" />
    <glyph glyph-name="lessequal" unicode="&#x2264;" horiz-adv-x="750" 
d="M630 167l-510 157v74l510 157v-95l-342 -99l342 -99v-95zM120 0v95h510v-95h-510z" />
    <glyph glyph-name="plusminus" unicode="&#xb1;" horiz-adv-x="600" 
d="M253 220v113h-193v95h193v112h95v-112h192v-95h-192v-113h-95zM60 65v94h480v-94h-480z" />
    <glyph glyph-name="approxequal" unicode="&#x2248;" horiz-adv-x="715" 
d="M457 383c-91 0 -143 98 -192 98c-28 0 -39 -32 -26 -80h-90c-20 96 33 164 108 164c91 0 148 -97 193 -97c27 0 38 37 26 80h90c20 -91 -30 -165 -109 -165zM457 161c-91 0 -143 98 -192 98c-28 0 -39 -32 -26 -81h-90c-20 97 33 165 108 165c91 0 147 -98 193 -98
c28 0 38 37 26 80h90c20 -90 -30 -164 -109 -164z" />
    <glyph glyph-name="asciitilde" unicode="~" horiz-adv-x="716" 
d="M468 204c-100 0 -157 116 -213 116c-30 0 -44 -33 -30 -97h-101c-21 119 36 203 122 203c101 0 163 -116 214 -116c31 0 43 41 30 98h102c21 -113 -34 -204 -124 -204z" />
    <glyph glyph-name="logicalnot" unicode="&#xac;" horiz-adv-x="600" 
d="M446 186v117h-386v95h480v-212h-94z" />
    <glyph glyph-name="asciicircum" unicode="^" horiz-adv-x="680" 
d="M105 495l240 240l241 -240l-75 -74l-166 170l-165 -171z" />
    <glyph glyph-name="infinity" unicode="&#x221e;" horiz-adv-x="736" 
d="M522 497c100 0 179 -79 179 -205c0 -121 -72 -213 -179 -213c-62 0 -120 28 -154 109c-35 -81 -96 -109 -157 -109c-109 0 -178 89 -176 209c3 114 71 209 180 209c66 0 123 -31 154 -109c34 78 92 109 153 109zM217 188c45 0 82 34 118 100c-36 66 -73 100 -118 100
c-51 0 -85 -41 -85 -100c0 -58 34 -100 85 -100zM521 188c50 0 85 42 85 100c0 59 -35 100 -85 100c-46 0 -83 -34 -119 -100c36 -66 73 -100 119 -100z" />
    <glyph glyph-name="emptyset" unicode="&#x2205;" horiz-adv-x="600" 
d="M560 496l-59 -59c33 -43 53 -98 53 -156c0 -143 -116 -258 -258 -258c-59 0 -114 20 -157 54l-60 -60l-47 47l60 60c-33 43 -53 98 -53 157c0 141 115 257 257 257c59 0 114 -20 157 -54l60 60zM118 281c0 -37 11 -71 31 -100l247 246c-29 20 -63 31 -100 31
c-99 0 -178 -79 -178 -177zM473 281c0 36 -11 70 -30 98l-247 -245c29 -20 63 -31 100 -31c97 0 177 81 177 178z" />
    <glyph glyph-name="integral" unicode="&#x222b;" horiz-adv-x="600" 
d="M60 -210l10 98h62c45 0 71 25 75 62l63 599c4 42 8 97 50 139c53 53 123 47 153 47h67l-9 -98h-63c-45 0 -71 -25 -75 -62l-62 -599c-5 -42 -9 -97 -51 -139c-52 -53 -123 -47 -153 -47h-67z" />
    <glyph glyph-name="product" unicode="&#x220f;" horiz-adv-x="590" 
d="M60 0v720h470v-720h-120v626h-230v-626h-120z" />
    <glyph glyph-name="summation" unicode="&#x2211;" horiz-adv-x="560" 
d="M500 646v-108h-285l285 -226v-48l-284 -225h284v-108l-440 -1v109l309 249l-309 249v109h440z" />
    <glyph glyph-name="radical" unicode="&#x221a;" horiz-adv-x="591" 
d="M239 0l-94 300h-133v89h208l77 -244l215 660h104l-261 -805h-116z" />
    <glyph glyph-name="uni00B5" unicode="&#xb5;" horiz-adv-x="635" 
d="M69 -240v780h122v-260c0 -67 11 -182 126 -182c62 0 127 34 127 165v277h121v-540h-107v61c-39 -48 -99 -76 -176 -76c-44 0 -79 10 -106 29v-254h-107z" />
    <glyph glyph-name="partialdiff" unicode="&#x2202;" horiz-adv-x="596" 
d="M299 -15c-155 0 -259 109 -259 266c0 161 106 268 259 267c76 0 89 -11 143 -45c-4 30 -15 62 -47 96c-47 52 -108 89 -189 94l18 93c96 -4 182 -38 241 -117c79 -102 91 -229 91 -384c0 -162 -96 -270 -257 -270zM299 92c90 0 137 64 137 160c0 98 -49 160 -137 159
c-92 1 -138 -61 -138 -159c0 -100 48 -160 138 -160z" />
    <glyph glyph-name="percent" unicode="%" horiz-adv-x="900" 
d="M240 375c-99 0 -180 80 -180 180c0 98 84 180 180 180c99 0 180 -80 180 -180s-81 -180 -180 -180zM170 0l-80 80l640 640l80 -81zM240 478c42 0 77 35 77 77s-35 77 -77 77s-77 -35 -77 -77s35 -77 77 -77zM660 -15c-99 0 -180 80 -180 180c0 98 84 180 180 180
c99 0 180 -80 180 -180s-81 -180 -180 -180zM660 88c42 0 78 35 78 77s-36 77 -78 77c-41 0 -77 -35 -77 -77s36 -77 77 -77z" />
    <glyph glyph-name="perthousand" unicode="&#x2030;" horiz-adv-x="1312" 
d="M240 375c-99 0 -180 80 -180 180c0 98 84 180 180 180c99 0 180 -80 180 -180s-81 -180 -180 -180zM170 0l-80 80l640 640l80 -81zM240 478c42 0 77 35 77 77s-35 77 -77 77s-77 -35 -77 -77s35 -77 77 -77zM660 -15c-99 0 -180 80 -180 180c0 98 84 180 180 180
c99 0 180 -80 180 -180s-81 -180 -180 -180zM1072 -15c-99 0 -180 80 -180 180c0 98 84 180 180 180c99 0 180 -80 180 -180s-81 -180 -180 -180zM660 88c42 0 78 35 78 77s-36 77 -78 77c-41 0 -77 -35 -77 -77s36 -77 77 -77zM1072 88c42 0 77 35 77 77s-35 77 -77 77
s-77 -35 -77 -77s35 -77 77 -77z" />
    <glyph glyph-name="greater.case" horiz-adv-x="637" 
d="M257 120l-75 74l171 166l-171 166l75 74l240 -240z" />
    <glyph glyph-name="less.case" horiz-adv-x="637" 
d="M380 120l-240 240l240 240l75 -74l-171 -166l171 -166z" />
    <glyph glyph-name="arrowup" unicode="&#x2191;" horiz-adv-x="720" 
d="M313 0v570l-135 -136l-58 57l240 241l240 -241l-57 -57l-135 135v-569h-95z" />
    <glyph glyph-name="arrowright" unicode="&#x2192;" horiz-adv-x="1012" 
d="M141 268v95h568l-134 134l57 58l240 -240l-240 -240l-57 58l135 135h-569z" />
    <glyph glyph-name="arrowdown" unicode="&#x2193;" horiz-adv-x="720" 
d="M313 650h95v-569l135 135l57 -57l-240 -241l-240 241l58 57l135 -136v570z" />
    <glyph glyph-name="arrowleft" unicode="&#x2190;" horiz-adv-x="1012" 
d="M871 268h-569l135 -135l-57 -58l-240 240l240 240l57 -58l-134 -134h568v-95z" />
    <glyph glyph-name="carriagereturn" unicode="&#x21b5;" horiz-adv-x="819" 
d="M380 75l-240 240l240 240l57 -58l-134 -134h362v357h94v-453h-456l134 -134z" />
    <glyph glyph-name="arrowright.case" horiz-adv-x="1012" 
d="M141 276v94h568l-134 135l57 58l240 -241l-240 -240l-57 58l135 136h-569z" />
    <glyph glyph-name="arrowleft.case" horiz-adv-x="1012" 
d="M871 276h-569l135 -136l-57 -58l-240 240l240 241l57 -58l-134 -135h568v-94z" />
    <glyph glyph-name="lozenge" unicode="&#x25ca;" horiz-adv-x="540" 
d="M196 -8l-146 345l146 345h148l146 -345l-146 -345h-148zM270 96l101 241l-101 240l-101 -240z" />
    <glyph glyph-name="at" unicode="@" horiz-adv-x="914" 
d="M452 645c254 0 384 -168 382 -359c-2 -131 -48 -206 -161 -206c-44 0 -88 17 -113 49c-31 -34 -73 -46 -114 -46c-106 0 -181 75 -181 185c0 113 80 184 183 184c34 0 73 -12 102 -31v17h74l-2 -188c0 -52 19 -74 52 -74c52 0 57 47 58 109c2 208 -157 266 -272 266
c-180 0 -284 -116 -279 -292c5 -170 115 -269 279 -269c41 0 83 8 119 23l32 -89c-49 -20 -102 -29 -156 -29c-221 0 -375 153 -375 361c0 260 171 389 372 389zM453 179c45 0 81 22 81 89c0 58 -27 89 -78 89c-61 0 -90 -35 -90 -89c0 -56 31 -89 87 -89z" />
    <glyph glyph-name="ampersand" unicode="&#x26;" horiz-adv-x="668" 
d="M309 -15c-80 0 -155 23 -203 74c-38 42 -54 92 -56 149c0 55 16 109 50 149c13 16 29 28 45 38c-39 44 -59 81 -59 137c0 84 48 156 126 185c34 13 69 16 103 16c63 0 124 -17 165 -60c25 -25 43 -57 52 -89l-119 -26c-5 15 -14 29 -25 39c-21 19 -49 24 -76 24
c-21 0 -40 -4 -57 -12c-32 -16 -48 -41 -48 -78c0 -34 14 -51 33 -71c12 -13 30 -30 49 -47l180 -167c1 12 1 30 1 44v88h106v-131c0 -36 -2 -72 -7 -94l89 -82l-77 -83l-70 66c-34 -32 -76 -52 -117 -60c-30 -7 -57 -9 -85 -9zM313 100c21 0 39 1 57 7c24 8 41 18 54 29
l-190 175c-18 -7 -32 -18 -42 -30c-14 -18 -20 -40 -20 -67c0 -30 10 -53 25 -72c25 -30 75 -42 116 -42z" />
    <glyph glyph-name="paragraph" unicode="&#xb6;" horiz-adv-x="715" 
d="M337 -141v392h-48c-5 0 -31 1 -57 4c-123 18 -184 112 -184 231c0 117 59 212 184 230c26 4 51 4 57 4h168v-861h-120zM547 -141v861h120v-861h-120z" />
    <glyph glyph-name="section" unicode="&#xa7;" horiz-adv-x="542" 
d="M430 150c40 -25 61 -60 61 -114c0 -114 -91 -176 -212 -176c-114 0 -207 53 -227 172l123 19c13 -58 62 -86 111 -86c42 0 82 20 82 64c0 43 -36 52 -137 78c-120 31 -183 70 -183 149c0 61 39 100 90 121c-52 26 -79 61 -79 120c0 115 102 166 200 166
c102 0 196 -55 210 -159l-123 -22c-9 54 -43 78 -91 78c-42 0 -76 -19 -76 -54c0 -47 61 -54 148 -78c114 -32 176 -66 176 -155c0 -59 -26 -101 -73 -123zM168 273c0 -46 56 -54 147 -78c5 -1 10 -3 14 -4c28 14 51 38 51 72c0 42 -36 52 -138 78c-1 0 -2 0 -2 1
c-47 -17 -72 -38 -72 -69z" />
    <glyph glyph-name="copyright" unicode="&#xa9;" horiz-adv-x="886" 
d="M443 -59c-228 0 -413 185 -413 413s185 413 413 413c229 0 413 -185 413 -413s-184 -413 -413 -413zM443 54c166 0 300 134 300 300s-134 300 -300 300s-300 -134 -300 -300s134 -300 300 -300zM451 141c-67 0 -113 20 -150 66c-35 44 -49 93 -49 147c0 56 16 106 49 146
c37 45 84 68 155 68c37 0 67 -7 100 -27c36 -22 64 -57 75 -103l-92 -25c-6 18 -16 35 -33 49c-16 14 -35 20 -56 20c-32 0 -57 -14 -76 -37c-19 -25 -24 -58 -24 -90c0 -34 7 -66 24 -91c18 -23 43 -36 78 -36c24 0 42 5 56 17c15 14 22 27 29 46l94 -20
c-12 -39 -35 -73 -65 -96s-64 -34 -115 -34z" />
    <glyph glyph-name="registered" unicode="&#xae;" horiz-adv-x="655" 
d="M327 273c-141 0 -257 116 -257 258c0 141 116 257 257 257c142 0 258 -116 258 -257c0 -142 -116 -258 -258 -258zM328 353c97 0 178 81 178 178c0 98 -81 177 -178 177c-98 0 -178 -79 -178 -177c0 -97 80 -178 178 -178zM245 413v237h100c49 0 79 -32 81 -79
c0 -28 -14 -54 -42 -69l44 -89h-49l-39 81h-52v-81h-43zM288 535h58c20 0 35 15 35 36c0 24 -13 37 -35 37h-58v-73z" />
    <glyph glyph-name="trademark" unicode="&#x2122;" horiz-adv-x="920" 
d="M185 345v298h-125v77h335v-77h-125v-298h-85zM465 345v375h69l129 -202l129 202h68v-375h-81v216l-93 -149h-47l-92 149v-216h-82z" />
    <glyph glyph-name="degree" unicode="&#xb0;" horiz-adv-x="450" 
d="M210 375c-99 0 -180 80 -180 180c0 98 84 180 180 180c99 0 180 -80 180 -180s-81 -180 -180 -180zM210 478c42 0 77 35 77 77s-35 77 -77 77s-77 -35 -77 -77s35 -77 77 -77z" />
    <glyph glyph-name="bar" unicode="|" horiz-adv-x="300" 
d="M90 0v720h120v-720h-120z" />
    <glyph glyph-name="brokenbar" unicode="&#xa6;" horiz-adv-x="300" 
d="M90 313v407h120v-407h-120zM90 -204v407h120v-407h-120z" />
    <glyph glyph-name="dagger" unicode="&#x2020;" horiz-adv-x="540" 
d="M480 540v-94h-150v-446h-120v446h-150v94h150v180h120v-180h150z" />
    <glyph glyph-name="daggerdbl" unicode="&#x2021;" horiz-adv-x="462" 
d="M402 437h-111v-124h111v-94h-111v-219h-120v219h-110v94h110v124h-110v95h110v188h120v-188h111v-95z" />
    <glyph glyph-name="uni2116" unicode="&#x2116;" horiz-adv-x="1132" 
d="M902 375c-99 0 -180 80 -180 180c0 98 84 180 180 180c99 0 180 -80 180 -180s-81 -180 -180 -180zM70 0v720h122l334 -507v507h122v-720h-122l-334 508v-508h-122zM902 478c41 0 77 35 77 77s-36 77 -77 77c-42 0 -77 -35 -77 -77s35 -77 77 -77zM752 237v94h300v-94
h-300z" />
    <glyph glyph-name="at.case" horiz-adv-x="914" 
d="M452 735c254 0 384 -168 382 -359c-2 -131 -48 -206 -161 -206c-44 0 -88 17 -113 49c-31 -34 -73 -46 -114 -46c-106 0 -181 75 -181 185c0 113 80 184 183 184c34 0 73 -12 102 -31v17h74l-2 -188c0 -52 19 -74 52 -74c52 0 57 47 58 109c2 208 -157 266 -272 266
c-180 0 -284 -116 -279 -292c5 -170 115 -269 279 -269c41 0 83 8 119 23l32 -89c-49 -20 -102 -29 -156 -29c-221 0 -375 153 -375 361c0 260 171 389 372 389zM453 269c45 0 81 22 81 89c0 58 -27 89 -78 89c-61 0 -90 -35 -90 -89c0 -56 31 -89 87 -89z" />
    <glyph glyph-name="copyright.case" horiz-adv-x="886" 
d="M443 31c-228 0 -413 185 -413 413c0 229 185 413 413 413c229 0 413 -184 413 -413c0 -228 -184 -413 -413 -413zM443 144c166 0 300 134 300 300s-134 300 -300 300s-300 -134 -300 -300s134 -300 300 -300zM451 231c-67 0 -113 20 -150 67c-35 44 -49 93 -49 147
c0 55 16 105 49 145c37 45 84 68 155 68c37 0 67 -6 100 -27c36 -22 64 -57 75 -103l-92 -25c-6 19 -16 36 -33 50c-16 13 -35 19 -56 19c-32 0 -57 -14 -76 -37c-19 -24 -24 -58 -24 -90c0 -34 7 -65 24 -90c18 -24 43 -37 78 -37c24 0 42 5 56 17c15 14 22 28 29 46
l94 -20c-12 -39 -35 -73 -65 -96c-30 -22 -64 -34 -115 -34z" />
    <glyph glyph-name="uni0374" unicode="&#x374;" horiz-adv-x="297" 
d="M60 645l38 120h119l-38 -120h-119z" />
    <glyph glyph-name="uni0375" unicode="&#x375;" horiz-adv-x="297" 
d="M60 -126l38 120h119l-38 -120h-119z" />
    <glyph glyph-name="dieresis" unicode="&#xa8;" horiz-adv-x="557" 
d="M120 840v110h110v-110h-110zM327 840v110h110v-110h-110z" />
    <glyph glyph-name="dotaccent" unicode="&#x2d9;" horiz-adv-x="363" 
d="M120 827v123h123v-123h-123z" />
    <glyph glyph-name="grave" unicode="`" horiz-adv-x="539" 
d="M388 785l-268 96l30 88l269 -96z" />
    <glyph glyph-name="acute" unicode="&#xb4;" horiz-adv-x="539" 
d="M151 785l-31 88l268 96l31 -88z" />
    <glyph glyph-name="hungarumlaut" unicode="&#x2dd;" horiz-adv-x="581" 
d="M177 791l-57 59l122 119l57 -58zM340 791l-57 59l121 119l57 -58z" />
    <glyph glyph-name="circumflex" unicode="&#x2c6;" horiz-adv-x="581" 
d="M164 786l-44 83l171 93l170 -93l-44 -83l-126 69z" />
    <glyph glyph-name="caron" unicode="&#x2c7;" horiz-adv-x="579" 
d="M291 786l-171 94l44 82l127 -69l126 69l44 -82z" />
    <glyph glyph-name="breve" unicode="&#x2d8;" horiz-adv-x="543" 
d="M272 780c-84 0 -152 68 -152 152h94c0 -32 26 -58 58 -58s57 26 57 58h94c0 -84 -68 -152 -151 -152z" />
    <glyph glyph-name="ring" unicode="&#x2da;" horiz-adv-x="548" 
d="M274 634c-80 0 -146 66 -146 146s66 146 146 146s146 -66 146 -146s-66 -146 -146 -146zM274 720c33 0 60 27 60 60s-27 60 -60 60s-60 -27 -60 -60s27 -60 60 -60z" />
    <glyph glyph-name="tilde" unicode="&#x2dc;" horiz-adv-x="578" 
d="M367 800c-71 0 -112 82 -151 82c-21 0 -31 -23 -21 -69h-72c-15 85 26 144 87 144c71 0 115 -82 152 -82c21 0 30 29 21 69h72c15 -80 -24 -144 -88 -144z" />
    <glyph glyph-name="macron" unicode="&#xaf;" horiz-adv-x="507" 
d="M120 840v94h267v-94h-267z" />
    <glyph glyph-name="cedilla" unicode="&#xb8;" horiz-adv-x="414" 
d="M189 -242c-27 0 -49 8 -69 19l27 71c13 -5 23 -7 32 -7c20 0 31 14 31 27c0 26 -31 35 -65 45l35 102l73 1l-20 -58c38 -19 61 -50 61 -93c0 -63 -48 -107 -105 -107z" />
    <glyph glyph-name="ogonek" unicode="&#x2db;" horiz-adv-x="444" 
d="M226 -240c-62 0 -107 52 -107 110c0 71 67 150 152 191l53 -61c-61 -33 -111 -87 -111 -121c0 -17 13 -29 29 -29c12 0 25 6 37 17l44 -56c-24 -33 -60 -51 -97 -51z" />
    <glyph glyph-name="nonmarkingreturn" horiz-adv-x="685" 
 />
    </font>
</defs>
</svg>
