<svg width="16" height="16" viewBox="0 0 16 16" fill="none" xmlns="http://www.w3.org/2000/svg">
<path d="M11.6738 4.57069C11.4568 4.41504 11.2446 4.26814 11.0639 4.14187C11.0029 4.09874 10.9443 4.06685 10.8832 4.04373C10.5768 3.92871 10.2704 4.04373 10.0673 4.3519C9.48284 5.24204 8.89778 6.13469 8.31333 7.0242L6.99938 9.02827C6.59262 8.60758 6.18889 8.19002 5.78274 7.76995C5.60988 7.59117 5.43461 7.50178 5.24785 7.50178H5.24483C5.06109 7.50178 4.88279 7.59117 4.71296 7.76682C4.56247 7.92247 4.41499 8.075 4.26752 8.23065L4.25664 8.2419C3.91395 8.59883 3.91395 8.99077 4.25966 9.3477C4.99219 10.1053 5.72411 10.8623 6.45664 11.6199C6.4929 11.6574 6.53158 11.695 6.57328 11.7325C6.77394 11.9081 6.99092 12 7.2079 12C7.24416 12 7.28042 11.9969 7.31669 11.9912C7.56449 11.9569 7.78449 11.8012 7.95432 11.5449C9.22113 9.61274 10.4716 7.70619 11.8581 5.5896C12.1005 5.22392 12.0279 4.82323 11.6744 4.57006L11.6738 4.57069Z" fill="white"/>
</svg>
